<svg width="16" height="15" viewBox="0 0 16 15" fill="none" xmlns="http://www.w3.org/2000/svg">
<path d="M1.02734 14.5234C1.34229 14.5234 1.58398 14.2671 1.58398 13.9595V1.42041C1.58398 1.11279 1.34229 0.86377 1.02734 0.86377C0.719727 0.86377 0.478027 1.11279 0.478027 1.42041V13.9595C0.478027 14.2671 0.719727 14.5234 1.02734 14.5234ZM4.68213 14.5234C4.99707 14.5234 5.23877 14.2671 5.23877 13.9595V1.42041C5.23877 1.11279 4.99707 0.86377 4.68213 0.86377C4.37451 0.86377 4.13281 1.11279 4.13281 1.42041V13.9595C4.13281 14.2671 4.37451 14.5234 4.68213 14.5234ZM8.33691 14.5234C8.65186 14.5234 8.89355 14.2671 8.89355 13.9595V1.42041C8.89355 1.11279 8.65186 0.86377 8.33691 0.86377C8.0293 0.86377 7.7876 1.11279 7.7876 1.42041V13.9595C7.7876 14.2671 8.0293 14.5234 8.33691 14.5234ZM12.7754 9.93848L15.1997 8.31982C15.6392 8.02686 15.6245 7.4043 15.1997 7.11133L12.7754 5.46338C12.2188 5.08252 11.6255 5.29492 11.6255 5.96875V9.44043C11.6255 10.0923 12.2407 10.29 12.7754 9.93848Z" fill="black"/>
</svg>
