<svg width="16" height="17" viewBox="0 0 16 17" fill="none" xmlns="http://www.w3.org/2000/svg">
<path d="M8 16.3281C12.3594 16.3281 15.9688 12.7188 15.9688 8.35938C15.9688 4.00781 12.3516 0.390625 7.99219 0.390625C3.64062 0.390625 0.03125 4.00781 0.03125 8.35938C0.03125 12.7188 3.64844 16.3281 8 16.3281ZM6.92969 12.3672C6.66406 12.3672 6.45312 12.25 6.23438 11.9844L3.97656 9.20312C3.85938 9.05469 3.78906 8.86719 3.78906 8.69531C3.78906 8.32812 4.07812 8.04688 4.42969 8.04688C4.64844 8.04688 4.84375 8.13281 5.02344 8.375L6.89062 10.7891L10.5234 4.96875C10.6719 4.72656 10.875 4.60938 11.0859 4.60938C11.4297 4.60938 11.7578 4.83594 11.7578 5.21094C11.7578 5.38281 11.6562 5.57031 11.5625 5.72656L7.58594 11.9844C7.41406 12.2422 7.19531 12.3672 6.92969 12.3672Z" fill="black"/>
</svg>
