<svg width="29" height="36" viewBox="0 0 29 36" fill="none" xmlns="http://www.w3.org/2000/svg">
<path d="M5.21387 35.5947H23.1934C26.4971 35.5947 28.1904 33.9014 28.1904 30.5479V5.23047C28.1904 1.89355 26.4971 0.166992 23.1934 0.166992H5.21387C1.92676 0.166992 0.233398 1.89355 0.233398 5.23047V30.5479C0.233398 33.9014 1.92676 35.5947 5.21387 35.5947ZM5.34668 32.9385C3.75293 32.9385 2.90625 32.0586 2.90625 30.5146V5.26367C2.90625 3.70312 3.75293 2.83984 5.36328 2.83984H23.0605C24.6709 2.83984 25.5176 3.70312 25.5176 5.26367V30.5146C25.5176 32.0586 24.6709 32.9385 23.0771 32.9385H5.34668ZM18.3291 17.0342C20.3379 17.0342 21.749 15.6562 21.749 13.6475C21.749 11.7051 20.5537 10.4268 18.7939 10.4268C17.8975 10.4268 17.1836 10.709 16.6689 11.3398H16.3203C16.4531 10.7588 16.835 10.1777 17.3662 9.71289C17.8975 9.23145 18.5615 8.93262 19.292 8.7666C19.9062 8.63379 20.1055 8.43457 20.1055 8.06934C20.1055 7.7373 19.8564 7.47168 19.3916 7.47168C18.3125 7.47168 16.918 8.15234 16.0381 9.11523C15.0918 10.1279 14.627 11.4395 14.627 12.834C14.627 15.4902 16.2705 17.0342 18.3291 17.0342ZM9.91211 17.0508C11.9375 17.0508 13.332 15.6729 13.332 13.6641C13.332 11.7217 12.1367 10.4434 10.377 10.4434C9.49707 10.4434 8.7666 10.7256 8.25195 11.3564H7.91992C8.05273 10.7588 8.43457 10.1611 9.01562 9.69629C9.53027 9.24805 10.1611 8.93262 10.8916 8.7832C11.5059 8.65039 11.6885 8.45117 11.6885 8.08594C11.6885 7.75391 11.4395 7.48828 10.9746 7.48828C9.89551 7.48828 8.55078 8.13574 7.62109 9.13184C6.69141 10.1445 6.22656 11.4561 6.22656 12.8506C6.22656 15.5068 7.87012 17.0508 9.91211 17.0508ZM7.7041 22.6455H20.3047C20.8857 22.6455 21.3174 22.1973 21.3174 21.6162C21.3174 21.0518 20.8857 20.6035 20.3047 20.6035H7.7041C7.10645 20.6035 6.6582 21.0518 6.6582 21.6162C6.6582 22.1973 7.10645 22.6455 7.7041 22.6455ZM7.7041 28.4395H13.6641C14.2617 28.4395 14.6934 28.0078 14.6934 27.4268C14.6934 26.8457 14.2617 26.3975 13.6641 26.3975H7.7041C7.10645 26.3975 6.6582 26.8457 6.6582 27.4268C6.6582 28.0078 7.10645 28.4395 7.7041 28.4395Z" fill="#CCCCCC"/>
</svg>
