<svg width="36" height="36" viewBox="0 0 36 36" fill="none" xmlns="http://www.w3.org/2000/svg">
    <path d="M8.70801 28.1484H27.292C29.5479 28.1484 30.665 27.0312 30.665 24.8184V11.7021C30.665 9.48926 29.5479 8.37207 27.292 8.37207H8.70801C6.46289 8.37207 5.33496 9.47852 5.33496 11.7021V24.8184C5.33496 27.042 6.46289 28.1484 8.70801 28.1484ZM23.1777 18.2334C22.6943 17.8037 22.1357 17.5781 21.5557 17.5781C20.9648 17.5781 20.4385 17.7822 19.9443 18.2227L15.0889 22.5625L13.1016 20.7578C12.6504 20.3604 12.1562 20.1455 11.6514 20.1455C11.168 20.1455 10.7168 20.3496 10.2656 20.7471L7.06445 23.6367V11.7881C7.06445 10.6709 7.65527 10.1016 8.72949 10.1016H27.2705C28.334 10.1016 28.9355 10.6709 28.9355 11.7881V23.6475L23.1777 18.2334ZM13.3379 18.3516C14.7236 18.3516 15.8623 17.2129 15.8623 15.8164C15.8623 14.4307 14.7236 13.2812 13.3379 13.2812C11.9414 13.2812 10.8027 14.4307 10.8027 15.8164C10.8027 17.2129 11.9414 18.3516 13.3379 18.3516Z" fill="#CCC"/>
</svg>
