<svg width="18" height="15" viewBox="0 0 18 15" fill="none" xmlns="http://www.w3.org/2000/svg">
<path d="M2.66455 14.4648H15.3354C16.8735 14.4648 17.6353 13.7031 17.6353 12.1943V3.25146C17.6353 1.74268 16.8735 0.980957 15.3354 0.980957H2.66455C1.13379 0.980957 0.364746 1.73535 0.364746 3.25146V12.1943C0.364746 13.7104 1.13379 14.4648 2.66455 14.4648ZM12.5303 7.70459C12.2007 7.41162 11.8198 7.25781 11.4243 7.25781C11.0215 7.25781 10.6626 7.39697 10.3257 7.69727L7.01514 10.6562L5.66016 9.42578C5.35254 9.15479 5.01562 9.0083 4.67139 9.0083C4.3418 9.0083 4.03418 9.14746 3.72656 9.41846L1.54395 11.3887V3.31006C1.54395 2.54834 1.94678 2.16016 2.6792 2.16016H15.3208C16.0459 2.16016 16.4561 2.54834 16.4561 3.31006V11.396L12.5303 7.70459ZM5.82129 7.78516C6.76611 7.78516 7.54248 7.00879 7.54248 6.05664C7.54248 5.11182 6.76611 4.32812 5.82129 4.32812C4.86914 4.32812 4.09277 5.11182 4.09277 6.05664C4.09277 7.00879 4.86914 7.78516 5.82129 7.78516Z" fill="black"/>
</svg>
