<svg width="16" height="17" viewBox="0 0 16 17" fill="none" xmlns="http://www.w3.org/2000/svg">
<path d="M8 16.3281C12.3594 16.3281 15.9688 12.7188 15.9688 8.35938C15.9688 4.00781 12.3516 0.390625 7.99219 0.390625C3.64062 0.390625 0.03125 4.00781 0.03125 8.35938C0.03125 12.7188 3.64844 16.3281 8 16.3281ZM5.19531 11.8281C4.83594 11.8281 4.53906 11.5312 4.53906 11.1641C4.53906 10.9844 4.60938 10.8281 4.73438 10.7109L7.07031 8.36719L4.73438 6.02344C4.60938 5.91406 4.53906 5.75 4.53906 5.57031C4.53906 5.21094 4.83594 4.92188 5.19531 4.92188C5.38281 4.92188 5.53125 4.99219 5.64844 5.11719L7.99219 7.45312L10.3516 5.10938C10.4844 4.96875 10.6328 4.90625 10.8047 4.90625C11.1719 4.90625 11.4609 5.20312 11.4609 5.5625C11.4609 5.74219 11.4062 5.89062 11.2656 6.01562L8.92188 8.36719L11.2578 10.6953C11.3828 10.8203 11.4531 10.9766 11.4531 11.1641C11.4531 11.5312 11.1641 11.8281 10.7969 11.8281C10.6094 11.8281 10.4453 11.75 10.3281 11.6328L7.99219 9.28906L5.66406 11.6328C5.54688 11.7578 5.38281 11.8281 5.19531 11.8281Z" fill="#C7C7CC"/>
</svg>
