<svg width="20" height="20" viewBox="0 0 16 15" fill="none" xmlns="http://www.w3.org/2000/svg">
    <path
            d="M3.44531 14.5625H12.9219C14.5625 14.5625 15.375 13.75 15.375 12.1406V2.60156C15.375 0.992188 14.5625 0.179688 12.9219 0.179688H3.44531C1.8125 0.179688 0.992188 0.984375 0.992188 2.60156V12.1406C0.992188 13.7578 1.8125 14.5625 3.44531 14.5625ZM3.46094 13.3047C2.67969 13.3047 2.25 12.8906 2.25 12.0781V2.66406C2.25 1.85156 2.67969 1.4375 3.46094 1.4375H12.9062C13.6797 1.4375 14.1172 1.85156 14.1172 2.66406V12.0781C14.1172 12.8906 13.6797 13.3047 12.9062 13.3047H3.46094Z"
            fill="#C7C7CC"
    />
</svg>
