<svg width="14" height="15" viewBox="0 0 14 15" fill="none" xmlns="http://www.w3.org/2000/svg">
<path d="M7 14.0371C10.8145 14.0371 13.9727 10.8789 13.9727 7.06445C13.9727 3.25684 10.8076 0.0917969 6.99316 0.0917969C3.18555 0.0917969 0.0273438 3.25684 0.0273438 7.06445C0.0273438 10.8789 3.19238 14.0371 7 14.0371ZM4.5459 10.0996C4.23145 10.0996 3.97168 9.83984 3.97168 9.51855C3.97168 9.36133 4.0332 9.22461 4.14258 9.12207L6.18652 7.07129L4.14258 5.02051C4.0332 4.9248 3.97168 4.78125 3.97168 4.62402C3.97168 4.30957 4.23145 4.05664 4.5459 4.05664C4.70996 4.05664 4.83984 4.11816 4.94238 4.22754L6.99316 6.27148L9.05762 4.2207C9.17383 4.09766 9.30371 4.04297 9.4541 4.04297C9.77539 4.04297 10.0283 4.30273 10.0283 4.61719C10.0283 4.77441 9.98047 4.9043 9.85742 5.01367L7.80664 7.07129L9.85059 9.1084C9.95996 9.21777 10.0215 9.35449 10.0215 9.51855C10.0215 9.83984 9.76855 10.0996 9.44727 10.0996C9.2832 10.0996 9.13965 10.0312 9.03711 9.92871L6.99316 7.87793L4.95605 9.92871C4.85352 10.0381 4.70996 10.0996 4.5459 10.0996Z" fill="#FF3B30"/>
</svg>
