<svg width="10" height="14" viewBox="0 0 10 14" fill="none" xmlns="http://www.w3.org/2000/svg">
<path d="M1.64356 13.3672H8.28125C8.98535 13.3672 9.39551 12.9844 9.40235 12.2461V12.0684C9.40918 10.1816 7.39258 8.65039 6.51758 7.81641C6.27149 7.58398 6.1416 7.37207 6.1416 7.06445C6.1416 6.75684 6.26465 6.55176 6.51758 6.3125C7.39258 5.46484 9.40235 4.0293 9.40235 2.06738V1.90332C9.40235 1.16504 8.98535 0.782227 8.28125 0.782227H1.64356C0.966799 0.782227 0.590822 1.16504 0.590822 1.8418V2.06738C0.590822 4.0293 2.60059 5.46484 3.47559 6.3125C3.72852 6.55176 3.85156 6.75684 3.85156 7.06445C3.85156 7.37207 3.72852 7.58398 3.47559 7.81641C2.60059 8.65039 0.590822 10.1816 0.590822 12.0684V12.3076C0.590822 12.9844 0.966799 13.3672 1.64356 13.3672ZM2.35449 12.4307C2.03321 12.4307 1.93067 12.0684 2.24512 11.8291L4.58985 10.0859C4.66504 10.0244 4.70606 9.9834 4.70606 9.88086V6.59277C4.70606 6.22363 4.62403 6.03906 4.3711 5.82031C3.97461 5.49219 3.24317 4.97266 2.90137 4.50098C2.76465 4.30957 2.78516 4.15234 2.95606 4.15234H7.03711C7.20801 4.15234 7.22168 4.30957 7.08496 4.50098C6.75 4.97266 6.01172 5.49219 5.62207 5.82031C5.35547 6.03906 5.28711 6.22363 5.28711 6.59277V9.88086C5.28711 9.9834 5.32813 10.0244 5.40332 10.0859L7.74121 11.8291C8.0625 12.0684 7.95996 12.4307 7.63184 12.4307H2.35449Z" fill="#939393"/>
</svg>
