<svg width="16.8" height="13.7" viewBox="0 0 16.8 13.7" xmlns="http://www.w3.org/2000/svg" style="enable-background:new 0 0 16.8 13.7;">
<path d="M14.8,3h-1.2V2c0-1.3-0.7-2-2-2H2C0.7,0,0,0.7,0,2v6.7c0,1.3,0.7,2,2,2h1.2v1.1c0,1.3,0.7,2,2,2h9.6c1.3,0,2-0.7,2-2V5
	C16.8,3.7,16.1,3,14.8,3z M3.2,5v4.6H2c-0.6,0-1-0.3-1-1V2c0-0.7,0.3-1,1-1h9.6c0.6,0,1,0.3,1,1v1H5.2C3.8,3,3.2,3.6,3.2,5z
	 M15.8,10.3l-2.3-2.2c-0.3-0.3-0.6-0.4-1-0.4s-0.7,0.1-1,0.4l-2.9,2.5l-1.1-1C7.3,9.4,7,9.2,6.7,9.2c-0.3,0-0.5,0.1-0.8,0.4
	l-1.7,1.4V5c0-0.7,0.4-1,1-1h9.6c0.6,0,1,0.3,1,1V10.3z"/>
<path d="M7.6,5.3C6.8,5.3,6.1,6,6.1,6.8c0,0.8,0.7,1.5,1.5,1.5c0.8,0,1.5-0.7,1.5-1.5C9.1,6,8.5,5.3,7.6,5.3z"/>
</svg>
