<svg width="14" height="14" viewBox="0 0 14 14" fill="none" xmlns="http://www.w3.org/2000/svg">
<path d="M7 13.9619C10.623 13.9619 13.624 10.9609 13.624 7.33105C13.624 3.70801 10.6162 0.707031 6.99316 0.707031C3.37012 0.707031 0.369141 3.70801 0.369141 7.33105C0.369141 10.9609 3.37695 13.9619 7 13.9619ZM6.11133 10.6738C5.88574 10.6738 5.70117 10.5713 5.5166 10.3457L3.65723 8.05566C3.54785 7.93262 3.49316 7.77539 3.49316 7.625C3.49316 7.31055 3.73926 7.06445 4.04688 7.06445C4.23145 7.06445 4.39551 7.13281 4.55273 7.33789L6.08398 9.30664L9.05762 4.54199C9.19434 4.33008 9.36523 4.22754 9.5498 4.22754C9.84375 4.22754 10.1309 4.42578 10.1309 4.74707C10.1309 4.89746 10.0488 5.05469 9.9668 5.19141L6.67871 10.3389C6.53516 10.5645 6.34375 10.6738 6.11133 10.6738Z" fill="#34C759"/>
</svg>
