<svg width="10" height="14" viewBox="0 0 10 14" fill="none" xmlns="http://www.w3.org/2000/svg">
<path d="M1.64355 13.7363H8.35645C9.30664 13.7363 9.77148 13.2646 9.77148 12.2324V7.04395C9.77148 6.11426 9.38867 5.63574 8.60254 5.56055V3.90625C8.60254 1.29492 6.83887 0.0234375 5 0.0234375C3.16113 0.0234375 1.39746 1.29492 1.39746 3.90625V5.58105C0.652344 5.68359 0.228516 6.15527 0.228516 7.04395V12.2324C0.228516 13.2646 0.693359 13.7363 1.64355 13.7363ZM2.87402 3.79004C2.87402 2.29297 3.82422 1.45215 5 1.45215C6.17578 1.45215 7.12598 2.29297 7.12598 3.79004V5.54688L2.87402 5.55371V3.79004Z" fill="#CCCCCC"/>
</svg>
