<svg viewBox="0 0 24 18" fill="none" xmlns="http://www.w3.org/2000/svg">
    <path d="M6.65332 8.11865H9.99316C10.9233 8.11865 11.3921 7.6499 11.3921 6.68311V3.40918C11.3921 2.44238 10.9233 1.98096 9.99316 1.98096H6.65332C5.72314 1.98096 5.25439 2.44238 5.25439 3.40918V6.68311C5.25439 7.6499 5.72314 8.11865 6.65332 8.11865ZM14.0068 8.11865H17.3394C18.2695 8.11865 18.7383 7.6499 18.7383 6.68311V3.40918C18.7383 2.44238 18.2695 1.98096 17.3394 1.98096H14.0068C13.0693 1.98096 12.6006 2.44238 12.6006 3.40918V6.68311C12.6006 7.6499 13.0693 8.11865 14.0068 8.11865ZM6.66797 7.08594C6.41162 7.08594 6.28711 6.9541 6.28711 6.68311V3.40918C6.28711 3.14551 6.41162 3.01367 6.66797 3.01367H9.97119C10.2275 3.01367 10.3594 3.14551 10.3594 3.40918V6.68311C10.3594 6.9541 10.2275 7.08594 9.97119 7.08594H6.66797ZM14.0215 7.08594C13.7578 7.08594 13.6333 6.9541 13.6333 6.68311V3.40918C13.6333 3.14551 13.7578 3.01367 14.0215 3.01367H17.3247C17.5811 3.01367 17.7056 3.14551 17.7056 3.40918V6.68311C17.7056 6.9541 17.5811 7.08594 17.3247 7.08594H14.0215ZM6.65332 15.4648H9.99316C10.9233 15.4648 11.3921 15.0034 11.3921 14.0366V10.7554C11.3921 9.7959 10.9233 9.32715 9.99316 9.32715H6.65332C5.72314 9.32715 5.25439 9.7959 5.25439 10.7554V14.0366C5.25439 15.0034 5.72314 15.4648 6.65332 15.4648ZM14.0068 15.4648H17.3394C18.2695 15.4648 18.7383 15.0034 18.7383 14.0366V10.7554C18.7383 9.7959 18.2695 9.32715 17.3394 9.32715H14.0068C13.0693 9.32715 12.6006 9.7959 12.6006 10.7554V14.0366C12.6006 15.0034 13.0693 15.4648 14.0068 15.4648ZM6.66797 14.4321C6.41162 14.4321 6.28711 14.3003 6.28711 14.0366V10.7627C6.28711 10.4917 6.41162 10.3599 6.66797 10.3599H9.97119C10.2275 10.3599 10.3594 10.4917 10.3594 10.7627V14.0366C10.3594 14.3003 10.2275 14.4321 9.97119 14.4321H6.66797ZM14.0215 14.4321C13.7578 14.4321 13.6333 14.3003 13.6333 14.0366V10.7627C13.6333 10.4917 13.7578 10.3599 14.0215 10.3599H17.3247C17.5811 10.3599 17.7056 10.4917 17.7056 10.7627V14.0366C17.7056 14.3003 17.5811 14.4321 17.3247 14.4321H14.0215Z" fill="black"/>
</svg>
