<svg width="18" height="13" viewBox="0 0 18 13" fill="none" xmlns="http://www.w3.org/2000/svg">
<path d="M10.311 1.48975C10.6187 1.48975 10.8604 1.24805 10.8604 0.933105C10.8604 0.625488 10.6187 0.383789 10.311 0.383789H1.06055C0.75293 0.383789 0.503906 0.625488 0.503906 0.933105C0.503906 1.24805 0.75293 1.48975 1.06055 1.48975H10.311ZM10.311 5.32764C10.6187 5.32764 10.8604 5.08594 10.8604 4.771C10.8604 4.46338 10.6187 4.22168 10.311 4.22168H1.06055C0.75293 4.22168 0.503906 4.46338 0.503906 4.771C0.503906 5.08594 0.75293 5.32764 1.06055 5.32764H10.311ZM16.3462 8.93848C16.8809 9.29004 17.4961 9.09229 17.4888 8.44043V4.96875C17.4961 4.29492 16.9102 4.08252 16.3462 4.46338L13.9219 6.11133C13.5044 6.4043 13.4897 7.02686 13.9219 7.31982L16.3462 8.93848ZM10.311 9.16553C10.6187 9.16553 10.8604 8.9165 10.8604 8.60889C10.8604 8.30127 10.6187 8.05957 10.311 8.05957H1.06055C0.75293 8.05957 0.503906 8.30127 0.503906 8.60889C0.503906 8.9165 0.75293 9.16553 1.06055 9.16553H10.311ZM10.311 12.9961C10.6187 12.9961 10.8604 12.7544 10.8604 12.4468C10.8604 12.1392 10.6187 11.8901 10.311 11.8901H4.80322C4.49561 11.8901 4.24658 12.1392 4.24658 12.4468C4.24658 12.7544 4.49561 12.9961 4.80322 12.9961H10.311Z" fill="black"/>
</svg>
