<svg width="17" height="17" viewBox="0 0 17 17" fill="none" xmlns="http://www.w3.org/2000/svg">
<path d="M8.36719 16.3281C12.7266 16.3281 16.3359 12.7188 16.3359 8.35938C16.3359 4.00781 12.7188 0.390625 8.35938 0.390625C4.00781 0.390625 0.398438 4.00781 0.398438 8.35938C0.398438 12.7188 4.01562 16.3281 8.36719 16.3281ZM8.35156 12.25C7.90625 12.25 7.67188 11.9297 7.67188 11.4766V9.04688H5.10938C4.64844 9.04688 4.32812 8.80469 4.32812 8.375C4.32812 7.92969 4.63281 7.67969 5.10938 7.67969H7.67188V5.09375C7.67188 4.64062 7.90625 4.32031 8.35156 4.32031C8.78906 4.32031 9.04688 4.625 9.04688 5.09375V7.67969H11.6172C12.0938 7.67969 12.3906 7.92969 12.3906 8.375C12.3906 8.80469 12.0781 9.04688 11.6172 9.04688H9.04688V11.4766C9.04688 11.9453 8.78906 12.25 8.35156 12.25Z" fill="#007AFF"/>
</svg>
