<svg width="24" height="24" viewBox="0 0 24 24" fill="none" xmlns="http://www.w3.org/2000/svg">
<rect x="0.25" y="0.25" width="23.5" height="23.5" rx="3.75" fill="white" stroke="#C7C7CC" stroke-width="0.5"/>
<path d="M7.13135 16.4922C6.91553 16.708 6.90918 17.0762 7.13135 17.292C7.35352 17.5078 7.72168 17.5078 7.9375 17.292L12 13.2295L16.0625 17.292C16.2783 17.5078 16.6528 17.5142 16.8687 17.292C17.0845 17.0698 17.0845 16.708 16.8687 16.4922L12.8062 12.4233L16.8687 8.36084C17.0845 8.14502 17.0908 7.77686 16.8687 7.56104C16.6465 7.33887 16.2783 7.33887 16.0625 7.56104L12 11.6235L7.9375 7.56104C7.72168 7.33887 7.34717 7.33252 7.13135 7.56104C6.91553 7.7832 6.91553 8.14502 7.13135 8.36084L11.1938 12.4233L7.13135 16.4922Z" fill="#939393"/>
</svg>
