<svg width="672" height="271" viewBox="0 0 672 271" fill="none" xmlns="http://www.w3.org/2000/svg">
<g>
<rect x="0.5" y="0.5" width="671" height="270" rx="3.5" fill="white"/>
<path d="M0.5 223.5H671.5V267C671.5 268.933 669.933 270.5 668 270.5H3.99998C2.06699 270.5 0.5 268.933 0.5 267V223.5Z" fill="white" stroke="#E5E5E5"/>
<rect opacity="0.1" width="757" height="0.5" transform="matrix(1 0 0 -1 0 223.5)" fill="black"/>
<path opacity="0.3" d="M27.5547 242.484V245.023H30.3828C30.888 245.023 31.2969 244.93 31.6094 244.742C31.9271 244.549 32.0859 244.211 32.0859 243.727C32.0859 243.19 31.8776 242.836 31.4609 242.664C31.1016 242.544 30.6432 242.484 30.0859 242.484H27.5547ZM27.5547 246.93V250H30.3828C30.888 250 31.2812 249.932 31.5625 249.797C32.0729 249.547 32.3281 249.068 32.3281 248.359C32.3281 247.76 32.0807 247.349 31.5859 247.125C31.3099 247 30.9219 246.935 30.4219 246.93H27.5547ZM30.8516 240.484C32.263 240.505 33.263 240.914 33.8516 241.711C34.2057 242.201 34.3828 242.786 34.3828 243.469C34.3828 244.172 34.2057 244.737 33.8516 245.164C33.6536 245.404 33.362 245.622 32.9766 245.82C33.5651 246.034 34.0078 246.372 34.3047 246.836C34.6068 247.299 34.7578 247.862 34.7578 248.523C34.7578 249.206 34.5859 249.818 34.2422 250.359C34.0234 250.719 33.75 251.021 33.4219 251.266C33.0521 251.547 32.6146 251.74 32.1094 251.844C31.6094 251.948 31.0651 252 30.4766 252H25.2578V240.484H30.8516Z" fill="black"/>
<path opacity="0.3" d="M75.7812 240.523H77.3516L74.9141 252H73.3438L75.7812 240.523Z" fill="black"/>
<g opacity="0.3">
<path d="M114.906 239.023V246.117C114.906 246.951 115.062 247.643 115.375 248.195C115.839 249.029 116.62 249.445 117.719 249.445C119.036 249.445 119.932 248.995 120.406 248.094C120.661 247.604 120.789 246.945 120.789 246.117V239.023H122.367V245.469C122.367 246.88 122.177 247.966 121.797 248.727C121.099 250.112 119.781 250.805 117.844 250.805C115.906 250.805 114.591 250.112 113.898 248.727C113.518 247.966 113.328 246.88 113.328 245.469V239.023H114.906Z" fill="black"/>
<path d="M112 252.102H123.555V252.891H112V252.102Z" fill="black"/>
</g>
<path d="M326.214 123.595H344.193C347.497 123.595 349.19 121.901 349.19 118.548V93.2305C349.19 89.8936 347.497 88.167 344.193 88.167H326.214C322.927 88.167 321.233 89.8936 321.233 93.2305V118.548C321.233 121.901 322.927 123.595 326.214 123.595ZM326.347 120.938C324.753 120.938 323.906 120.059 323.906 118.515V93.2637C323.906 91.7031 324.753 90.8398 326.363 90.8398H344.061C345.671 90.8398 346.518 91.7031 346.518 93.2637V118.515C346.518 120.059 345.671 120.938 344.077 120.938H326.347ZM339.329 105.034C341.338 105.034 342.749 103.656 342.749 101.647C342.749 99.7051 341.554 98.4268 339.794 98.4268C338.897 98.4268 338.184 98.709 337.669 99.3398H337.32C337.453 98.7588 337.835 98.1777 338.366 97.7129C338.897 97.2314 339.562 96.9326 340.292 96.7666C340.906 96.6338 341.105 96.4346 341.105 96.0693C341.105 95.7373 340.856 95.4717 340.392 95.4717C339.312 95.4717 337.918 96.1523 337.038 97.1152C336.092 98.1279 335.627 99.4395 335.627 100.834C335.627 103.49 337.271 105.034 339.329 105.034ZM330.912 105.051C332.938 105.051 334.332 103.673 334.332 101.664C334.332 99.7217 333.137 98.4434 331.377 98.4434C330.497 98.4434 329.767 98.7256 329.252 99.3564H328.92C329.053 98.7588 329.435 98.1611 330.016 97.6963C330.53 97.248 331.161 96.9326 331.892 96.7832C332.506 96.6504 332.688 96.4512 332.688 96.0859C332.688 95.7539 332.439 95.4883 331.975 95.4883C330.896 95.4883 329.551 96.1357 328.621 97.1318C327.691 98.1445 327.227 99.4561 327.227 100.851C327.227 103.507 328.87 105.051 330.912 105.051ZM328.704 110.646H341.305C341.886 110.646 342.317 110.197 342.317 109.616C342.317 109.052 341.886 108.604 341.305 108.604H328.704C328.106 108.604 327.658 109.052 327.658 109.616C327.658 110.197 328.106 110.646 328.704 110.646ZM328.704 116.439H334.664C335.262 116.439 335.693 116.008 335.693 115.427C335.693 114.846 335.262 114.397 334.664 114.397H328.704C328.106 114.397 327.658 114.846 327.658 115.427C327.658 116.008 328.106 116.439 328.704 116.439Z" fill="#CCCCCC"/>
<path d="M212.192 152.769H212.828C212.996 152.769 213.172 152.748 213.354 152.707C213.536 152.666 213.703 152.602 213.853 152.516C214.003 152.424 214.126 152.308 214.222 152.167C214.322 152.026 214.372 151.855 214.372 151.654C214.372 151.508 214.341 151.369 214.277 151.237C214.218 151.101 214.126 150.982 214.003 150.882C213.885 150.777 213.734 150.695 213.552 150.636C213.37 150.576 213.158 150.547 212.916 150.547C212.789 150.547 212.638 150.565 212.465 150.602C212.292 150.638 212.121 150.706 211.953 150.807C211.788 150.902 211.64 151.041 211.508 151.224C211.381 151.401 211.299 151.634 211.262 151.921H210.086C210.118 151.593 210.184 151.306 210.285 151.06C210.385 150.809 210.51 150.592 210.661 150.41C210.811 150.228 210.98 150.075 211.166 149.952C211.358 149.829 211.554 149.731 211.754 149.658C211.959 149.585 212.164 149.533 212.37 149.501C212.575 149.469 212.771 149.453 212.957 149.453C213.286 149.453 213.609 149.496 213.928 149.583C214.247 149.665 214.532 149.793 214.783 149.966C215.038 150.134 215.243 150.349 215.398 150.608C215.553 150.868 215.63 151.171 215.63 151.518C215.63 151.741 215.598 151.939 215.535 152.112C215.471 152.281 215.386 152.429 215.282 152.557C215.181 152.684 215.067 152.794 214.94 152.885C214.812 152.971 214.687 153.044 214.564 153.104V153.138C214.691 153.16 214.833 153.208 214.988 153.281C215.143 153.35 215.286 153.45 215.418 153.582C215.551 153.71 215.66 153.876 215.746 154.081C215.838 154.282 215.883 154.528 215.883 154.819C215.883 155.229 215.794 155.585 215.617 155.886C215.443 156.187 215.216 156.437 214.933 156.638C214.65 156.834 214.331 156.979 213.976 157.075C213.621 157.175 213.263 157.226 212.903 157.226C212.438 157.226 212.016 157.166 211.638 157.048C211.264 156.929 210.941 156.761 210.667 156.542C210.394 156.323 210.175 156.061 210.011 155.756C209.852 155.451 209.756 155.113 209.724 154.744H210.989C211.021 155.013 211.098 155.236 211.221 155.414C211.344 155.592 211.492 155.733 211.665 155.838C211.839 155.943 212.03 156.018 212.24 156.063C212.454 156.109 212.67 156.132 212.889 156.132C213.468 156.132 213.901 156.016 214.188 155.783C214.48 155.551 214.625 155.239 214.625 154.847C214.625 154.678 214.598 154.528 214.543 154.396C214.493 154.263 214.407 154.152 214.284 154.061C214.161 153.965 213.996 153.894 213.791 153.849C213.591 153.799 213.34 153.773 213.039 153.773C212.98 153.773 212.912 153.776 212.834 153.78C212.761 153.78 212.686 153.783 212.609 153.787C212.536 153.792 212.463 153.799 212.39 153.808C212.317 153.812 212.251 153.817 212.192 153.821V152.769ZM223.603 157H217.943V158.791H216.767V155.906H217.731C217.931 155.414 218.091 154.913 218.209 154.402C218.328 153.887 218.419 153.37 218.483 152.851C218.546 152.326 218.587 151.8 218.606 151.271C218.624 150.743 218.633 150.212 218.633 149.679H223.746V155.906H224.779V158.791H223.603V157ZM222.488 155.906V150.772H219.836C219.804 151.187 219.77 151.613 219.734 152.051C219.702 152.488 219.656 152.928 219.597 153.37C219.542 153.808 219.467 154.241 219.371 154.669C219.28 155.097 219.159 155.51 219.009 155.906H222.488ZM232.423 154.662C232.373 154.981 232.263 155.293 232.095 155.599C231.926 155.904 231.705 156.177 231.432 156.419C231.158 156.66 230.835 156.854 230.461 157C230.092 157.15 229.682 157.226 229.23 157.226C228.738 157.226 228.283 157.146 227.863 156.986C227.449 156.822 227.089 156.578 226.783 156.255C226.482 155.927 226.245 155.517 226.072 155.024C225.899 154.532 225.812 153.953 225.812 153.288C225.812 152.841 225.86 152.438 225.956 152.078C226.056 151.714 226.188 151.39 226.353 151.107C226.521 150.82 226.715 150.574 226.934 150.369C227.152 150.16 227.382 149.989 227.624 149.856C227.87 149.72 228.121 149.619 228.376 149.556C228.631 149.487 228.877 149.453 229.114 149.453C229.616 149.453 230.074 149.528 230.488 149.679C230.903 149.829 231.258 150.059 231.555 150.369C231.855 150.674 232.088 151.06 232.252 151.524C232.421 151.985 232.505 152.527 232.505 153.151V153.78H227.152C227.157 154.136 227.207 154.459 227.303 154.751C227.398 155.038 227.535 155.284 227.713 155.489C227.891 155.694 228.105 155.854 228.355 155.968C228.611 156.077 228.898 156.132 229.217 156.132C229.54 156.132 229.814 156.086 230.037 155.995C230.26 155.904 230.447 155.788 230.598 155.646C230.748 155.505 230.869 155.348 230.96 155.175C231.056 155.002 231.135 154.831 231.199 154.662H232.423ZM231.24 152.775C231.231 152.42 231.176 152.103 231.076 151.825C230.98 151.547 230.844 151.315 230.666 151.128C230.493 150.937 230.283 150.793 230.037 150.697C229.791 150.597 229.518 150.547 229.217 150.547C228.93 150.547 228.665 150.604 228.424 150.718C228.182 150.827 227.97 150.982 227.788 151.183C227.606 151.379 227.46 151.613 227.351 151.887C227.241 152.156 227.175 152.452 227.152 152.775H231.24ZM239.937 154.423C239.919 154.601 239.883 154.794 239.828 155.004C239.778 155.214 239.703 155.423 239.602 155.633C239.502 155.838 239.372 156.036 239.213 156.228C239.058 156.419 238.866 156.59 238.638 156.74C238.415 156.886 238.151 157.002 237.846 157.089C237.54 157.18 237.192 157.226 236.8 157.226C236.585 157.226 236.36 157.198 236.123 157.144C235.886 157.093 235.653 157.007 235.426 156.884C235.202 156.761 234.988 156.604 234.783 156.412C234.582 156.216 234.405 155.975 234.25 155.688C234.099 155.4 233.979 155.068 233.887 154.689C233.796 154.307 233.751 153.869 233.751 153.377C233.751 152.771 233.837 152.226 234.011 151.743C234.184 151.256 234.414 150.843 234.701 150.506C234.993 150.169 235.33 149.909 235.713 149.727C236.1 149.544 236.506 149.453 236.929 149.453C237.312 149.453 237.65 149.494 237.941 149.576C238.237 149.658 238.495 149.768 238.714 149.904C238.932 150.041 239.117 150.201 239.267 150.383C239.418 150.561 239.539 150.75 239.63 150.95C239.725 151.146 239.796 151.347 239.842 151.552C239.892 151.757 239.924 151.953 239.937 152.14H238.762C238.698 151.643 238.525 151.253 238.242 150.971C237.964 150.688 237.572 150.547 237.066 150.547C236.72 150.547 236.417 150.618 236.157 150.759C235.902 150.9 235.688 151.098 235.514 151.354C235.346 151.604 235.218 151.91 235.132 152.27C235.05 152.625 235.009 153.017 235.009 153.445C235.009 153.928 235.054 154.345 235.145 154.696C235.236 155.043 235.366 155.33 235.535 155.558C235.704 155.781 235.909 155.947 236.15 156.057C236.396 156.161 236.674 156.214 236.984 156.214C237.203 156.214 237.41 156.175 237.606 156.098C237.802 156.016 237.978 155.899 238.133 155.749C238.288 155.594 238.42 155.405 238.529 155.182C238.638 154.958 238.716 154.705 238.762 154.423H239.937ZM241.381 149.679H242.639V152.434H244.67C245.071 152.434 245.428 152.488 245.743 152.598C246.057 152.702 246.324 152.855 246.543 153.056C246.761 153.252 246.928 153.491 247.042 153.773C247.16 154.051 247.219 154.366 247.219 154.717C247.219 155.072 247.16 155.391 247.042 155.674C246.928 155.952 246.761 156.191 246.543 156.392C246.324 156.588 246.057 156.738 245.743 156.843C245.428 156.948 245.071 157 244.67 157H241.381V149.679ZM242.639 155.995H244.423C244.642 155.995 244.845 155.972 245.032 155.927C245.223 155.881 245.387 155.808 245.524 155.708C245.661 155.603 245.768 155.471 245.845 155.312C245.923 155.147 245.962 154.949 245.962 154.717C245.962 154.489 245.921 154.295 245.838 154.136C245.761 153.976 245.649 153.846 245.504 153.746C245.362 153.641 245.189 153.566 244.984 153.521C244.783 153.47 244.558 153.445 244.307 153.445H242.639V155.995ZM258.365 146.862C258.356 146.931 258.343 147.015 258.324 147.115C258.311 147.211 258.281 147.313 258.236 147.423C258.19 147.532 258.126 147.644 258.044 147.758C257.967 147.867 257.862 147.97 257.73 148.065C257.657 148.116 257.591 148.159 257.531 148.195C257.472 148.232 257.397 148.264 257.306 148.291C257.215 148.318 257.099 148.341 256.957 148.359C256.816 148.378 256.627 148.389 256.39 148.394L255.87 148.407C255.515 148.416 255.194 148.489 254.906 148.626C254.624 148.758 254.373 148.945 254.154 149.187C253.94 149.424 253.763 149.711 253.621 150.048C253.48 150.385 253.375 150.761 253.307 151.176C253.403 150.993 253.521 150.816 253.662 150.643C253.804 150.465 253.979 150.308 254.189 150.171C254.398 150.03 254.644 149.918 254.927 149.836C255.21 149.749 255.538 149.706 255.911 149.706C256.335 149.706 256.736 149.781 257.114 149.932C257.497 150.082 257.83 150.308 258.112 150.608C258.4 150.909 258.627 151.283 258.796 151.729C258.965 152.176 259.049 152.696 259.049 153.288C259.049 153.475 259.035 153.703 259.008 153.972C258.981 154.236 258.926 154.514 258.844 154.806C258.762 155.097 258.643 155.389 258.488 155.681C258.338 155.968 258.135 156.225 257.88 156.453C257.629 156.681 257.322 156.866 256.957 157.007C256.597 157.153 256.164 157.226 255.658 157.226C255.449 157.226 255.225 157.207 254.988 157.171C254.756 157.139 254.521 157.077 254.284 156.986C254.052 156.895 253.824 156.768 253.601 156.604C253.382 156.439 253.182 156.23 252.999 155.975C252.908 155.847 252.817 155.701 252.726 155.537C252.639 155.368 252.559 155.166 252.487 154.929C252.414 154.692 252.354 154.411 252.309 154.088C252.268 153.764 252.247 153.382 252.247 152.939C252.247 152.648 252.261 152.317 252.288 151.948C252.316 151.579 252.363 151.203 252.432 150.82C252.5 150.438 252.591 150.068 252.705 149.713C252.819 149.353 252.965 149.038 253.143 148.77C253.334 148.478 253.535 148.241 253.744 148.059C253.954 147.876 254.177 147.733 254.414 147.628C254.651 147.523 254.906 147.448 255.18 147.402C255.453 147.357 255.75 147.327 256.069 147.313L256.513 147.3C256.659 147.295 256.782 147.288 256.882 147.279C256.987 147.266 257.073 147.245 257.142 147.218C257.21 147.19 257.265 147.149 257.306 147.095C257.347 147.04 257.381 146.963 257.408 146.862H258.365ZM253.505 153.473C253.505 153.609 253.512 153.771 253.526 153.958C253.544 154.145 253.578 154.341 253.628 154.546C253.678 154.746 253.751 154.947 253.847 155.147C253.943 155.348 254.068 155.528 254.223 155.688C254.382 155.842 254.578 155.97 254.811 156.07C255.043 156.166 255.321 156.214 255.645 156.214C256.005 156.214 256.308 156.157 256.554 156.043C256.8 155.924 257.003 155.774 257.162 155.592C257.322 155.405 257.443 155.2 257.525 154.977C257.611 154.753 257.673 154.537 257.709 154.327C257.75 154.113 257.773 153.919 257.778 153.746C257.787 153.568 257.791 153.434 257.791 153.343C257.791 153.01 257.752 152.684 257.675 152.365C257.602 152.046 257.481 151.764 257.313 151.518C257.149 151.271 256.932 151.073 256.663 150.923C256.399 150.772 256.073 150.697 255.686 150.697C255.307 150.697 254.982 150.772 254.708 150.923C254.435 151.069 254.209 151.269 254.031 151.524C253.854 151.775 253.722 152.069 253.635 152.406C253.548 152.739 253.505 153.094 253.505 153.473ZM259.905 149.679H261.286L263.234 155.64H263.262L265.21 149.679H266.591L263.795 157.294C263.654 157.677 263.524 158.009 263.405 158.292C263.287 158.575 263.171 158.814 263.057 159.01C262.943 159.21 262.826 159.372 262.708 159.495C262.594 159.618 262.466 159.714 262.325 159.782C262.188 159.855 262.034 159.903 261.86 159.926C261.692 159.953 261.496 159.967 261.272 159.967C261.09 159.967 260.947 159.958 260.842 159.939C260.742 159.926 260.653 159.908 260.575 159.885V158.75C260.657 158.777 260.764 158.805 260.896 158.832C261.029 158.859 261.168 158.873 261.313 158.873C261.546 158.873 261.733 158.816 261.874 158.702C262.02 158.593 262.132 158.436 262.209 158.23L262.619 157.198L259.905 149.679ZM273.975 157H268.315V158.791H267.139V155.906H268.103C268.304 155.414 268.463 154.913 268.582 154.402C268.7 153.887 268.791 153.37 268.855 152.851C268.919 152.326 268.96 151.8 268.978 151.271C268.997 150.743 269.006 150.212 269.006 149.679H274.119V155.906H275.151V158.791H273.975V157ZM272.861 155.906V150.772H270.209C270.177 151.187 270.143 151.613 270.106 152.051C270.074 152.488 270.029 152.928 269.97 153.37C269.915 153.808 269.84 154.241 269.744 154.669C269.653 155.097 269.532 155.51 269.382 155.906H272.861ZM282.796 154.662C282.745 154.981 282.636 155.293 282.467 155.599C282.299 155.904 282.078 156.177 281.804 156.419C281.531 156.66 281.207 156.854 280.834 157C280.464 157.15 280.054 157.226 279.603 157.226C279.111 157.226 278.655 157.146 278.236 156.986C277.821 156.822 277.461 156.578 277.156 156.255C276.855 155.927 276.618 155.517 276.445 155.024C276.272 154.532 276.185 153.953 276.185 153.288C276.185 152.841 276.233 152.438 276.329 152.078C276.429 151.714 276.561 151.39 276.725 151.107C276.894 150.82 277.088 150.574 277.306 150.369C277.525 150.16 277.755 149.989 277.997 149.856C278.243 149.72 278.493 149.619 278.749 149.556C279.004 149.487 279.25 149.453 279.487 149.453C279.988 149.453 280.446 149.528 280.861 149.679C281.276 149.829 281.631 150.059 281.927 150.369C282.228 150.674 282.461 151.06 282.625 151.524C282.793 151.985 282.878 152.527 282.878 153.151V153.78H277.525C277.53 154.136 277.58 154.459 277.675 154.751C277.771 155.038 277.908 155.284 278.086 155.489C278.263 155.694 278.477 155.854 278.728 155.968C278.983 156.077 279.27 156.132 279.589 156.132C279.913 156.132 280.186 156.086 280.41 155.995C280.633 155.904 280.82 155.788 280.97 155.646C281.121 155.505 281.241 155.348 281.333 155.175C281.428 155.002 281.508 154.831 281.572 154.662H282.796ZM281.613 152.775C281.604 152.42 281.549 152.103 281.449 151.825C281.353 151.547 281.216 151.315 281.039 151.128C280.865 150.937 280.656 150.793 280.41 150.697C280.164 150.597 279.89 150.547 279.589 150.547C279.302 150.547 279.038 150.604 278.796 150.718C278.555 150.827 278.343 150.982 278.161 151.183C277.978 151.379 277.833 151.613 277.723 151.887C277.614 152.156 277.548 152.452 277.525 152.775H281.613ZM286.502 150.772H283.98V149.679H290.283V150.772H287.76V157H286.502V150.772ZM297.799 150.772H295.276V149.679H301.579V150.772H299.057V157H297.799V150.772ZM309.285 154.662C309.235 154.981 309.125 155.293 308.957 155.599C308.788 155.904 308.567 156.177 308.294 156.419C308.02 156.66 307.697 156.854 307.323 157C306.954 157.15 306.544 157.226 306.093 157.226C305.6 157.226 305.145 157.146 304.725 156.986C304.311 156.822 303.951 156.578 303.645 156.255C303.345 155.927 303.108 155.517 302.934 155.024C302.761 154.532 302.675 153.953 302.675 153.288C302.675 152.841 302.722 152.438 302.818 152.078C302.918 151.714 303.051 151.39 303.215 151.107C303.383 150.82 303.577 150.574 303.796 150.369C304.014 150.16 304.245 149.989 304.486 149.856C304.732 149.72 304.983 149.619 305.238 149.556C305.493 149.487 305.739 149.453 305.976 149.453C306.478 149.453 306.936 149.528 307.35 149.679C307.765 149.829 308.121 150.059 308.417 150.369C308.718 150.674 308.95 151.06 309.114 151.524C309.283 151.985 309.367 152.527 309.367 153.151V153.78H304.014C304.019 154.136 304.069 154.459 304.165 154.751C304.261 155.038 304.397 155.284 304.575 155.489C304.753 155.694 304.967 155.854 305.218 155.968C305.473 156.077 305.76 156.132 306.079 156.132C306.402 156.132 306.676 156.086 306.899 155.995C307.123 155.904 307.309 155.788 307.46 155.646C307.61 155.505 307.731 155.348 307.822 155.175C307.918 155.002 307.998 154.831 308.061 154.662H309.285ZM308.102 152.775C308.093 152.42 308.039 152.103 307.938 151.825C307.843 151.547 307.706 151.315 307.528 151.128C307.355 150.937 307.145 150.793 306.899 150.697C306.653 150.597 306.38 150.547 306.079 150.547C305.792 150.547 305.527 150.604 305.286 150.718C305.044 150.827 304.832 150.982 304.65 151.183C304.468 151.379 304.322 151.613 304.213 151.887C304.103 152.156 304.037 152.452 304.014 152.775H308.102ZM311.044 149.679H312.301V153.22L316 149.679H317.647L314.209 152.912L317.702 157H316.082L313.224 153.678L312.301 154.45V157H311.044V149.679ZM324.669 154.423C324.651 154.601 324.615 154.794 324.56 155.004C324.51 155.214 324.435 155.423 324.334 155.633C324.234 155.838 324.104 156.036 323.945 156.228C323.79 156.419 323.598 156.59 323.371 156.74C323.147 156.886 322.883 157.002 322.578 157.089C322.272 157.18 321.924 157.226 321.532 157.226C321.317 157.226 321.092 157.198 320.855 157.144C320.618 157.093 320.385 157.007 320.158 156.884C319.934 156.761 319.72 156.604 319.515 156.412C319.315 156.216 319.137 155.975 318.982 155.688C318.831 155.4 318.711 155.068 318.62 154.689C318.528 154.307 318.483 153.869 318.483 153.377C318.483 152.771 318.569 152.226 318.743 151.743C318.916 151.256 319.146 150.843 319.433 150.506C319.725 150.169 320.062 149.909 320.445 149.727C320.832 149.544 321.238 149.453 321.662 149.453C322.044 149.453 322.382 149.494 322.673 149.576C322.969 149.658 323.227 149.768 323.446 149.904C323.664 150.041 323.849 150.201 323.999 150.383C324.15 150.561 324.271 150.75 324.362 150.95C324.457 151.146 324.528 151.347 324.574 151.552C324.624 151.757 324.656 151.953 324.669 152.14H323.494C323.43 151.643 323.257 151.253 322.974 150.971C322.696 150.688 322.304 150.547 321.798 150.547C321.452 150.547 321.149 150.618 320.889 150.759C320.634 150.9 320.42 151.098 320.246 151.354C320.078 151.604 319.95 151.91 319.864 152.27C319.782 152.625 319.741 153.017 319.741 153.445C319.741 153.928 319.786 154.345 319.877 154.696C319.968 155.043 320.098 155.33 320.267 155.558C320.436 155.781 320.641 155.947 320.882 156.057C321.128 156.161 321.406 156.214 321.716 156.214C321.935 156.214 322.142 156.175 322.338 156.098C322.534 156.016 322.71 155.899 322.865 155.749C323.02 155.594 323.152 155.405 323.261 155.182C323.371 154.958 323.448 154.705 323.494 154.423H324.669ZM328.062 150.772H325.539V149.679H331.842V150.772H329.32V157H328.062V150.772ZM339.269 152.871H341.792C341.742 152.133 341.553 151.561 341.224 151.155C340.896 150.75 340.436 150.547 339.844 150.547C339.57 150.547 339.331 150.588 339.126 150.67C338.925 150.752 338.754 150.859 338.613 150.991C338.476 151.123 338.365 151.276 338.278 151.449C338.196 151.622 338.135 151.798 338.094 151.976H336.89C336.95 151.538 337.077 151.162 337.273 150.848C337.469 150.529 337.704 150.267 337.977 150.062C338.255 149.852 338.558 149.699 338.887 149.604C339.215 149.503 339.543 149.453 339.871 149.453C340.395 149.453 340.86 149.549 341.265 149.74C341.671 149.927 342.011 150.191 342.284 150.533C342.562 150.875 342.772 151.283 342.913 151.757C343.059 152.231 343.132 152.75 343.132 153.315C343.132 153.894 343.059 154.423 342.913 154.901C342.772 155.38 342.562 155.792 342.284 156.139C342.011 156.48 341.671 156.747 341.265 156.938C340.86 157.13 340.395 157.226 339.871 157.226C339.488 157.226 339.128 157.173 338.791 157.068C338.458 156.964 338.16 156.804 337.895 156.59C337.636 156.376 337.412 156.104 337.225 155.776C337.039 155.444 336.9 155.054 336.808 154.607H338.094C338.116 154.831 338.176 155.036 338.271 155.223C338.367 155.41 338.49 155.571 338.64 155.708C338.795 155.84 338.973 155.945 339.174 156.022C339.379 156.095 339.597 156.132 339.83 156.132C340.163 156.132 340.452 156.063 340.698 155.927C340.944 155.785 341.147 155.605 341.306 155.387C341.466 155.168 341.584 154.926 341.662 154.662C341.744 154.393 341.787 154.131 341.792 153.876H339.269V152.871ZM350.503 154.423C350.484 154.601 350.448 154.794 350.393 155.004C350.343 155.214 350.268 155.423 350.168 155.633C350.067 155.838 349.937 156.036 349.778 156.228C349.623 156.419 349.432 156.59 349.204 156.74C348.98 156.886 348.716 157.002 348.411 157.089C348.105 157.18 347.757 157.226 347.365 157.226C347.151 157.226 346.925 157.198 346.688 157.144C346.451 157.093 346.219 157.007 345.991 156.884C345.768 156.761 345.553 156.604 345.348 156.412C345.148 156.216 344.97 155.975 344.815 155.688C344.665 155.4 344.544 155.068 344.453 154.689C344.362 154.307 344.316 153.869 344.316 153.377C344.316 152.771 344.403 152.226 344.576 151.743C344.749 151.256 344.979 150.843 345.266 150.506C345.558 150.169 345.895 149.909 346.278 149.727C346.665 149.544 347.071 149.453 347.495 149.453C347.878 149.453 348.215 149.494 348.506 149.576C348.803 149.658 349.06 149.768 349.279 149.904C349.498 150.041 349.682 150.201 349.833 150.383C349.983 150.561 350.104 150.75 350.195 150.95C350.291 151.146 350.361 151.347 350.407 151.552C350.457 151.757 350.489 151.953 350.503 152.14H349.327C349.263 151.643 349.09 151.253 348.807 150.971C348.529 150.688 348.137 150.547 347.631 150.547C347.285 150.547 346.982 150.618 346.722 150.759C346.467 150.9 346.253 151.098 346.08 151.354C345.911 151.604 345.783 151.91 345.697 152.27C345.615 152.625 345.574 153.017 345.574 153.445C345.574 153.928 345.619 154.345 345.711 154.696C345.802 155.043 345.932 155.33 346.1 155.558C346.269 155.781 346.474 155.947 346.715 156.057C346.962 156.161 347.24 156.214 347.549 156.214C347.768 156.214 347.976 156.175 348.171 156.098C348.367 156.016 348.543 155.899 348.698 155.749C348.853 155.594 348.985 155.405 349.094 155.182C349.204 154.958 349.281 154.705 349.327 154.423H350.503ZM357.703 154.423C357.684 154.601 357.648 154.794 357.593 155.004C357.543 155.214 357.468 155.423 357.368 155.633C357.267 155.838 357.137 156.036 356.978 156.228C356.823 156.419 356.632 156.59 356.404 156.74C356.18 156.886 355.916 157.002 355.611 157.089C355.305 157.18 354.957 157.226 354.565 157.226C354.351 157.226 354.125 157.198 353.888 157.144C353.651 157.093 353.419 157.007 353.191 156.884C352.968 156.761 352.753 156.604 352.548 156.412C352.348 156.216 352.17 155.975 352.015 155.688C351.865 155.4 351.744 155.068 351.653 154.689C351.562 154.307 351.516 153.869 351.516 153.377C351.516 152.771 351.603 152.226 351.776 151.743C351.949 151.256 352.179 150.843 352.466 150.506C352.758 150.169 353.095 149.909 353.478 149.727C353.865 149.544 354.271 149.453 354.695 149.453C355.078 149.453 355.415 149.494 355.706 149.576C356.003 149.658 356.26 149.768 356.479 149.904C356.698 150.041 356.882 150.201 357.033 150.383C357.183 150.561 357.304 150.75 357.395 150.95C357.491 151.146 357.561 151.347 357.607 151.552C357.657 151.757 357.689 151.953 357.703 152.14H356.527C356.463 151.643 356.29 151.253 356.007 150.971C355.729 150.688 355.337 150.547 354.831 150.547C354.485 150.547 354.182 150.618 353.922 150.759C353.667 150.9 353.453 151.098 353.28 151.354C353.111 151.604 352.983 151.91 352.897 152.27C352.815 152.625 352.774 153.017 352.774 153.445C352.774 153.928 352.819 154.345 352.911 154.696C353.002 155.043 353.132 155.33 353.3 155.558C353.469 155.781 353.674 155.947 353.915 156.057C354.162 156.161 354.44 156.214 354.749 156.214C354.968 156.214 355.176 156.175 355.371 156.098C355.567 156.016 355.743 155.899 355.898 155.749C356.053 155.594 356.185 155.405 356.294 155.182C356.404 154.958 356.481 154.705 356.527 154.423H357.703ZM365.381 154.662C365.331 154.981 365.222 155.293 365.053 155.599C364.884 155.904 364.663 156.177 364.39 156.419C364.116 156.66 363.793 156.854 363.419 157C363.05 157.15 362.64 157.226 362.189 157.226C361.696 157.226 361.241 157.146 360.821 156.986C360.407 156.822 360.047 156.578 359.741 156.255C359.441 155.927 359.204 155.517 359.03 155.024C358.857 154.532 358.771 153.953 358.771 153.288C358.771 152.841 358.819 152.438 358.914 152.078C359.015 151.714 359.147 151.39 359.311 151.107C359.479 150.82 359.673 150.574 359.892 150.369C360.111 150.16 360.341 149.989 360.582 149.856C360.828 149.72 361.079 149.619 361.334 149.556C361.589 149.487 361.835 149.453 362.072 149.453C362.574 149.453 363.032 149.528 363.446 149.679C363.861 149.829 364.217 150.059 364.513 150.369C364.814 150.674 365.046 151.06 365.21 151.524C365.379 151.985 365.463 152.527 365.463 153.151V153.78H360.111C360.115 154.136 360.165 154.459 360.261 154.751C360.357 155.038 360.493 155.284 360.671 155.489C360.849 155.694 361.063 155.854 361.314 155.968C361.569 156.077 361.856 156.132 362.175 156.132C362.499 156.132 362.772 156.086 362.995 155.995C363.219 155.904 363.405 155.788 363.556 155.646C363.706 155.505 363.827 155.348 363.918 155.175C364.014 155.002 364.094 154.831 364.157 154.662H365.381ZM364.198 152.775C364.189 152.42 364.135 152.103 364.034 151.825C363.939 151.547 363.802 151.315 363.624 151.128C363.451 150.937 363.241 150.793 362.995 150.697C362.749 150.597 362.476 150.547 362.175 150.547C361.888 150.547 361.624 150.604 361.382 150.718C361.14 150.827 360.929 150.982 360.746 151.183C360.564 151.379 360.418 151.613 360.309 151.887C360.199 152.156 360.133 152.452 360.111 152.775H364.198ZM373.184 150.772H370.662V149.679H376.965V150.772H374.442V157H373.184V150.772ZM384.671 154.662C384.62 154.981 384.511 155.293 384.342 155.599C384.174 155.904 383.953 156.177 383.679 156.419C383.406 156.66 383.082 156.854 382.709 157C382.339 157.15 381.929 157.226 381.478 157.226C380.986 157.226 380.53 157.146 380.111 156.986C379.696 156.822 379.336 156.578 379.031 156.255C378.73 155.927 378.493 155.517 378.32 155.024C378.147 154.532 378.06 153.953 378.06 153.288C378.06 152.841 378.108 152.438 378.204 152.078C378.304 151.714 378.436 151.39 378.6 151.107C378.769 150.82 378.962 150.574 379.181 150.369C379.4 150.16 379.63 149.989 379.872 149.856C380.118 149.72 380.368 149.619 380.624 149.556C380.879 149.487 381.125 149.453 381.362 149.453C381.863 149.453 382.321 149.528 382.736 149.679C383.151 149.829 383.506 150.059 383.802 150.369C384.103 150.674 384.336 151.06 384.5 151.524C384.668 151.985 384.753 152.527 384.753 153.151V153.78H379.4C379.405 154.136 379.455 154.459 379.55 154.751C379.646 155.038 379.783 155.284 379.961 155.489C380.138 155.694 380.352 155.854 380.603 155.968C380.858 156.077 381.145 156.132 381.464 156.132C381.788 156.132 382.061 156.086 382.285 155.995C382.508 155.904 382.695 155.788 382.845 155.646C382.996 155.505 383.116 155.348 383.208 155.175C383.303 155.002 383.383 154.831 383.447 154.662H384.671ZM383.488 152.775C383.479 152.42 383.424 152.103 383.324 151.825C383.228 151.547 383.091 151.315 382.914 151.128C382.74 150.937 382.531 150.793 382.285 150.697C382.039 150.597 381.765 150.547 381.464 150.547C381.177 150.547 380.913 150.604 380.671 150.718C380.43 150.827 380.218 150.982 380.036 151.183C379.853 151.379 379.708 151.613 379.598 151.887C379.489 152.156 379.423 152.452 379.4 152.775H383.488ZM392.185 154.423C392.167 154.601 392.13 154.794 392.076 155.004C392.025 155.214 391.95 155.423 391.85 155.633C391.75 155.838 391.62 156.036 391.46 156.228C391.305 156.419 391.114 156.59 390.886 156.74C390.663 156.886 390.399 157.002 390.093 157.089C389.788 157.18 389.439 157.226 389.047 157.226C388.833 157.226 388.607 157.198 388.371 157.144C388.134 157.093 387.901 157.007 387.673 156.884C387.45 156.761 387.236 156.604 387.031 156.412C386.83 156.216 386.652 155.975 386.497 155.688C386.347 155.4 386.226 155.068 386.135 154.689C386.044 154.307 385.998 153.869 385.998 153.377C385.998 152.771 386.085 152.226 386.258 151.743C386.431 151.256 386.662 150.843 386.949 150.506C387.24 150.169 387.578 149.909 387.96 149.727C388.348 149.544 388.753 149.453 389.177 149.453C389.56 149.453 389.897 149.494 390.189 149.576C390.485 149.658 390.743 149.768 390.961 149.904C391.18 150.041 391.365 150.201 391.515 150.383C391.665 150.561 391.786 150.75 391.877 150.95C391.973 151.146 392.044 151.347 392.089 151.552C392.139 151.757 392.171 151.953 392.185 152.14H391.009C390.945 151.643 390.772 151.253 390.49 150.971C390.212 150.688 389.82 150.547 389.314 150.547C388.968 150.547 388.664 150.618 388.405 150.759C388.149 150.9 387.935 151.098 387.762 151.354C387.593 151.604 387.466 151.91 387.379 152.27C387.297 152.625 387.256 153.017 387.256 153.445C387.256 153.928 387.302 154.345 387.393 154.696C387.484 155.043 387.614 155.33 387.783 155.558C387.951 155.781 388.156 155.947 388.398 156.057C388.644 156.161 388.922 156.214 389.232 156.214C389.451 156.214 389.658 156.175 389.854 156.098C390.05 156.016 390.225 155.899 390.38 155.749C390.535 155.594 390.667 155.405 390.777 155.182C390.886 154.958 390.964 154.705 391.009 154.423H392.185ZM395.577 150.772H393.055V149.679H399.358V150.772H396.835V157H395.577V150.772ZM400.829 149.679H402.087V155.291H402.114L405.71 149.679H407.152V157H405.888V151.388H405.86L402.271 157H400.829V149.679ZM409.137 149.679H410.394V150.684H410.422C410.504 150.515 410.606 150.355 410.729 150.205C410.857 150.055 411.007 149.925 411.18 149.815C411.358 149.701 411.561 149.613 411.789 149.549C412.021 149.485 412.286 149.453 412.582 149.453C412.974 149.453 413.35 149.528 413.71 149.679C414.07 149.829 414.389 150.055 414.667 150.355C414.945 150.656 415.166 151.035 415.33 151.49C415.494 151.941 415.576 152.468 415.576 153.069C415.576 153.821 415.499 154.462 415.344 154.99C415.193 155.514 414.977 155.943 414.694 156.275C414.416 156.608 414.079 156.85 413.682 157C413.286 157.15 412.844 157.226 412.356 157.226C412.115 157.226 411.889 157.194 411.68 157.13C411.47 157.066 411.281 156.984 411.112 156.884C410.948 156.779 410.807 156.665 410.688 156.542C410.57 156.414 410.481 156.291 410.422 156.173H410.394V159.885H409.137V149.679ZM410.367 153.377C410.367 153.773 410.406 154.14 410.483 154.478C410.561 154.81 410.679 155.1 410.839 155.346C411.003 155.592 411.206 155.785 411.447 155.927C411.693 156.063 411.983 156.132 412.315 156.132C412.662 156.132 412.96 156.063 413.211 155.927C413.466 155.785 413.676 155.592 413.84 155.346C414.004 155.1 414.124 154.81 414.202 154.478C414.279 154.14 414.318 153.773 414.318 153.377C414.318 152.962 414.279 152.582 414.202 152.235C414.124 151.889 414.004 151.59 413.84 151.34C413.676 151.089 413.466 150.896 413.211 150.759C412.96 150.618 412.662 150.547 412.315 150.547C411.983 150.547 411.693 150.618 411.447 150.759C411.206 150.896 411.003 151.089 410.839 151.34C410.679 151.59 410.561 151.889 410.483 152.235C410.406 152.582 410.367 152.962 410.367 153.377ZM416.432 149.679H417.813L419.761 155.64H419.789L421.737 149.679H423.118L420.322 157.294C420.181 157.677 420.051 158.009 419.932 158.292C419.814 158.575 419.698 158.814 419.584 159.01C419.47 159.21 419.353 159.372 419.235 159.495C419.121 159.618 418.993 159.714 418.852 159.782C418.715 159.855 418.56 159.903 418.387 159.926C418.219 159.953 418.023 159.967 417.799 159.967C417.617 159.967 417.474 159.958 417.369 159.939C417.268 159.926 417.18 159.908 417.102 159.885V158.75C417.184 158.777 417.291 158.805 417.423 158.832C417.556 158.859 417.695 158.873 417.84 158.873C418.073 158.873 418.26 158.816 418.401 158.702C418.547 158.593 418.658 158.436 418.736 158.23L419.146 157.198L416.432 149.679ZM430.632 154.662C430.582 154.981 430.473 155.293 430.304 155.599C430.135 155.904 429.914 156.177 429.641 156.419C429.368 156.66 429.044 156.854 428.67 157C428.301 157.15 427.891 157.226 427.44 157.226C426.948 157.226 426.492 157.146 426.073 156.986C425.658 156.822 425.298 156.578 424.993 156.255C424.692 155.927 424.455 155.517 424.282 155.024C424.108 154.532 424.022 153.953 424.022 153.288C424.022 152.841 424.07 152.438 424.165 152.078C424.266 151.714 424.398 151.39 424.562 151.107C424.731 150.82 424.924 150.574 425.143 150.369C425.362 150.16 425.592 149.989 425.833 149.856C426.079 149.72 426.33 149.619 426.585 149.556C426.841 149.487 427.087 149.453 427.324 149.453C427.825 149.453 428.283 149.528 428.698 149.679C429.112 149.829 429.468 150.059 429.764 150.369C430.065 150.674 430.297 151.06 430.461 151.524C430.63 151.985 430.714 152.527 430.714 153.151V153.78H425.362C425.366 154.136 425.416 154.459 425.512 154.751C425.608 155.038 425.745 155.284 425.922 155.489C426.1 155.694 426.314 155.854 426.565 155.968C426.82 156.077 427.107 156.132 427.426 156.132C427.75 156.132 428.023 156.086 428.246 155.995C428.47 155.904 428.657 155.788 428.807 155.646C428.957 155.505 429.078 155.348 429.169 155.175C429.265 155.002 429.345 154.831 429.409 154.662H430.632ZM429.45 152.775C429.441 152.42 429.386 152.103 429.286 151.825C429.19 151.547 429.053 151.315 428.875 151.128C428.702 150.937 428.493 150.793 428.246 150.697C428 150.597 427.727 150.547 427.426 150.547C427.139 150.547 426.875 150.604 426.633 150.718C426.392 150.827 426.18 150.982 425.997 151.183C425.815 151.379 425.669 151.613 425.56 151.887C425.451 152.156 425.385 152.452 425.362 152.775H429.45ZM432.391 149.679H434.223L436.157 155.681H436.185L438.147 149.679H439.869V157H438.694V151.107H438.666L436.732 157H435.529L433.594 151.107H433.567V157H432.391V149.679ZM447.028 153.329C447.028 152.924 446.983 152.552 446.892 152.215C446.8 151.873 446.664 151.579 446.481 151.333C446.299 151.087 446.074 150.896 445.805 150.759C445.54 150.618 445.233 150.547 444.882 150.547C444.531 150.547 444.223 150.618 443.959 150.759C443.695 150.896 443.471 151.087 443.289 151.333C443.107 151.579 442.97 151.873 442.879 152.215C442.788 152.552 442.742 152.924 442.742 153.329C442.742 153.739 442.788 154.118 442.879 154.464C442.97 154.806 443.107 155.1 443.289 155.346C443.471 155.592 443.695 155.785 443.959 155.927C444.223 156.063 444.531 156.132 444.882 156.132C445.233 156.132 445.54 156.063 445.805 155.927C446.074 155.785 446.299 155.592 446.481 155.346C446.664 155.1 446.8 154.806 446.892 154.464C446.983 154.118 447.028 153.739 447.028 153.329ZM448.286 153.329C448.286 153.931 448.209 154.473 448.054 154.956C447.899 155.435 447.675 155.842 447.384 156.18C447.092 156.517 446.734 156.777 446.311 156.959C445.891 157.137 445.415 157.226 444.882 157.226C444.349 157.226 443.872 157.137 443.453 156.959C443.034 156.777 442.678 156.517 442.387 156.18C442.095 155.842 441.872 155.435 441.717 154.956C441.562 154.473 441.484 153.931 441.484 153.329C441.484 152.737 441.562 152.201 441.717 151.723C441.872 151.244 442.095 150.836 442.387 150.499C442.678 150.162 443.034 149.904 443.453 149.727C443.872 149.544 444.349 149.453 444.882 149.453C445.415 149.453 445.891 149.544 446.311 149.727C446.734 149.904 447.092 150.162 447.384 150.499C447.675 150.836 447.899 151.244 448.054 151.723C448.209 152.201 448.286 152.737 448.286 153.329ZM449.908 149.679H454.454V150.772H451.166V157H449.908V149.679ZM460.868 153.329C460.868 152.924 460.822 152.552 460.731 152.215C460.64 151.873 460.503 151.579 460.321 151.333C460.139 151.087 459.913 150.896 459.644 150.759C459.38 150.618 459.072 150.547 458.721 150.547C458.37 150.547 458.063 150.618 457.798 150.759C457.534 150.896 457.311 151.087 457.129 151.333C456.946 151.579 456.809 151.873 456.718 152.215C456.627 152.552 456.582 152.924 456.582 153.329C456.582 153.739 456.627 154.118 456.718 154.464C456.809 154.806 456.946 155.1 457.129 155.346C457.311 155.592 457.534 155.785 457.798 155.927C458.063 156.063 458.37 156.132 458.721 156.132C459.072 156.132 459.38 156.063 459.644 155.927C459.913 155.785 460.139 155.592 460.321 155.346C460.503 155.1 460.64 154.806 460.731 154.464C460.822 154.118 460.868 153.739 460.868 153.329ZM462.126 153.329C462.126 153.931 462.048 154.473 461.893 154.956C461.738 155.435 461.515 155.842 461.223 156.18C460.932 156.517 460.574 156.777 460.15 156.959C459.731 157.137 459.254 157.226 458.721 157.226C458.188 157.226 457.712 157.137 457.293 156.959C456.873 156.777 456.518 156.517 456.226 156.18C455.934 155.842 455.711 155.435 455.556 154.956C455.401 154.473 455.324 153.931 455.324 153.329C455.324 152.737 455.401 152.201 455.556 151.723C455.711 151.244 455.934 150.836 456.226 150.499C456.518 150.162 456.873 149.904 457.293 149.727C457.712 149.544 458.188 149.453 458.721 149.453C459.254 149.453 459.731 149.544 460.15 149.727C460.574 149.904 460.932 150.162 461.223 150.499C461.515 150.836 461.738 151.244 461.893 151.723C462.048 152.201 462.126 152.737 462.126 153.329Z" fill="#CCCCCC"/>
</g>
<rect x="0.5" y="0.5" width="671" height="270" rx="3.5" stroke="#E5E5E5"/>
<defs>
<clipPath id="clip0">
</clipPath>
</defs>
</svg>
