<svg width="16" height="13" viewBox="0 0 16 13" fill="none" xmlns="http://www.w3.org/2000/svg">
<path d="M7.12109 5.80371C8.05127 5.80371 8.82764 5.18115 8.82764 4.19238C8.82764 3.25488 8.19043 2.63965 7.31885 2.63965C6.87207 2.63965 6.52783 2.81543 6.31543 3.15234C6.54248 2.1123 7.32617 1.42383 8.38818 1.37988C8.67383 1.36523 8.87891 1.16748 8.87891 0.88916C8.87891 0.552246 8.60791 0.376465 8.2417 0.376465C6.59375 0.376465 5.12891 1.78271 5.12891 3.63574C5.12891 4.9541 6.00781 5.80371 7.12109 5.80371ZM2.63867 5.80371C3.56885 5.80371 4.34521 5.18115 4.34521 4.19238C4.34521 3.25488 3.70068 2.63965 2.8291 2.63965C2.38965 2.63965 2.03809 2.81543 1.82568 3.15234C2.05273 2.1123 2.84375 1.43115 3.90576 1.37988C4.18408 1.36523 4.39648 1.16748 4.39648 0.88916C4.39648 0.552246 4.11816 0.376465 3.75195 0.376465C2.104 0.376465 0.63916 1.78271 0.63916 3.63574C0.63916 4.9541 1.52539 5.80371 2.63867 5.80371ZM10.6807 1.48975H14.8115C15.1191 1.48975 15.3755 1.24805 15.3755 0.933105C15.3755 0.625488 15.1191 0.383789 14.8115 0.383789H10.6807C10.373 0.383789 10.1313 0.625488 10.1313 0.933105C10.1313 1.24805 10.373 1.48975 10.6807 1.48975ZM10.6807 5.32764H14.8115C15.1191 5.32764 15.3755 5.08594 15.3755 4.771C15.3755 4.46338 15.1191 4.22168 14.8115 4.22168H10.6807C10.373 4.22168 10.1313 4.46338 10.1313 4.771C10.1313 5.08594 10.373 5.32764 10.6807 5.32764ZM1.1665 9.16553H14.8115C15.1191 9.16553 15.3755 8.9165 15.3755 8.60889C15.3755 8.30127 15.1191 8.05957 14.8115 8.05957H1.1665C0.858887 8.05957 0.617188 8.30127 0.617188 8.60889C0.617188 8.9165 0.858887 9.16553 1.1665 9.16553ZM1.1665 12.9961H14.8115C15.1191 12.9961 15.3755 12.7544 15.3755 12.4468C15.3755 12.1392 15.1191 11.8901 14.8115 11.8901H1.1665C0.858887 11.8901 0.617188 12.1392 0.617188 12.4468C0.617188 12.7544 0.858887 12.9961 1.1665 12.9961Z" fill="black"/>
</svg>
