<svg width="20" height="20" viewBox="0 0 19 20" fill="none" xmlns="http://www.w3.org/2000/svg">
    <path
            d="M3.82031 19.1973H15.6172C17.7949 19.1973 18.957 18.0352 18.957 15.8867V4.03125C18.957 1.88281 17.7949 0.730469 15.6172 0.730469H3.82031C1.65234 0.730469 0.490234 1.88281 0.490234 4.03125V15.8867C0.490234 18.0449 1.65234 19.1973 3.82031 19.1973ZM8.44922 15.1348C8.04883 15.1348 7.72656 14.9492 7.43359 14.6074L4.63086 11.2285C4.42578 10.9941 4.33789 10.7402 4.33789 10.4766C4.33789 9.91016 4.78711 9.4707 5.33398 9.4707C5.66602 9.4707 5.92969 9.60742 6.18359 9.91016L8.41992 12.6836L12.7266 5.82812C12.9609 5.44727 13.2637 5.26172 13.6055 5.26172C14.1426 5.26172 14.6504 5.64258 14.6504 6.20898C14.6504 6.44336 14.5332 6.70703 14.3867 6.94141L9.43555 14.5781C9.19141 14.9395 8.83984 15.1348 8.44922 15.1348Z"
            fill="#333333"
    />
</svg>
