<svg width="13" height="13" viewBox="0 0 13 13" fill="none" xmlns="http://www.w3.org/2000/svg">
<path d="M4.92871 12.1006C5.22266 12.1006 5.45508 11.9707 5.61914 11.7178L12.0791 1.5459C12.2021 1.34766 12.25 1.19727 12.25 1.04004C12.25 0.664062 12.0039 0.417969 11.6279 0.417969C11.3545 0.417969 11.2041 0.506836 11.04 0.766602L4.90137 10.5488L1.71582 6.37891C1.54492 6.13965 1.37402 6.04395 1.12793 6.04395C0.738281 6.04395 0.47168 6.31055 0.47168 6.68652C0.47168 6.84375 0.540039 7.02148 0.669922 7.18555L4.21777 11.7041C4.42285 11.9707 4.63477 12.1006 4.92871 12.1006Z" fill="black"/>
</svg>
