<svg width="43" height="18" viewBox="0 0 43 18" fill="none" xmlns="http://www.w3.org/2000/svg">
<path d="M6.92188 15.9453C7.30469 15.9453 7.625 15.6406 7.625 15.2656V10.0703H12.6719C13.0469 10.0703 13.3672 9.75 13.3672 9.36719C13.3672 8.98438 13.0469 8.67188 12.6719 8.67188H7.625V3.46875C7.625 3.09375 7.30469 2.78906 6.92188 2.78906C6.53906 2.78906 6.22656 3.09375 6.22656 3.46875V8.67188H1.17188C0.796875 8.67188 0.476562 8.98438 0.476562 9.36719C0.476562 9.75 0.796875 10.0703 1.17188 10.0703H6.22656V15.2656C6.22656 15.6406 6.53906 15.9453 6.92188 15.9453ZM24.3203 13.9531H25.7656V15.2969C25.7656 16.9062 26.5859 17.7188 28.2188 17.7188H40.0703C41.6953 17.7188 42.5234 16.9062 42.5234 15.2969V6.99219C42.5234 5.39062 41.6953 4.57812 40.0703 4.57812H38.6172V3.3125C38.6172 1.70312 37.7969 0.890625 36.1641 0.890625H24.3203C22.6797 0.890625 21.8672 1.70312 21.8672 3.3125V11.5391C21.8672 13.1484 22.6797 13.9531 24.3203 13.9531ZM24.3359 12.6953C23.5547 12.6953 23.125 12.2812 23.125 11.4688V3.38281C23.125 2.57031 23.5547 2.14844 24.3359 2.14844H36.1484C36.9141 2.14844 37.3594 2.57031 37.3594 3.38281V4.57812H28.2188C26.5859 4.57812 25.7656 5.38281 25.7656 6.99219V12.6953H24.3359ZM27.0234 7.0625C27.0234 6.25 27.4609 5.83594 28.2422 5.83594H40.0469C40.8203 5.83594 41.2656 6.25 41.2656 7.0625V13.5859L38.3984 10.8828C38.0547 10.5625 37.6484 10.4062 37.2188 10.4062C36.7891 10.4062 36.4141 10.5547 36.0469 10.875L32.5391 13.9844L31.1406 12.7188C30.8047 12.4297 30.4531 12.2734 30.0781 12.2734C29.7344 12.2734 29.4062 12.4141 29.0781 12.7109L27.0234 14.4922V7.0625ZM31.2656 11.0781C32.2734 11.0781 33.1016 10.25 33.1016 9.22656C33.1016 8.22656 32.2734 7.38281 31.2656 7.38281C30.25 7.38281 29.4219 8.22656 29.4219 9.22656C29.4219 10.25 30.25 11.0781 31.2656 11.0781Z" fill="black"/>
</svg>
