<svg width="39" height="17" viewBox="0 0 39 17" fill="none" xmlns="http://www.w3.org/2000/svg">
<path d="M6.64062 14.9453C7.02344 14.9453 7.34375 14.6406 7.34375 14.2656V9.07031H12.3906C12.7656 9.07031 13.0859 8.75 13.0859 8.36719C13.0859 7.98438 12.7656 7.67188 12.3906 7.67188H7.34375V2.46875C7.34375 2.09375 7.02344 1.78906 6.64062 1.78906C6.25781 1.78906 5.94531 2.09375 5.94531 2.46875V7.67188H0.890625C0.515625 7.67188 0.195312 7.98438 0.195312 8.36719C0.195312 8.75 0.515625 9.07031 0.890625 9.07031H5.94531V14.2656C5.94531 14.6406 6.25781 14.9453 6.64062 14.9453ZM26.3906 16.9453C26.7734 16.9453 27.0391 16.7422 27.5156 16.3203L30.2109 13.9219H35.2266C37.5547 13.9219 38.8047 12.6328 38.8047 10.3438V4.35938C38.8047 2.07031 37.5547 0.78125 35.2266 0.78125H25.1641C22.8359 0.78125 21.5859 2.0625 21.5859 4.35938V10.3438C21.5859 12.6406 22.8359 13.9219 25.1641 13.9219H25.5391V15.9531C25.5391 16.5547 25.8438 16.9453 26.3906 16.9453ZM26.7109 15.5156V13.25C26.7109 12.8281 26.5469 12.6641 26.125 12.6641H25.1641C23.5859 12.6641 22.8438 11.8594 22.8438 10.3359V4.35938C22.8438 2.83594 23.5859 2.03906 25.1641 2.03906H35.2266C36.7969 2.03906 37.5469 2.83594 37.5469 4.35938V10.3359C37.5469 11.8594 36.7969 12.6641 35.2266 12.6641H30.1641C29.7266 12.6641 29.5078 12.7266 29.2109 13.0312L26.7109 15.5156ZM25.3047 8.42188H28.5234C28.7734 8.42188 28.9766 8.22656 28.9766 7.96875C28.9766 7.72656 28.7734 7.51562 28.5234 7.51562H25.3047C25.0547 7.51562 24.8594 7.72656 24.8594 7.96875C24.8594 8.22656 25.0547 8.42188 25.3047 8.42188ZM30.1406 8.42188H35.1953C35.4453 8.42188 35.6406 8.22656 35.6406 7.96875C35.6406 7.72656 35.4453 7.51562 35.1953 7.51562H30.1406C29.8906 7.51562 29.6875 7.72656 29.6875 7.96875C29.6875 8.22656 29.8906 8.42188 30.1406 8.42188ZM25.3047 10.4688H26.6328C26.8828 10.4688 27.0781 10.2734 27.0781 10.0234C27.0781 9.76562 26.8828 9.5625 26.6328 9.5625H25.3047C25.0547 9.5625 24.8594 9.76562 24.8594 10.0234C24.8594 10.2734 25.0547 10.4688 25.3047 10.4688ZM28.2422 10.4688H32.1641C32.4141 10.4688 32.6094 10.2734 32.6094 10.0234C32.6094 9.76562 32.4141 9.5625 32.1641 9.5625H28.2422C27.9922 9.5625 27.7969 9.76562 27.7969 10.0234C27.7969 10.2734 27.9922 10.4688 28.2422 10.4688ZM33.7734 10.4688H35.1953C35.4453 10.4688 35.6406 10.2734 35.6406 10.0234C35.6406 9.76562 35.4453 9.5625 35.1953 9.5625H33.7734C33.5234 9.5625 33.3281 9.76562 33.3281 10.0234C33.3281 10.2734 33.5234 10.4688 33.7734 10.4688Z" fill="black"/>
</svg>
