<svg width="18" height="21" viewBox="0 0 18 21" fill="none" xmlns="http://www.w3.org/2000/svg">
<path d="M3.25781 20.2969H10.8438C12.4609 20.2969 13.2188 19.4766 13.2188 17.8438V16.3984H14.7422C16.3594 16.3984 17.1641 15.5781 17.1641 13.9453V7.40625C17.1641 6.44531 16.9766 5.83594 16.3906 5.23438L12.4453 1.21875C11.8828 0.648438 11.2344 0.445312 10.3984 0.445312H7.20312C5.59375 0.445312 4.78125 1.26562 4.78125 2.89844V4.34375H3.25781C1.64844 4.34375 0.835938 5.16406 0.835938 6.79688V17.8438C0.835938 19.4844 1.64062 20.2969 3.25781 20.2969ZM13.2188 11.5469C13.2188 10.5469 13.1094 10.1094 12.4844 9.46875L8.17188 5.08594C7.58594 4.47656 7.09375 4.34375 6.21094 4.34375H6.03906V2.91406C6.03906 2.14844 6.45312 1.70312 7.26562 1.70312H10.5625V5.78906C10.5625 6.6875 11 7.125 11.8984 7.125H15.9062V13.9297C15.9062 14.7031 15.4922 15.1406 14.6797 15.1406H13.2188V11.5469ZM12.0781 5.99219C11.8047 5.99219 11.6953 5.875 11.6953 5.60156V1.95312L15.6562 5.99219H12.0781ZM3.3125 19.0391C2.50781 19.0391 2.09375 18.6016 2.09375 17.8203V6.8125C2.09375 6.04688 2.50781 5.60156 3.32031 5.60156H6.03906V10.1328C6.03906 11.1172 6.53906 11.6016 7.50781 11.6016H11.9609V17.8203C11.9609 18.6016 11.5469 19.0391 10.7344 19.0391H3.3125ZM7.65625 10.4219C7.34375 10.4219 7.21875 10.2969 7.21875 9.99219V5.84375L11.7188 10.4219H7.65625Z" fill="black"/>
</svg>
