<svg width="16" height="17" viewBox="0 0 16 17" fill="none" xmlns="http://www.w3.org/2000/svg">
<path d="M8 16.3281C12.3594 16.3281 15.9688 12.7188 15.9688 8.35938C15.9688 4.00781 12.3516 0.390625 7.99219 0.390625C3.64062 0.390625 0.03125 4.00781 0.03125 8.35938C0.03125 12.7188 3.64844 16.3281 8 16.3281ZM8 15C4.3125 15 1.36719 12.0469 1.36719 8.35938C1.36719 4.67969 4.30469 1.71875 7.99219 1.71875C11.6797 1.71875 14.6328 4.67969 14.6406 8.35938C14.6484 12.0469 11.6875 15 8 15ZM5.32812 11.6719C5.5 11.6719 5.66406 11.6016 5.77344 11.4766L7.99219 9.25L10.2188 11.4766C10.3359 11.5938 10.4844 11.6719 10.6641 11.6719C11.0078 11.6719 11.2891 11.3828 11.2891 11.0391C11.2891 10.8594 11.2266 10.7109 11.1016 10.5938L8.88281 8.375L11.1094 6.14062C11.2422 6.00781 11.2969 5.875 11.2969 5.70312C11.2969 5.35156 11.0156 5.07812 10.6719 5.07812C10.5078 5.07812 10.375 5.13281 10.2422 5.26562L7.99219 7.5L5.75781 5.27344C5.64844 5.14844 5.5 5.09375 5.32812 5.09375C4.98438 5.09375 4.70312 5.35938 4.70312 5.71094C4.70312 5.88281 4.76562 6.03125 4.89062 6.14844L7.10938 8.375L4.89062 10.6016C4.76562 10.7109 4.70312 10.8672 4.70312 11.0391C4.70312 11.3828 4.98438 11.6719 5.32812 11.6719Z" fill="black"/>
</svg>
