<svg width="16" height="9" viewBox="0 0 16 9" fill="none" xmlns="http://www.w3.org/2000/svg">
<path d="M0.679688 1.55469H15.3047C15.6328 1.55469 15.8984 1.29688 15.8984 0.96875C15.8984 0.640625 15.6328 0.375 15.3047 0.375H0.679688C0.351562 0.375 0.09375 0.640625 0.09375 0.96875C0.09375 1.29688 0.351562 1.55469 0.679688 1.55469ZM0.679688 4.96094H15.3047C15.6328 4.96094 15.8984 4.70312 15.8984 4.375C15.8984 4.03906 15.6328 3.77344 15.3047 3.77344H0.679688C0.351562 3.77344 0.09375 4.03906 0.09375 4.375C0.09375 4.70312 0.351562 4.96094 0.679688 4.96094ZM0.679688 8.375H15.3047C15.6328 8.375 15.8984 8.10938 15.8984 7.77344C15.8984 7.44531 15.6328 7.1875 15.3047 7.1875H0.679688C0.351562 7.1875 0.09375 7.44531 0.09375 7.77344C0.09375 8.10938 0.351562 8.375 0.679688 8.375Z" fill="black"/>
</svg>
