<svg width="35" height="19" viewBox="0 0 35 19" fill="none" xmlns="http://www.w3.org/2000/svg">
<path d="M6.78125 16.9453C7.16406 16.9453 7.48438 16.6406 7.48438 16.2656V11.0703H12.5312C12.9062 11.0703 13.2266 10.75 13.2266 10.3672C13.2266 9.98438 12.9062 9.67188 12.5312 9.67188H7.48438V4.46875C7.48438 4.09375 7.16406 3.78906 6.78125 3.78906C6.39844 3.78906 6.08594 4.09375 6.08594 4.46875V9.67188H1.03125C0.65625 9.67188 0.335938 9.98438 0.335938 10.3672C0.335938 10.75 0.65625 11.0703 1.03125 11.0703H6.08594V16.2656C6.08594 16.6406 6.39844 16.9453 6.78125 16.9453ZM25.8594 15H31.5156C31.7812 15 31.9531 14.8359 31.9531 14.5703V13.3203C31.9531 11.4297 34.6953 10.2109 34.6953 6.83594C34.6953 3.28125 32.2891 0.90625 28.6875 0.90625C25.0859 0.90625 22.6875 3.28125 22.6875 6.83594C22.6875 10.2109 25.4297 11.4297 25.4297 13.3203V14.5703C25.4297 14.8359 25.6016 15 25.8594 15ZM26.5938 13.3359C26.5938 11.0391 23.8672 9.8125 23.8672 6.84375C23.8672 3.98438 25.7969 2.08594 28.6875 2.08594C31.5859 2.08594 33.5156 3.98438 33.5156 6.84375C33.5156 9.8125 30.7891 11.0391 30.7891 13.3359V13.8203H26.5938V13.3359ZM26.1562 17.1094H31.2266C31.625 17.1094 31.9531 16.7812 31.9531 16.375C31.9531 15.9688 31.625 15.6406 31.2266 15.6406H26.1562C25.7578 15.6406 25.4297 15.9688 25.4297 16.375C25.4297 16.7812 25.7578 17.1094 26.1562 17.1094ZM28.6875 18.9922C29.7656 18.9922 30.5312 18.5 30.6094 17.7422H26.7734C26.8438 18.5 27.6094 18.9922 28.6875 18.9922Z" fill="black"/>
</svg>
