<svg width="12.8" height="10.9" viewBox="0 0 12.8 10.9" xmlns="http://www.w3.org/2000/svg" style="enable-background:new 0 0 12.8 10.9;" xml:space="preserve">
<path d="M12.3,6.7H0.5C0.2,6.7,0,6.9,0,7.1s0.2,0.5,0.5,0.5h11.8c0.3,0,0.5-0.2,0.5-0.5S12.6,6.7,12.3,6.7z"/>
<path d="M7.3,10H0.5C0.2,10,0,10.2,0,10.5s0.2,0.5,0.5,0.5h6.8c0.3,0,0.5-0.2,0.5-0.5S7.5,10,7.3,10z"/>
<path d="M12.3,3.3H0.5C0.2,3.3,0,3.5,0,3.8c0,0.3,0.2,0.5,0.5,0.5h11.8c0.3,0,0.5-0.2,0.5-0.5C12.8,3.5,12.6,3.3,12.3,3.3z"/>
<path d="M12.3,0H0.5C0.2,0,0,0.2,0,0.5C0,0.7,0.2,1,0.5,1h11.8c0.3,0,0.5-0.2,0.5-0.5C12.8,0.2,12.6,0,12.3,0z"/>
</svg>
