<svg width="16" height="9.3" viewBox="0 0 16 9.3" xmlns="http://www.w3.org/2000/svg" style="enable-background:new 0 0 16 9.3;">
<path d="M0.8,1.6c0.4,0,0.8-0.4,0.8-0.8C1.6,0.4,1.2,0,0.8,0C0.4,0,0,0.4,0,0.8C0,1.2,0.4,1.6,0.8,1.6z M3.6,1.3h8.7
	c0.3,0,0.5-0.2,0.5-0.5c0-0.3-0.2-0.5-0.5-0.5H3.6c-0.3,0-0.5,0.2-0.5,0.5C3.1,1.1,3.3,1.3,3.6,1.3z M2.4,5.4c0.4,0,0.8-0.4,0.8-0.8
	S2.8,3.8,2.4,3.8c-0.4,0-0.8,0.4-0.8,0.8S1.9,5.4,2.4,5.4z M5.2,5.1h8.7c0.3,0,0.5-0.2,0.5-0.5s-0.2-0.5-0.5-0.5H5.2
	c-0.3,0-0.5,0.2-0.5,0.5S4.9,5.1,5.2,5.1z M4,9.3c0.4,0,0.8-0.4,0.8-0.8C4.8,8,4.4,7.7,4,7.7C3.5,7.7,3.2,8,3.2,8.5
	C3.2,8.9,3.5,9.3,4,9.3z M6.8,9h8.7C15.7,9,16,8.8,16,8.5C16,8.2,15.7,8,15.5,8H6.8C6.5,8,6.3,8.2,6.3,8.5C6.3,8.8,6.5,9,6.8,9z"/>
</svg>
