<svg viewBox="0 0 21 15" fill="none" xmlns="http://www.w3.org/2000/svg">
    <path d="M16.1763 7.11865H19.5161C20.4463 7.11865 20.915 6.6499 20.915 5.68311V2.40918C20.915 1.44238 20.4463 0.980957 19.5161 0.980957H16.1763C15.2461 0.980957 14.7773 1.44238 14.7773 2.40918V5.68311C14.7773 6.6499 15.2461 7.11865 16.1763 7.11865ZM1.47656 7.11865H4.81641C5.74658 7.11865 6.21533 6.6499 6.21533 5.68311V2.40918C6.21533 1.44238 5.74658 0.980957 4.81641 0.980957H1.47656C0.546387 0.980957 0.0776367 1.44238 0.0776367 2.40918V5.68311C0.0776367 6.6499 0.546387 7.11865 1.47656 7.11865ZM8.83008 7.11865H12.1626C13.0928 7.11865 13.5615 6.6499 13.5615 5.68311V2.40918C13.5615 1.44238 13.0928 0.980957 12.1626 0.980957H8.83008C7.89258 0.980957 7.42383 1.44238 7.42383 2.40918V5.68311C7.42383 6.6499 7.89258 7.11865 8.83008 7.11865ZM1.49121 6.08594C1.23486 6.08594 1.11035 5.9541 1.11035 5.68311V2.40918C1.11035 2.14551 1.23486 2.01367 1.49121 2.01367H4.79443C5.05078 2.01367 5.18262 2.14551 5.18262 2.40918V5.68311C5.18262 5.9541 5.05078 6.08594 4.79443 6.08594H1.49121ZM8.84473 6.08594C8.58105 6.08594 8.45654 5.9541 8.45654 5.68311V2.40918C8.45654 2.14551 8.58105 2.01367 8.84473 2.01367H12.1479C12.4043 2.01367 12.5288 2.14551 12.5288 2.40918V5.68311C12.5288 5.9541 12.4043 6.08594 12.1479 6.08594H8.84473ZM16.1909 6.08594C15.9346 6.08594 15.8101 5.9541 15.8101 5.68311V2.40918C15.8101 2.14551 15.9346 2.01367 16.1909 2.01367H19.4941C19.7578 2.01367 19.8823 2.14551 19.8823 2.40918V5.68311C19.8823 5.9541 19.7578 6.08594 19.4941 6.08594H16.1909ZM1.47656 14.4648H4.81641C5.74658 14.4648 6.21533 14.0034 6.21533 13.0366V9.75537C6.21533 8.7959 5.74658 8.32715 4.81641 8.32715H1.47656C0.546387 8.32715 0.0776367 8.7959 0.0776367 9.75537V13.0366C0.0776367 14.0034 0.546387 14.4648 1.47656 14.4648ZM8.83008 14.4648H12.1626C13.0928 14.4648 13.5615 14.0034 13.5615 13.0366V9.75537C13.5615 8.7959 13.0928 8.32715 12.1626 8.32715H8.83008C7.89258 8.32715 7.42383 8.7959 7.42383 9.75537V13.0366C7.42383 14.0034 7.89258 14.4648 8.83008 14.4648ZM16.1763 14.4648H19.5161C20.4463 14.4648 20.915 14.0034 20.915 13.0366V9.75537C20.915 8.7959 20.4463 8.32715 19.5161 8.32715H16.1763C15.2461 8.32715 14.7773 8.7959 14.7773 9.75537V13.0366C14.7773 14.0034 15.2461 14.4648 16.1763 14.4648ZM1.49121 13.4321C1.23486 13.4321 1.11035 13.3003 1.11035 13.0366V9.7627C1.11035 9.4917 1.23486 9.35986 1.49121 9.35986H4.79443C5.05078 9.35986 5.18262 9.4917 5.18262 9.7627V13.0366C5.18262 13.3003 5.05078 13.4321 4.79443 13.4321H1.49121ZM8.84473 13.4321C8.58105 13.4321 8.45654 13.3003 8.45654 13.0366V9.7627C8.45654 9.4917 8.58105 9.35986 8.84473 9.35986H12.1479C12.4043 9.35986 12.5288 9.4917 12.5288 9.7627V13.0366C12.5288 13.3003 12.4043 13.4321 12.1479 13.4321H8.84473ZM16.1909 13.4321C15.9346 13.4321 15.8101 13.3003 15.8101 13.0366V9.7627C15.8101 9.4917 15.9346 9.35986 16.1909 9.35986H19.4941C19.7578 9.35986 19.8823 9.4917 19.8823 9.7627V13.0366C19.8823 13.3003 19.7578 13.4321 19.4941 13.4321H16.1909Z" fill="black"/>
</svg>
