<svg viewBox="0 0 12 13" fill="none" xmlns="http://www.w3.org/2000/svg">
    <path d="M0.0307617 11.0625C0.0307617 12.0806 0.645996 12.6812 1.67139 12.6812H10.3213C11.354 12.6812 11.9619 12.0806 11.9619 11.0625V2.36133C11.9619 1.34326 11.354 0.742676 10.3213 0.742676H1.67139C0.645996 0.742676 0.0307617 1.34326 0.0307617 2.36133V11.0625ZM1.20996 10.7842V2.63965C1.20996 2.19287 1.47363 1.92188 1.91309 1.92188H10.0796C10.5264 1.92188 10.7827 2.19287 10.7827 2.63965V10.7842C10.7827 11.231 10.5264 11.502 10.0796 11.502H1.91309C1.47363 11.502 1.20996 11.231 1.20996 10.7842Z" fill="black"/>
</svg>