<svg width="16" height="19" viewBox="0 0 16 19" fill="none" xmlns="http://www.w3.org/2000/svg">
    <path d="M13.2656 16.5234L13.8047 5.16406H14.7422C15.0625 5.16406 15.3203 4.89062 15.3203 4.57031C15.3203 4.25 15.0625 3.98438 14.7422 3.98438H11.1719V2.8125C11.1719 1.6875 10.4141 0.96875 9.21094 0.96875H6.28906C5.08594 0.96875 4.33594 1.6875 4.33594 2.8125V3.98438H0.773438C0.460938 3.98438 0.195312 4.25781 0.195312 4.57031C0.195312 4.89062 0.460938 5.16406 0.773438 5.16406H1.71875L2.25781 16.5312C2.3125 17.6484 3.04688 18.3672 4.17969 18.3672H11.3438C12.4609 18.3672 13.2109 17.6406 13.2656 16.5234ZM5.58594 2.89062C5.58594 2.44531 5.90625 2.13281 6.38281 2.13281H9.125C9.60156 2.13281 9.92969 2.44531 9.92969 2.89062V3.98438H5.58594V2.89062ZM4.28906 17.1875C3.84375 17.1875 3.50781 16.8516 3.48438 16.3906L2.9375 5.16406H12.5547L12.0391 16.3906C12.0156 16.8594 11.6875 17.1875 11.2188 17.1875H4.28906ZM10.0781 15.8203C10.3359 15.8203 10.5234 15.6094 10.5312 15.3125L10.7656 7.11719C10.7734 6.82812 10.5781 6.60938 10.3125 6.60938C10.0703 6.60938 9.86719 6.83594 9.85938 7.11719L9.625 15.3047C9.61719 15.5938 9.8125 15.8203 10.0781 15.8203ZM5.44531 15.8203C5.71094 15.8203 5.90625 15.5938 5.89844 15.3047L5.65625 7.11719C5.64844 6.83594 5.44531 6.60938 5.20312 6.60938C4.9375 6.60938 4.74219 6.82812 4.75 7.11719L4.98438 15.3125C4.99219 15.6094 5.17969 15.8203 5.44531 15.8203ZM7.75781 15.8203C8.01562 15.8203 8.23438 15.5938 8.23438 15.3125V7.11719C8.23438 6.83594 8.01562 6.60938 7.75781 6.60938C7.50781 6.60938 7.28906 6.83594 7.28906 7.11719V15.3125C7.28906 15.5938 7.50781 15.8203 7.75781 15.8203Z" fill="#FF3B30"/>
</svg>
