<svg width="17" height="9" viewBox="0 0 17 9" fill="none" xmlns="http://www.w3.org/2000/svg">
<path d="M1.57812 1.55469H16.2031C16.5312 1.55469 16.7969 1.29688 16.7969 0.96875C16.7969 0.640625 16.5312 0.375 16.2031 0.375H1.57812C1.25 0.375 0.992188 0.640625 0.992188 0.96875C0.992188 1.29688 1.25 1.55469 1.57812 1.55469ZM1.57812 4.96094H16.2031C16.5312 4.96094 16.7969 4.70312 16.7969 4.375C16.7969 4.03906 16.5312 3.77344 16.2031 3.77344H1.57812C1.25 3.77344 0.992188 4.03906 0.992188 4.375C0.992188 4.70312 1.25 4.96094 1.57812 4.96094ZM1.57812 8.375H16.2031C16.5312 8.375 16.7969 8.10938 16.7969 7.77344C16.7969 7.44531 16.5312 7.1875 16.2031 7.1875H1.57812C1.25 7.1875 0.992188 7.44531 0.992188 7.77344C0.992188 8.10938 1.25 8.375 1.57812 8.375Z" fill="#CCCCCC"/>
</svg>
