<svg width="15" height="18" viewBox="0 0 15 18" fill="none" xmlns="http://www.w3.org/2000/svg">
<path d="M3.41406 17.7422H11.7109C13.3281 17.7422 14.1328 16.9219 14.1328 15.2969V8.20312C14.1328 7.19531 14.0156 6.75781 13.3906 6.11719L9.08594 1.73438C8.49219 1.125 8 0.992188 7.125 0.992188H3.41406C1.80469 0.992188 0.992188 1.82031 0.992188 3.44531V15.2969C0.992188 16.9297 1.79688 17.7422 3.41406 17.7422ZM3.46875 16.4844C2.66406 16.4844 2.25 16.0547 2.25 15.2734V3.46875C2.25 2.69531 2.66406 2.25 3.47656 2.25H6.95312V6.78906C6.95312 7.77344 7.44531 8.25781 8.42188 8.25781H12.875V15.2734C12.875 16.0547 12.4609 16.4844 11.6484 16.4844H3.46875ZM8.5625 7.07812C8.25 7.07812 8.13281 6.95312 8.13281 6.64062V2.49219L12.6328 7.07812H8.5625Z" fill="black"/>
</svg>
