<svg width="14" height="14" viewBox="0 0 14 14" fill="none" xmlns="http://www.w3.org/2000/svg">
<path d="M6.99268 13.0034C7.52734 13.0034 7.9668 12.5493 7.9668 12.0513V7.69336H12.2368C12.7495 7.69336 13.1963 7.25391 13.1963 6.71924C13.1963 6.19189 12.7495 5.74512 12.2368 5.74512H7.9668V1.38721C7.9668 0.874512 7.52734 0.435059 6.99268 0.435059C6.46533 0.435059 6.02588 0.874512 6.02588 1.38721V5.74512H1.75586C1.25781 5.74512 0.796387 6.19189 0.796387 6.71924C0.796387 7.25391 1.25781 7.69336 1.75586 7.69336H6.02588V12.0513C6.02588 12.5493 6.46533 13.0034 6.99268 13.0034Z" fill="black"/>
</svg>
