<svg width="16" height="11" viewBox="0 0 16 11" fill="none" xmlns="http://www.w3.org/2000/svg">
<path d="M1.34229 2.02051H2.59473C2.99756 2.02051 3.32715 1.69092 3.32715 1.29541C3.32715 0.885254 2.99756 0.562988 2.59473 0.562988H1.34229C0.939453 0.562988 0.617188 0.885254 0.617188 1.29541C0.617188 1.69092 0.939453 2.02051 1.34229 2.02051ZM5.50977 1.88135H14.7822C15.1118 1.88135 15.3755 1.625 15.3755 1.29541C15.3755 0.958496 15.1118 0.702148 14.7822 0.702148H5.50977C5.17285 0.702148 4.9165 0.958496 4.9165 1.29541C4.9165 1.625 5.17285 1.88135 5.50977 1.88135ZM1.34229 6.45166H2.59473C2.99756 6.45166 3.32715 6.12207 3.32715 5.71924C3.32715 5.31641 2.99756 4.99414 2.59473 4.99414H1.34229C0.939453 4.99414 0.617188 5.31641 0.617188 5.71924C0.617188 6.12207 0.939453 6.45166 1.34229 6.45166ZM5.50977 6.3125H14.7822C15.1118 6.3125 15.3755 6.04883 15.3755 5.71924C15.3755 5.38965 15.1118 5.1333 14.7822 5.1333H5.50977C5.17285 5.1333 4.9165 5.38965 4.9165 5.71924C4.9165 6.04883 5.17285 6.3125 5.50977 6.3125ZM1.34229 10.8755H2.59473C2.99756 10.8755 3.32715 10.5459 3.32715 10.1504C3.32715 9.74023 2.99756 9.41797 2.59473 9.41797H1.34229C0.939453 9.41797 0.617188 9.74023 0.617188 10.1504C0.617188 10.5459 0.939453 10.8755 1.34229 10.8755ZM5.50977 10.7363H14.7822C15.1118 10.7363 15.3755 10.48 15.3755 10.1504C15.3755 9.81348 15.1118 9.55713 14.7822 9.55713H5.50977C5.17285 9.55713 4.9165 9.81348 4.9165 10.1504C4.9165 10.48 5.17285 10.7363 5.50977 10.7363Z" fill="black"/>
</svg>
