<svg
        width="16"
        height="17"
        viewBox="0 0 16 17"
        fill="none"
        xmlns="http://www.w3.org/2000/svg"
>
    <path
            d="M13.0126 9.0708L7.58533 14.498C6.23035 15.8604 4.41395 15.7358 3.24939 14.5566C2.0702 13.3921 1.95301 11.583 3.31531 10.2207L10.7494 2.7793C11.5258 2.00293 12.6976 1.8418 13.4667 2.61084C14.243 3.38721 14.0746 4.55176 13.2982 5.32812L5.974 12.667C5.68104 12.96 5.32947 12.8794 5.12439 12.6816C4.93396 12.4766 4.8534 12.1323 5.14637 11.832L10.2513 6.72705C10.537 6.44141 10.5516 6.0166 10.2733 5.73828C9.995 5.46729 9.5702 5.47461 9.28455 5.76025L4.1576 10.8945C3.33729 11.7148 3.37391 12.9746 4.099 13.707C4.89002 14.498 6.09119 14.4761 6.9115 13.6558L14.2797 6.2876C15.7372 4.83008 15.6859 2.91113 14.4042 1.62207C13.1444 0.369629 11.1962 0.289062 9.73865 1.74658L2.24598 9.24658C0.356328 11.1362 0.48084 13.8682 2.20936 15.5967C3.93787 17.3252 6.6698 17.4497 8.56678 15.5601L14.0306 10.0962C14.309 9.8252 14.309 9.31982 14.0233 9.05615C13.7523 8.76318 13.2982 8.79248 13.0126 9.0708Z"
            fill="black"
    />
</svg>
