<svg width="12" height="7" viewBox="0 0 12 7" fill="none" xmlns="http://www.w3.org/2000/svg">
  <path d="M6.13477 6.80029C6.29346 6.80029 6.45215 6.73682 6.56006 6.61621L11.4731 1.58252C11.5811 1.47461 11.6445 1.33496 11.6445 1.17627C11.6445 0.846191 11.397 0.592285 11.0669 0.592285C10.9082 0.592285 10.7622 0.655762 10.6543 0.757324L6.13477 5.37842L1.60889 0.757324C1.50732 0.655762 1.36133 0.592285 1.19629 0.592285C0.866211 0.592285 0.618652 0.846191 0.618652 1.17627C0.618652 1.33496 0.682129 1.47461 0.790039 1.58887L5.70312 6.61621C5.82373 6.73682 5.96973 6.80029 6.13477 6.80029Z" fill="#8E8E93"/>
</svg>
