<svg width="1176" height="364" viewBox="0 0 1176 364" fill="none" xmlns="http://www.w3.org/2000/svg">
<g clip-path="url(#clip0)">
<rect width="1176" height="1176" transform="translate(0 -270)" fill="#FF94A7"/>
<g opacity="0.1">
<path d="M1082.97 202.389L1158.92 210.372C1162.98 210.799 1167.03 208.243 1167.51 203.655C1167.99 199.068 1164.56 195.727 1160.5 195.3L1086.71 187.544C1084.68 187.331 1083.52 185.752 1083.43 183.489L1083.21 176.708L1162.77 185.07C1173.65 186.213 1180.29 180.418 1183.08 169.581L1190.43 140.606C1190.73 139.643 1190.99 138.477 1191.09 137.495C1191.61 132.514 1188.78 128.638 1182.48 127.977L1081.04 117.315L1080.85 112.259C1080.64 105.347 1077.73 101.53 1069.34 100.648L1047.92 98.3959C1043.33 97.9137 1038.98 101.432 1038.5 106.085C1038 110.803 1041.52 115.148 1046.11 115.63L1063.67 117.476L1066.38 183.088C1066.81 194.132 1072.09 201.246 1082.97 202.389ZM1172.32 142.081L1166.43 166.638C1165.87 168.832 1164.55 170.019 1162.45 169.798L1082.64 161.409L1081.56 132.542L1172.32 142.081ZM1085.09 237.661C1092.23 238.412 1098.6 233.317 1099.36 226.108C1100.11 218.966 1094.95 212.593 1087.8 211.842C1080.73 211.098 1074.29 216.252 1073.54 223.395C1072.78 230.603 1078.01 236.917 1085.09 237.661ZM1144.26 243.88C1151.34 244.624 1157.71 239.529 1158.47 232.321C1159.22 225.178 1154.06 218.805 1146.98 218.061C1139.84 217.311 1133.4 222.464 1132.65 229.607C1131.89 236.816 1137.12 243.13 1144.26 243.88Z" fill="black"/>
<path d="M610.996 45.2557L607.833 -31.0471C607.664 -35.1289 604.546 -38.7587 599.938 -38.5677C595.329 -38.3767 592.522 -34.5013 592.691 -30.4195L595.764 43.7108C595.849 45.7517 594.455 47.1284 592.23 47.5504L585.553 48.7504L582.24 -31.1734C581.787 -42.102 575.087 -47.8256 563.959 -49.013L534.221 -52.067C533.226 -52.2236 532.035 -52.3062 531.048 -52.2652C526.044 -52.0578 522.623 -48.6846 522.885 -42.3644L527.109 59.5483L522.135 60.4799C515.327 61.6854 511.974 65.1217 512.323 73.5486L513.216 95.0767C513.407 99.6851 517.52 103.472 522.195 103.278C526.935 103.081 530.721 98.9675 530.53 94.359L529.799 76.7152L594.317 64.4785C605.18 62.4455 611.449 56.1844 610.996 45.2557ZM538.318 -34.3649L563.472 -32.1101C565.724 -31.8737 567.09 -30.7432 567.177 -28.6365L570.501 51.5506L542.098 56.8167L538.318 -34.3649ZM645.583 38.0187C645.285 30.8427 639.317 25.2866 632.076 25.5868C624.9 25.8842 619.346 31.9178 619.644 39.0939C619.938 46.204 625.975 51.8232 633.151 51.5258C640.393 51.2256 645.877 45.1289 645.583 38.0187ZM643.119 -21.4304C642.824 -28.5406 636.856 -34.0966 629.614 -33.7965C622.438 -33.499 616.885 -27.4654 617.18 -20.3552C617.477 -13.1792 623.513 -7.56001 630.689 -7.85745C637.931 -8.15762 643.416 -14.2543 643.119 -21.4304Z" fill="black"/>
<path d="M23.9519 142.131L111.256 235.753C115.926 240.761 123.855 241.976 129.509 236.703C135.163 231.43 134.505 223.436 129.835 218.428L45.0167 127.472C42.6815 124.968 42.9521 121.695 45.3219 118.73L52.5067 109.916L143.953 207.98C156.458 221.389 171.229 221.358 186.682 210.723L227.848 182.151C229.286 181.264 230.89 180.07 232.102 178.94C238.241 173.215 238.912 165.189 231.681 157.434L115.075 32.39L120.386 25.7766C127.732 16.8118 128.247 8.78054 118.605 -1.55905L93.9731 -27.9735C88.7003 -33.6279 79.334 -33.955 73.5987 -28.6068C67.7827 -23.1833 67.4556 -13.817 72.7285 -8.16253L92.9161 13.486L24.1913 99.471C12.59 113.914 11.4477 128.722 23.9519 142.131ZM203.315 164.102L168.853 188.688C165.73 190.845 162.758 190.897 160.348 188.312L68.5999 89.9248L98.9873 52.2247L203.315 164.102ZM-12.1509 189.087C-3.94027 197.892 9.71617 198.447 18.6018 190.161C27.4066 181.951 27.8863 168.214 19.6757 159.409C11.5404 150.685 -2.27218 150.124 -11.077 158.335C-19.9626 166.621 -20.2862 180.363 -12.1509 189.087ZM55.8691 262.03C64.0044 270.754 77.6609 271.309 86.5465 263.023C95.3513 254.813 95.831 241.075 87.6957 232.351C79.4851 223.546 65.6725 222.986 56.8677 231.197C47.9821 239.483 47.6585 253.225 55.8691 262.03Z" fill="black"/>
<path d="M1024.17 -44.4287L1067.88 20.3858C1074.24 29.8089 1082.91 31.5301 1092.29 25.2018L1136.21 -4.42249C1145.6 -10.7508 1147.25 -19.436 1140.89 -28.859L1097.17 -93.6735C1090.82 -103.097 1082.15 -104.818 1072.76 -98.4895L1028.84 -68.8652C1019.46 -62.5369 1017.81 -53.8518 1024.17 -44.4287ZM1078.78 -86.57C1082.22 -88.8913 1084.91 -88.2617 1087.09 -85.025L1129.1 -22.7507C1131.25 -19.555 1130.86 -16.7842 1127.41 -14.4629L1124.46 -12.4732L1075.83 -84.5803L1078.78 -86.57ZM1036 -50.5647C1033.82 -53.8013 1034.24 -56.5312 1037.64 -58.8249L1065.67 -77.7269L1114.3 -5.6198L1086.28 13.2823C1082.88 15.5759 1080.16 14.9053 1078.01 11.7097L1036 -50.5647ZM1049.17 -51.8147L1055.97 -41.7361C1057.57 -39.3598 1060.31 -38.8264 1062.61 -40.3739L1070.19 -45.4863C1072.48 -47.0339 1073.01 -49.778 1071.41 -52.1543L1064.61 -62.2329C1063.01 -64.6092 1060.27 -65.1426 1057.97 -63.595L1050.39 -58.4826C1048.1 -56.9351 1047.56 -54.1909 1049.17 -51.8147Z" fill="black"/>
<path d="M688.904 122.884L684.757 182.19C683.994 193.101 689.964 199.915 701.482 200.72L753.614 204.365C765.182 205.174 771.996 199.204 772.805 187.636L773.19 182.13C785.88 182.865 796.616 173.057 797.535 159.923C798.457 146.738 789.186 135.582 776.517 134.544L776.902 129.038C777.715 117.419 771.798 110.559 760.23 109.75L708.098 106.104C696.53 105.295 689.717 111.266 688.904 122.884ZM786.421 159.146C785.962 165.713 780.593 169.906 774.066 169.602L775.641 147.072C782.006 147.517 786.888 152.478 786.421 159.146ZM702.333 125.397C702.612 121.406 704.676 119.469 708.869 119.763L757.566 123.168C761.809 123.465 763.584 125.67 763.305 129.661L759.43 185.076C759.151 189.067 757.083 191.054 752.84 190.758L704.143 187.352C699.95 187.059 698.179 184.803 698.405 181.57L702.333 125.397Z" fill="black"/>
<path d="M962.409 151.73L971.275 88.6475C972.564 79.4762 968.251 73.7059 959.12 72.4226L916.373 66.415C907.242 65.1316 901.506 69.4897 900.217 78.661L891.351 141.744C890.062 150.915 894.375 156.685 903.506 157.968L946.253 163.976C955.384 165.259 961.12 160.901 962.409 151.73ZM906.364 147.472C903.014 147.002 901.729 145.154 902.172 142.004L910.69 81.3934C911.127 78.2831 912.878 76.8213 916.227 77.2921L919.098 77.6956L909.235 147.876L906.364 147.472ZM951.896 148.992C951.453 152.142 949.708 153.564 946.399 153.099L919.124 149.266L928.987 79.0854L956.262 82.9186C959.572 83.3837 960.851 85.2714 960.414 88.3817L951.896 148.992ZM943.243 142.571L944.621 132.762C944.946 130.449 943.575 128.63 941.342 128.316L933.966 127.279C931.733 126.965 929.913 128.336 929.588 130.649L928.21 140.458C927.885 142.771 929.256 144.59 931.489 144.904L938.865 145.941C941.098 146.255 942.918 144.884 943.243 142.571Z" fill="black"/>
<path d="M497.281 274.781L525.26 347.668C530.408 361.078 541.295 365.874 555.451 360.441L619.522 335.846C633.74 330.388 638.536 319.501 633.078 305.283L630.48 298.516C645.992 292.348 653.328 274.716 647.131 258.574C640.911 242.37 623.685 234.237 608.031 240.032L605.433 233.265C599.951 218.986 589.102 214.104 574.885 219.561L510.813 244.156C496.596 249.614 491.8 260.501 497.281 274.781ZM633.473 263.817C636.571 271.888 632.507 279.859 624.57 283.119L613.941 255.429C621.764 252.427 630.327 255.622 633.473 263.817ZM514.659 270.318C512.776 265.414 514.158 261.963 519.311 259.985L579.161 237.01C584.376 235.008 587.712 236.648 589.595 241.553L615.739 309.66C617.622 314.565 616.263 318.078 611.048 320.08L551.198 343.054C546.045 345.032 542.685 343.33 541.16 339.357L514.659 270.318Z" fill="black"/>
<path d="M1060.98 402.202L1105.42 399.094C1107.8 398.928 1109.86 397.05 1109.67 394.366C1109.49 391.681 1107.18 390.109 1104.8 390.275L1061.63 393.294C1060.44 393.377 1059.61 392.587 1059.33 391.297L1058.52 387.424L1105.07 384.169C1111.43 383.724 1114.66 379.722 1115.17 373.213L1116.46 355.823C1116.53 355.24 1116.56 354.544 1116.52 353.969C1116.32 351.055 1114.29 349.116 1110.61 349.373L1051.26 353.524L1050.63 350.639C1049.82 346.689 1047.76 344.791 1042.85 345.134L1030.31 346.011C1027.63 346.199 1025.49 348.66 1025.68 351.382C1025.87 354.143 1028.33 356.283 1031.01 356.095L1041.29 355.376L1049.49 392.794C1050.86 399.095 1054.61 402.647 1060.98 402.202ZM1106.2 358.505L1105.3 373.209C1105.2 374.527 1104.57 375.342 1103.34 375.427L1056.64 378.693L1053.1 362.219L1106.2 358.505ZM1065.77 422.249C1069.95 421.957 1073.09 418.385 1072.8 414.167C1072.51 409.988 1068.89 406.85 1064.72 407.142C1060.57 407.432 1057.4 411.044 1057.69 415.224C1057.98 419.441 1061.63 422.539 1065.77 422.249ZM1100.4 419.828C1104.54 419.538 1107.68 415.967 1107.38 411.749C1107.09 407.569 1103.48 404.431 1099.34 404.721C1095.16 405.013 1091.98 408.626 1092.28 412.805C1092.57 417.023 1096.22 420.12 1100.4 419.828Z" fill="black"/>
<path d="M170.532 336.537L106.355 418.68C97.025 430.622 98.4154 442.328 110.306 451.618L165.968 495.106C177.858 504.395 189.552 502.913 198.883 490.97L263.06 408.828C272.39 396.885 271 385.18 259.109 375.89L203.447 332.402C191.557 323.112 179.863 324.595 170.532 336.537ZM246.472 388.426C250.833 391.834 251.143 395.504 247.939 399.606L186.277 478.529C183.113 482.579 179.436 483.219 175.074 479.811L171.336 476.89L242.733 385.505L246.472 388.426ZM183.19 349.019C186.395 344.917 190.031 344.33 194.341 347.697L229.856 375.445L158.459 466.829L122.943 439.082C118.633 435.715 118.364 431.992 121.528 427.942L183.19 349.019ZM190.2 365.198L180.22 377.971C177.867 380.983 178.321 384.683 181.229 386.954L190.835 394.459C193.743 396.731 197.442 396.277 199.795 393.265L209.775 380.492C212.128 377.481 211.673 373.781 208.766 371.509L199.16 364.004C196.252 361.733 192.552 362.187 190.2 365.198Z" fill="black"/>
<path d="M857.517 -14.0161L841.059 -117.927C838.666 -133.034 829.069 -140.065 814.028 -137.682L743.615 -126.53C728.574 -124.148 721.619 -114.495 724.012 -99.3881L740.47 4.52237C742.862 19.6295 752.46 26.6604 767.501 24.2781L837.913 13.1259C852.955 10.7436 859.909 1.09102 857.517 -14.0161ZM766.946 6.32133C761.429 7.19519 758.506 4.89751 757.685 -0.291443L741.872 -100.13C741.06 -105.253 743.119 -108.407 748.637 -109.281L753.366 -110.03L771.675 5.5723L766.946 6.32133ZM839.591 -13.2642C840.413 -8.07523 838.344 -4.98691 832.892 -4.12344L787.965 2.99232L769.655 -112.61L814.582 -119.725C820.034 -120.589 822.967 -118.226 823.778 -113.102L839.591 -13.2642ZM822.824 -19.2269L820.265 -35.3849C819.662 -39.1945 816.618 -41.4057 812.94 -40.8231L800.788 -38.8985C797.11 -38.3159 794.899 -35.2725 795.502 -31.4629L798.062 -15.3049C798.665 -11.4953 801.708 -9.28407 805.387 -9.86664L817.538 -11.7912C821.216 -12.3738 823.427 -15.4172 822.824 -19.2269Z" fill="black"/>
<path d="M330.863 337.305C335.671 352.102 346.477 357.685 361.427 352.878L420.83 333.526C435.779 328.72 441.179 317.82 436.433 303.054L406.808 212.036C404.3 204.316 401.691 201.76 393.898 197.789L370.823 186.032C363.638 182.371 359.908 182.618 351.484 185.304L330.621 192.083C322.226 194.861 319.064 196.854 315.403 204.038L303.646 227.114C299.675 234.907 298.822 238.537 301.36 246.349L330.863 337.305ZM347.517 329.456L318.641 240.429C318.074 238.683 318.144 237.492 319.168 235.483L330.584 213.077C331.452 211.372 332.713 210.404 334.275 209.896L358.998 201.863C360.56 201.356 362.149 201.398 363.854 202.267L386.259 213.683C388.086 214.614 388.781 215.658 389.347 217.557L418.346 306.493C419.957 311.608 418.402 315.111 412.98 316.873L357.959 334.699C352.537 336.461 349.25 334.633 347.517 329.456ZM351.398 244.926C356.817 247.687 363.005 245.625 365.735 240.267C368.434 234.97 366.495 228.691 361.077 225.93C355.719 223.2 349.438 225.291 346.739 230.588C344.009 235.946 346.04 242.196 351.398 244.926Z" fill="black"/>
<path d="M334.866 -70.5206L266.221 -18.7935C253.592 -9.27637 251.82 3.70101 261.866 17.0323L307.337 77.3737C317.426 90.7635 330.404 92.535 343.794 82.4451L350.167 77.6425C361.401 92.1864 382.287 94.599 397.49 83.1432C412.75 71.6434 416.13 50.9457 405.246 36.1374L411.619 31.3348C425.067 21.2009 426.942 8.23791 416.852 -5.15181L371.381 -65.4933C361.291 -78.883 348.314 -80.6546 334.866 -70.5206ZM387.796 70.2797C380.195 76.0076 370.527 74.126 364.667 66.7155L390.745 47.0645C396.297 54.4317 395.514 64.4637 387.796 70.2797ZM344.861 -53.4847C349.48 -56.9655 353.552 -56.5501 357.209 -51.697L399.683 4.66844C403.385 9.57995 402.662 13.6083 398.042 17.0891L333.9 65.4236C329.281 68.9044 325.151 68.5331 321.45 63.6215L278.976 7.25607C275.319 2.40303 276.1 -1.6694 279.842 -4.48928L344.861 -53.4847Z" fill="black"/>
<path d="M969.029 265.026L885.738 214.98C870.414 205.772 856.06 209.411 846.341 225.587L802.348 298.804C792.586 315.05 796.225 329.403 812.472 339.165L820.205 343.812C809.718 361.747 816.034 384.662 834.48 395.745C852.997 406.871 876.124 401.648 887.036 383.968L894.77 388.615C911.087 398.42 925.469 394.894 935.231 378.648L979.224 305.431C988.986 289.184 985.347 274.831 969.029 265.026ZM843.859 380.137C834.636 374.595 832.513 363.664 837.8 354.384L869.442 373.396C864.07 382.336 853.223 385.764 843.859 380.137ZM955.405 282.718C961.01 286.086 962.299 290.53 958.761 296.418L917.666 364.811C914.086 370.77 909.557 371.718 903.952 368.351L826.124 321.587C820.519 318.219 819.159 313.733 822.74 307.773L863.834 239.381C867.373 233.492 871.972 232.587 876.513 235.315L955.405 282.718Z" fill="black"/>
</g>
</g>
<defs>
<clipPath id="clip0">
<rect width="1176" height="1176" fill="white" transform="translate(0 -270)"/>
</clipPath>
</defs>
</svg>
