<svg width="64" height="63" viewBox="0 0 64 63" fill="none" xmlns="http://www.w3.org/2000/svg">
<path d="M24.7578 62.2227C26.8672 62.2227 28.5195 61.3789 29.6797 59.6562L62.5859 8.89062C63.4297 7.625 63.7812 6.46484 63.7812 5.375C63.7812 2.49219 61.6719 0.417969 58.7188 0.417969C56.6797 0.417969 55.4492 1.12109 54.2188 3.08984L24.6172 49.918L9.5 30.8633C8.30469 29.4219 7.07422 28.7539 5.31641 28.7539C2.32812 28.7539 0.183594 30.8633 0.183594 33.7812C0.183594 35.0469 0.605469 36.2422 1.69531 37.5078L19.8711 59.832C21.2422 61.4844 22.7539 62.2227 24.7578 62.2227Z" fill="#8E8E93"/>
</svg>
