<svg width="16" height="16" viewBox="0 0 16 16" xmlns="http://www.w3.org/2000/svg">
<path d="M8 15.1826C12.0869 15.1826 15.4707 11.7915 15.4707 7.71191C15.4707 3.625 12.0796 0.241211 7.99268 0.241211C3.91309 0.241211 0.529297 3.625 0.529297 7.71191C0.529297 11.7915 3.92041 15.1826 8 15.1826ZM7.92676 5.03857C7.37744 5.03857 6.93799 4.59912 6.93799 4.04248C6.93799 3.48584 7.37744 3.04639 7.92676 3.04639C8.47607 3.04639 8.9082 3.48584 8.9082 4.04248C8.9082 4.59912 8.47607 5.03857 7.92676 5.03857ZM6.67432 11.8794C6.35938 11.8794 6.11768 11.6523 6.11768 11.3374C6.11768 11.0444 6.35938 10.8027 6.67432 10.8027H7.60449V7.36035H6.79883C6.49121 7.36035 6.24951 7.1333 6.24951 6.81836C6.24951 6.52539 6.49121 6.28369 6.79883 6.28369H8.21973C8.60791 6.28369 8.81299 6.56201 8.81299 6.97217V10.8027H9.74316C10.0581 10.8027 10.2998 11.0444 10.2998 11.3374C10.2998 11.6523 10.0581 11.8794 9.74316 11.8794H6.67432Z" />
</svg>
