<svg width="36" height="40" viewBox="0 0 36 40" fill="none" xmlns="http://www.w3.org/2000/svg">
<path d="M18 39.6113C27.6455 39.6113 35.5811 31.6758 35.5811 22.0303C35.5811 18.3447 34.4355 14.9082 32.4766 12.0859L33.8711 10.6914C34.3691 10.1934 34.6182 9.66211 34.6182 9.06445C34.6182 7.90234 33.7051 6.97266 32.5264 6.97266C31.8291 6.97266 31.3311 7.17188 30.833 7.63672L29.5879 8.83203C26.998 6.55762 23.7441 5.01367 20.1748 4.56543V2.75586C20.1748 1.51074 19.2119 0.564453 18 0.564453C16.8213 0.564453 15.8086 1.51074 15.8086 2.75586V4.56543C7.15918 5.64453 0.402344 13.0986 0.402344 22.0303C0.402344 31.6758 8.33789 39.6113 18 39.6113ZM18 35.0957C10.7451 35.0957 4.93457 29.2686 4.93457 22.0303C4.93457 14.7754 10.7451 8.94824 17.9834 8.94824C25.2217 8.94824 31.0654 14.7754 31.0654 22.0303C31.082 29.2686 25.2383 35.0957 18 35.0957ZM18 25.251C19.7598 25.251 21.2041 23.8066 21.2041 22.0303C21.2041 20.8682 20.5898 19.8555 19.627 19.291V12.7002C19.627 11.7871 18.9131 11.0566 17.9834 11.0566C17.0703 11.0566 16.3398 11.7871 16.3398 12.7002V19.2744C15.3936 19.8555 14.7793 20.8682 14.7793 22.0303C14.7793 23.8066 16.207 25.251 18 25.251Z" fill="black"/>
</svg>
