<svg  viewBox="0 0 63 63" fill="none" xmlns="http://www.w3.org/2000/svg">
<path d="M31.5 63C48.7015 63 63 48.7324 63 31.5C63 14.2985 48.6706 0 31.4691 0C14.2368 0 0 14.2985 0 31.5C0 48.7324 14.2676 63 31.5 63ZM31.5 57.75C16.9235 57.75 5.28088 46.0765 5.28088 31.5C5.28088 16.9544 16.8926 5.25 31.4691 5.25C46.0147 5.25 57.7191 16.9544 57.75 31.5C57.7809 46.0765 46.0456 57.75 31.5 57.75ZM15.3176 34.8353H31.4691C32.6735 34.8353 33.6309 33.9088 33.6309 32.6735V11.8588C33.6309 10.6544 32.6735 9.72794 31.4691 9.72794C30.2647 9.72794 29.3382 10.6544 29.3382 11.8588V30.5426H15.3176C14.1132 30.5426 13.1868 31.4691 13.1868 32.6735C13.1868 33.9088 14.1132 34.8353 15.3176 34.8353Z" fill="#C7C7CC"/>
</svg>
