<svg width="20" height="19" viewBox="0 0 20 19" fill="none" xmlns="http://www.w3.org/2000/svg">
<path d="M13.2197 16.6182C13.6025 16.6182 13.8281 16.3379 13.8281 15.9141V13.9248H14.5938C16.1729 13.9248 17.2393 12.8447 17.2393 11.2041V5.27734C17.2393 3.62988 16.1729 2.65918 14.5938 2.65918H5.40625C3.75879 2.65918 2.76074 3.63672 2.76074 5.27734V11.2041C2.76074 12.8379 3.75879 13.9248 5.40625 13.9248H9.95898L12.4336 16.1807C12.7549 16.4814 12.9463 16.6182 13.2197 16.6182Z" fill="black"/>
<path d="M13.8281 13.9248V11.9248H11.8281V13.9248H13.8281ZM9.95898 13.9248L11.3064 12.4468L10.7338 11.9248H9.95898V13.9248ZM12.4336 16.1807L13.8004 14.7206L13.7908 14.7116L13.781 14.7026L12.4336 16.1807ZM13.2197 18.6182C13.9374 18.6182 14.6711 18.3344 15.1934 17.7179C15.682 17.1412 15.8281 16.4624 15.8281 15.9141H11.8281C11.8281 15.7895 11.8615 15.4628 12.1415 15.1322C12.4554 14.7618 12.8849 14.6182 13.2197 14.6182V18.6182ZM15.8281 15.9141V13.9248H11.8281V15.9141H15.8281ZM13.8281 15.9248H14.5938V11.9248H13.8281V15.9248ZM14.5938 15.9248C15.8528 15.9248 17.0534 15.4843 17.9395 14.5771C18.822 13.6735 19.2393 12.4645 19.2393 11.2041H15.2393C15.2393 11.5843 15.1233 11.7357 15.0778 11.7823C15.0359 11.8252 14.9138 11.9248 14.5938 11.9248V15.9248ZM19.2393 11.2041V5.27734H15.2393V11.2041H19.2393ZM19.2393 5.27734C19.2393 4.00918 18.8176 2.80095 17.8988 1.91262C16.9899 1.03378 15.7924 0.65918 14.5938 0.65918V4.65918C14.9742 4.65918 15.0995 4.76993 15.1185 4.78831C15.1277 4.7972 15.2393 4.89804 15.2393 5.27734H19.2393ZM14.5938 0.65918H5.40625V4.65918H14.5938V0.65918ZM5.40625 0.65918C4.18807 0.65918 2.97474 1.02762 2.06086 1.9295C1.14345 2.83486 0.760742 4.04796 0.760742 5.27734H4.76074C4.76074 5.06849 4.79254 4.93934 4.81808 4.87032C4.84195 4.80583 4.86363 4.78337 4.87053 4.77656C4.87777 4.76941 4.90385 4.7451 4.97629 4.71898C5.05305 4.6913 5.19038 4.65918 5.40625 4.65918V0.65918ZM0.760742 5.27734V11.2041H4.76074V5.27734H0.760742ZM0.760742 11.2041C0.760742 12.427 1.14011 13.6396 2.0207 14.5599C2.912 15.4913 4.12777 15.9248 5.40625 15.9248V11.9248C5.03727 11.9248 4.93028 11.8148 4.9107 11.7944C4.8804 11.7627 4.76074 11.615 4.76074 11.2041H0.760742ZM5.40625 15.9248H9.95898V11.9248H5.40625V15.9248ZM8.61161 15.4028L11.0862 17.6587L13.781 14.7026L11.3064 12.4468L8.61161 15.4028ZM11.0667 17.6407C11.3723 17.9267 12.0832 18.6182 13.2197 18.6182V14.6182C13.3241 14.6182 13.4464 14.632 13.5753 14.6688C13.7016 14.7048 13.7973 14.7523 13.8576 14.7877C13.9126 14.8201 13.9364 14.8414 13.9196 14.8277C13.9024 14.8136 13.8673 14.7832 13.8004 14.7206L11.0667 17.6407Z" fill="white"/>
</svg>
