<svg width="33" height="37" viewBox="0 0 33 37" fill="none" xmlns="http://www.w3.org/2000/svg">
<path d="M30.2441 31.8008C30.8086 32.3652 31.7217 32.3486 32.2197 31.8008C32.7676 31.2529 32.751 30.373 32.2197 29.8252L3.05078 0.689453C2.50293 0.125 1.60645 0.141602 1.05859 0.689453C0.527344 1.2207 0.560547 2.13379 1.05859 2.66504L30.2441 31.8008ZM31.7383 26.0732C32.0371 25.5586 32.1699 24.9111 32.1699 24.1641V8.20996C32.1699 6.76562 31.1904 5.78613 29.7627 5.78613C28.584 5.78613 27.1729 6.30078 24.8486 6.30078C19.2871 6.30078 14.6221 3.2959 8.81152 3.2627L13.9082 8.32617C17.4775 9.08984 20.6816 10.5342 24.666 10.5342C25.8945 10.5342 26.9736 10.418 27.8037 10.2021V22.1387L31.7383 26.0732ZM3.59863 36.7812C4.74414 36.7812 5.67383 35.8682 5.67383 34.7061V25.9072C6.20508 25.7578 7.31738 25.4258 8.84473 25.4258C14.2402 25.4258 18.3408 28.0322 23.6533 28.4141L18.125 22.8857C15.1699 22.2549 12.4639 21.1758 8.99414 21.1758C7.76562 21.1758 6.65332 21.3086 5.88965 21.5576V10.75L1.63965 6.4834C1.55664 6.68262 1.52344 6.88184 1.52344 7.18066V34.7061C1.52344 35.8516 2.45312 36.7812 3.59863 36.7812Z" fill="black"/>
</svg>
