<svg  viewBox="0 0 12 12" fill="none" xmlns="http://www.w3.org/2000/svg">
<path fill-rule="evenodd" clip-rule="evenodd" d="M8.2111 2.11574L10.7476 1.675C11.017 1.62963 11.2733 1.80463 11.3259 2.07037C11.3719 2.33611 11.1944 2.58889 10.925 2.63426L1.24539 4.31945C1.2191 4.32593 1.18632 4.32593 1.16003 4.32593C0.923465 4.32593 0.713188 4.15741 0.67376 3.92407C0.62776 3.65833 0.805097 3.40556 1.07452 3.36019L3.61114 2.91945L3.48632 2.20648C3.40747 1.75926 3.50599 1.30556 3.76885 0.936112C4.0317 0.560186 4.42595 0.31389 4.87937 0.236112L6.08856 0.0287045C6.54198 -0.0555547 7.00195 0.0481485 7.37652 0.307408C7.75766 0.566667 8.00742 0.955556 8.08628 1.40278L8.2111 2.11574ZM4.57711 1.48704C4.45883 1.64907 4.41944 1.84352 4.4523 2.03148L4.57711 2.74445L7.23855 2.28426L7.11373 1.5713C7.08087 1.38333 6.9756 1.21482 6.81131 1.10463C6.64703 0.987964 6.44999 0.949075 6.25942 0.981483L5.05023 1.18889C4.85966 1.2213 4.68883 1.325 4.57711 1.48704ZM7.9217 11.0342C8.30941 11.0342 8.63132 10.7361 8.65761 10.3602L9.10442 4.04073L10.1033 3.88517L9.63016 10.425C9.56444 11.3065 8.8154 12 7.91512 12H4.05765C3.16395 12 2.40833 11.3065 2.34262 10.425L1.96143 5.14906L2.94055 4.99999L3.32832 10.3602C3.36118 10.7361 3.68309 11.0342 4.06423 11.0342H7.9217ZM5.26061 8.48705V4.63704L4.2749 4.7926V8.48705C4.2749 8.75279 4.49833 8.97316 4.76775 8.97316C5.03718 8.97316 5.26061 8.75927 5.26061 8.48705ZM7.71829 4.25464V8.48705C7.71829 8.75927 7.49486 8.97316 7.22544 8.97316C6.95601 8.97316 6.73258 8.75279 6.73258 8.48705V4.41019L7.71829 4.25464Z" fill="#939393"/>
</svg>
