<svg width="16" height="9" viewBox="0 0 16 9" fill="none" xmlns="http://www.w3.org/2000/svg">
    <path d="M0.857422 2.08252H14.5684C14.876 2.08252 15.125 1.84082 15.125 1.5332C15.125 1.22559 14.876 0.976562 14.5684 0.976562H0.857422C0.549805 0.976562 0.308105 1.22559 0.308105 1.5332C0.308105 1.84082 0.549805 2.08252 0.857422 2.08252ZM0.857422 5.27588H14.5684C14.876 5.27588 15.125 5.03418 15.125 4.72656C15.125 4.41162 14.876 4.1626 14.5684 4.1626H0.857422C0.549805 4.1626 0.308105 4.41162 0.308105 4.72656C0.308105 5.03418 0.549805 5.27588 0.857422 5.27588ZM0.857422 8.47656H14.5684C14.876 8.47656 15.125 8.22754 15.125 7.9126C15.125 7.60498 14.876 7.36328 14.5684 7.36328H0.857422C0.549805 7.36328 0.308105 7.60498 0.308105 7.9126C0.308105 8.22754 0.549805 8.47656 0.857422 8.47656Z" fill="#C7C7CC"/>
</svg>
