<svg width="24" height="24" viewBox="0 0 24 24" fill="none" xmlns="http://www.w3.org/2000/svg">
<path fill-rule="evenodd" clip-rule="evenodd" d="M5.25 5.75C4.55964 5.75 4 6.30964 4 7C4 7.69036 4.55964 8.25 5.25 8.25C5.94036 8.25 6.5 7.69036 6.5 7C6.5 6.30964 5.94036 5.75 5.25 5.75ZM8.75 6.25C8.33579 6.25 8 6.58579 8 7C8 7.41421 8.33579 7.75 8.75 7.75H19.25C19.6642 7.75 20 7.41421 20 7C20 6.58579 19.6642 6.25 19.25 6.25H8.75ZM4 12C4 11.3096 4.55964 10.75 5.25 10.75C5.94036 10.75 6.5 11.3096 6.5 12C6.5 12.6904 5.94036 13.25 5.25 13.25C4.55964 13.25 4 12.6904 4 12ZM8.75 11.25C8.33579 11.25 8 11.5858 8 12C8 12.4142 8.33579 12.75 8.75 12.75H19.25C19.6642 12.75 20 12.4142 20 12C20 11.5858 19.6642 11.25 19.25 11.25H8.75ZM4 17C4 16.3096 4.55964 15.75 5.25 15.75C5.94036 15.75 6.5 16.3096 6.5 17C6.5 17.6904 5.94036 18.25 5.25 18.25C4.55964 18.25 4 17.6904 4 17ZM8.75 16.25C8.33579 16.25 8 16.5858 8 17C8 17.4142 8.33579 17.75 8.75 17.75H19.25C19.6642 17.75 20 17.4142 20 17C20 16.5858 19.6642 16.25 19.25 16.25H8.75Z" fill="#939393"/>
</svg>
