<svg version="1.1" xmlns="http://www.w3.org/2000/svg"  x="0px" y="0px"
	 viewBox="0 0 20.4 20.4" style="enable-background:new 0 0 20.4 20.4;" xml:space="preserve">
<path class="st0" d="M10.2,20.4c5.6,0,10.2-4.6,10.2-10.2C20.4,4.6,15.8,0,10.2,0C4.6,0,0,4.6,0,10.2C0,15.8,4.6,20.4,10.2,20.4z
	 M10.2,18.1c-4.4,0-7.9-3.5-7.9-7.9c0-4.4,3.5-7.9,7.9-7.9c4.4,0,7.9,3.5,7.9,7.9C18.1,14.6,14.6,18.1,10.2,18.1z M10.2,14.8
	c0.6,0,1-0.4,1-1.1v-2.5h2.7c0.6,0,1.1-0.4,1.1-1c0-0.6-0.4-1-1.1-1h-2.7V6.5c0-0.6-0.4-1.1-1-1.1s-1,0.4-1,1.1v2.7H6.5
	c-0.6,0-1.1,0.4-1.1,1c0,0.6,0.4,1,1.1,1h2.7v2.5C9.2,14.4,9.6,14.8,10.2,14.8z"/>
</svg>
