<svg width="14" height="15" viewBox="0 0 14 15" fill="none" xmlns="http://www.w3.org/2000/svg">
<path d="M5.73291 11.894C6.95605 11.894 8.08398 11.4985 9.00684 10.8394L12.4785 14.311C12.6396 14.4722 12.8521 14.5527 13.0791 14.5527C13.5552 14.5527 13.8921 14.1865 13.8921 13.7178C13.8921 13.498 13.8188 13.293 13.6577 13.1318L10.208 9.6748C10.9331 8.72266 11.3652 7.54346 11.3652 6.26172C11.3652 3.16357 8.83105 0.629395 5.73291 0.629395C2.64209 0.629395 0.100586 3.15625 0.100586 6.26172C0.100586 9.35986 2.63477 11.894 5.73291 11.894ZM5.73291 10.6782C3.31592 10.6782 1.31641 8.67871 1.31641 6.26172C1.31641 3.84473 3.31592 1.84521 5.73291 1.84521C8.1499 1.84521 10.1494 3.84473 10.1494 6.26172C10.1494 8.67871 8.1499 10.6782 5.73291 10.6782Z" fill="#8E8E93"/>
</svg>
