<svg width="24" height="23" viewBox="0 0 24 23" fill="none" xmlns="http://www.w3.org/2000/svg">
<g filter="url(#filter0_d)">
<path d="M18.4375 7.46875C19.0234 7.46875 19.3359 7.14844 19.3359 6.5625V4.67969C19.3359 2.95312 18.4062 2.03125 16.6641 2.03125H14.7812C14.1953 2.03125 13.875 2.35156 13.875 2.92188C13.875 3.5 14.1953 3.82031 14.7812 3.82031H16.5078C17.1719 3.82031 17.5469 4.16406 17.5469 4.86719V6.5625C17.5469 7.14844 17.8594 7.46875 18.4375 7.46875ZM5.54688 7.46875C6.13281 7.46875 6.44531 7.14062 6.44531 6.5625V4.86719C6.44531 4.16406 6.80469 3.82031 7.48438 3.82031H9.21094C9.79688 3.82031 10.1094 3.5 10.1094 2.92188C10.1094 2.35156 9.79688 2.03125 9.21094 2.03125H7.32031C5.58594 2.03125 4.65625 2.95312 4.65625 4.67969V6.5625C4.65625 7.14844 4.97656 7.46875 5.54688 7.46875ZM7.32031 16.7109H9.21094C9.79688 16.7109 10.1094 16.3906 10.1094 15.8125C10.1094 15.2344 9.78906 14.9219 9.21094 14.9219H7.48438C6.80469 14.9219 6.44531 14.5781 6.44531 13.8672V12.1797C6.44531 11.5938 6.125 11.2734 5.54688 11.2734C4.96875 11.2734 4.65625 11.5938 4.65625 12.1797V14.0625C4.65625 15.7891 5.58594 16.7109 7.32031 16.7109ZM14.7812 16.7109H16.6641C18.4062 16.7109 19.3359 15.7812 19.3359 14.0625V12.1797C19.3359 11.5938 19.0156 11.2734 18.4375 11.2734C17.8594 11.2734 17.5469 11.5938 17.5469 12.1797V13.8672C17.5469 14.5781 17.1719 14.9219 16.5078 14.9219H14.7812C14.1953 14.9219 13.875 15.2344 13.875 15.8125C13.875 16.3906 14.1953 16.7109 14.7812 16.7109Z" fill="white"/>
</g>
<defs>
<filter id="filter0_d" x="0.65625" y="0.03125" width="22.6797" height="22.6797" filterUnits="userSpaceOnUse" color-interpolation-filters="sRGB">
<feFlood flood-opacity="0" result="BackgroundImageFix"/>
<feColorMatrix in="SourceAlpha" type="matrix" values="0 0 0 0 0 0 0 0 0 0 0 0 0 0 0 0 0 0 127 0"/>
<feOffset dy="2"/>
<feGaussianBlur stdDeviation="2"/>
<feColorMatrix type="matrix" values="0 0 0 0 0 0 0 0 0 0 0 0 0 0 0 0 0 0 0.25 0"/>
<feBlend mode="normal" in2="BackgroundImageFix" result="effect1_dropShadow"/>
<feBlend mode="normal" in="SourceGraphic" in2="effect1_dropShadow" result="shape"/>
</filter>
</defs>
</svg>
