<svg width="14" height="15" viewBox="0 0 14 15" fill="none" xmlns="http://www.w3.org/2000/svg">
<path d="M6.73047 14.0503C10.3931 14.0503 13.3638 11.0796 13.3638 7.41699C13.3638 3.76074 10.3994 0.783691 6.73682 0.783691C6.29883 0.783691 6.03223 1.04395 6.03223 1.46289V3.70361C6.03223 4.06543 6.28613 4.33838 6.64795 4.33838C7.00977 4.33838 7.26367 4.06543 7.26367 3.70361V2.27539C9.87256 2.54834 11.8721 4.73828 11.8721 7.41699C11.8721 10.2607 9.59326 12.5649 6.73047 12.5649C3.87402 12.5649 1.58252 10.2607 1.58887 7.41699C1.59521 6.22998 2.00781 5.11279 2.69971 4.24316C2.97266 3.84326 3.02979 3.4624 2.70605 3.14502C2.39502 2.84033 1.88086 2.87207 1.55713 3.31006C0.649414 4.43994 0.097168 5.87451 0.097168 7.41699C0.097168 11.0796 3.06787 14.0503 6.73047 14.0503ZM7.75244 8.4834C8.29834 7.91846 8.18408 7.13135 7.54297 6.70605L4.42627 4.59229C3.99463 4.30664 3.58838 4.71289 3.87402 5.14453L5.98779 8.25488C6.41309 8.90234 7.2002 9.02295 7.75244 8.4834Z" fill="#68B1FF"/>
</svg>
