<svg
        width="24"
        height="26"
        viewBox="0 0 24 26"
        fill="none"
        xmlns="http://www.w3.org/2000/svg"
>
    <rect x="10" y="7" width="4" height="14" fill="black" />
    <path
            d="M3.58887 23.1162H20.4111C22.1621 23.1162 23.3545 21.752 23.3545 20.1621C23.3545 19.668 23.2363 19.1738 22.9678 18.7012L14.5459 3.61914C13.9873 2.63086 12.999 2.13672 12 2.13672C11.001 2.13672 9.98047 2.63086 9.44336 3.61914L1.02148 18.7119C0.75293 19.1631 0.634766 19.668 0.634766 20.1621C0.634766 21.752 1.82715 23.1162 3.58887 23.1162ZM12.0107 15.543C11.2588 15.543 10.8291 15.124 10.7861 14.3721L10.6143 10.1182C10.582 9.32324 11.1514 8.77539 11.9893 8.77539C12.8379 8.77539 13.418 9.33398 13.375 10.1289L13.2031 14.3613C13.1602 15.1348 12.7412 15.543 12.0107 15.543ZM12.0107 19.6895C11.1191 19.6895 10.5068 19.1631 10.5068 18.3467C10.5068 17.541 11.1084 17.0254 12.0107 17.0254C12.8701 17.0254 13.4932 17.541 13.4932 18.3467C13.4932 19.1738 12.8809 19.6895 12.0107 19.6895Z"
            fill="#FFCC00"
    />
</svg>