<svg width="18" height="20" viewBox="0 0 18 20" fill="none" xmlns="http://www.w3.org/2000/svg">
<path d="M14.9854 18.9512C15.6709 18.793 16.3564 18.3447 16.3564 17.501C16.3564 17.1582 16.2686 16.9209 16.1455 16.7188C16.0752 16.6045 16.0928 16.5166 16.1895 16.4727C16.7432 16.2266 17.209 15.7344 17.209 15.0225C17.209 14.627 17.0947 14.2666 16.9014 14.0117C16.7959 13.8799 16.8223 13.7744 16.9805 13.6777C17.3848 13.4492 17.6484 12.9395 17.6484 12.3594C17.6484 11.9551 17.5166 11.5068 17.2705 11.2871C17.1387 11.1641 17.165 11.0762 17.3232 10.9531C17.6045 10.7334 17.7627 10.3115 17.7627 9.81055C17.7627 8.94922 17.0947 8.25488 16.2246 8.25488H13.0869C12.2871 8.25488 11.7598 7.8418 11.7598 7.19141C11.7598 5.97852 13.2539 3.79883 13.2539 2.22559C13.2539 1.4082 12.7178 0.916016 12.0234 0.916016C11.3906 0.916016 11.0654 1.35547 10.7227 2.02344C9.42188 4.60742 7.64648 6.69043 6.29297 8.47461C5.15039 10.0039 4.58789 11.2871 4.56152 13.3965C4.51758 16.6396 7.14551 19.1094 11.2764 19.1445L12.498 19.1533C13.6494 19.1621 14.4932 19.0742 14.9854 18.9512ZM0.237305 13.458C0.237305 16.0947 1.88086 18.3008 4.07812 18.3008H5.65137C4.06055 17.1406 3.33105 15.3828 3.36621 13.3701C3.40137 11.1377 4.2627 9.54688 5.04492 8.58008H3.75293C1.7666 8.58008 0.237305 10.7246 0.237305 13.458Z" fill="black"/>
</svg>
