<svg width="38" height="41" viewBox="0 0 38 41" fill="none" xmlns="http://www.w3.org/2000/svg">
<path d="M22.9844 40.79H25.375C27.6328 40.79 29.5918 40.6572 30.8701 40.3418C33.46 39.6777 35.1367 37.7852 35.1367 35.4775C35.1367 35.1123 35.0703 34.7803 34.9541 34.415C36.1494 33.4854 36.8135 32.124 36.8135 30.6133C36.8135 29.9326 36.6807 29.2852 36.4316 28.7539C37.2285 27.8906 37.6768 26.6953 37.6768 25.417C37.6768 24.5703 37.4775 23.7734 37.1123 23.126C37.627 22.3457 37.8926 21.333 37.8926 20.2041C37.8926 17.3652 35.8008 15.2568 33.0117 15.2568H26.5869C26.2217 15.2568 26.0723 15.0244 26.1387 14.709C26.4707 12.833 28.9609 8.88184 28.9609 5.54492C28.9609 2.85547 27.0518 0.896484 24.4453 0.896484C22.5693 0.896484 21.2412 1.89258 20.0459 4.2002C17.8379 8.5166 14.999 12.2021 11.6787 16.3857H8.3252C3.67676 16.3857 0.107422 21.3828 0.107422 27.7578C0.107422 34.0166 4.00879 39.0469 8.97266 39.0469H15.0986C17.3398 40.1426 20.0293 40.79 22.9844 40.79ZM25.4082 37.3037L23.0176 37.2871C16.0117 37.2207 11.2471 33.2861 11.2471 27.625C11.2471 24.0059 12.0439 21.7314 14.3516 18.627C16.958 15.1738 20.5439 10.9902 23.1504 5.79395C23.7314 4.64844 24.0469 4.38281 24.4785 4.38281C25.1094 4.38281 25.458 4.79785 25.458 5.54492C25.458 8.21777 22.5361 12.4512 22.5361 15.2734C22.5361 17.3652 24.2295 18.7598 26.5371 18.7598H32.7959C33.709 18.7598 34.4062 19.4736 34.4062 20.4199C34.4062 21.0508 34.124 21.4326 33.709 21.8477C33.3105 22.2461 33.1279 22.6113 33.1279 22.9932C33.1279 23.3584 33.2773 23.707 33.543 23.9727C33.9414 24.5039 34.207 24.8525 34.207 25.417C34.207 26.0312 33.8418 26.5791 33.2607 26.9775C32.7461 27.3428 32.4473 27.8242 32.4473 28.3389C32.4473 28.6211 32.5801 28.9199 32.7129 29.1855C33.0283 29.7998 33.2109 30.1152 33.2109 30.6631C33.2109 31.4434 32.7461 31.875 31.833 32.373C31.3018 32.6553 31.0195 33.0869 31.0195 33.6016C31.0195 33.8506 31.1191 34.0996 31.2188 34.3486C31.4844 34.9795 31.5342 35.1289 31.5342 35.4775C31.5342 36.1582 31.0029 36.6895 29.9238 36.9551C28.9443 37.2041 27.3672 37.3203 25.4082 37.3037ZM9.18848 35.6768C6.00098 35.6768 3.47754 32.2402 3.47754 27.7578C3.47754 23.1924 5.71875 19.7393 8.54102 19.7393H9.50391C8.27539 22.1465 7.76074 24.6367 7.76074 27.625C7.76074 30.7627 8.82324 33.5186 10.7158 35.6768H9.18848Z" fill="black"/>
</svg>
