<svg width="16" height="15" viewBox="0 0 16 15" fill="none" xmlns="http://www.w3.org/2000/svg">
<path d="M8.12 15.1826C12.2069 15.1826 15.5907 11.7988 15.5907 7.71191C15.5907 3.63232 12.2142 0.241211 8.12732 0.241211C7.73914 0.241211 7.54871 0.475586 7.54871 0.856445V3.69824C7.54871 4.01318 7.76844 4.26953 8.08338 4.26953C8.40564 4.26953 8.62537 4.01318 8.62537 3.69824V1.5083C11.848 1.76465 14.3383 4.43066 14.3383 7.71191C14.3383 11.1689 11.577 13.9375 8.12 13.9375C4.66297 13.9375 1.88709 11.1689 1.89441 7.71191C1.90174 6.17383 2.45105 4.7749 3.37391 3.69824C3.59363 3.4126 3.60828 3.06836 3.36658 2.81201C3.12488 2.54834 2.72205 2.57031 2.45105 2.8999C1.33777 4.20361 0.649297 5.88818 0.649297 7.71191C0.649297 11.7988 4.04041 15.1826 8.12 15.1826ZM9.29187 8.83984C9.87049 8.23926 9.7533 7.41895 9.0575 6.93555L5.18299 4.23291C4.81678 3.97656 4.43592 4.35742 4.69227 4.72363L7.3949 8.59814C7.88562 9.29395 8.69861 9.41846 9.29187 8.83984Z" fill="white"/>
</svg>
