<svg width="18" height="21" viewBox="0 0 18 21" fill="none" xmlns="http://www.w3.org/2000/svg">
<path d="M3.41406 20.2969H11C12.6172 20.2969 13.375 19.4766 13.375 17.8438V16.3984H14.8984C16.5156 16.3984 17.3203 15.5781 17.3203 13.9453V7.40625C17.3203 6.44531 17.1328 5.83594 16.5469 5.23438L12.6016 1.21875C12.0391 0.648438 11.3906 0.445312 10.5547 0.445312H7.35938C5.75 0.445312 4.9375 1.26562 4.9375 2.89844V4.34375H3.41406C1.80469 4.34375 0.992188 5.16406 0.992188 6.79688V17.8438C0.992188 19.4844 1.79688 20.2969 3.41406 20.2969ZM13.375 11.5469C13.375 10.5469 13.2656 10.1094 12.6406 9.46875L8.32812 5.08594C7.74219 4.47656 7.25 4.34375 6.36719 4.34375H6.19531V2.91406C6.19531 2.14844 6.60938 1.70312 7.42188 1.70312H10.7188V5.78906C10.7188 6.6875 11.1562 7.125 12.0547 7.125H16.0625V13.9297C16.0625 14.7031 15.6484 15.1406 14.8359 15.1406H13.375V11.5469ZM12.2344 5.99219C11.9609 5.99219 11.8516 5.875 11.8516 5.60156V1.95312L15.8125 5.99219H12.2344ZM3.46875 19.0391C2.66406 19.0391 2.25 18.6016 2.25 17.8203V6.8125C2.25 6.04688 2.66406 5.60156 3.47656 5.60156H6.19531V10.1328C6.19531 11.1172 6.69531 11.6016 7.66406 11.6016H12.1172V17.8203C12.1172 18.6016 11.7031 19.0391 10.8906 19.0391H3.46875ZM7.8125 10.4219C7.5 10.4219 7.375 10.2969 7.375 9.99219V5.84375L11.875 10.4219H7.8125Z" fill="#939393"/>
</svg>
