<svg width="18" height="15" viewBox="0 0 18 15" fill="none" xmlns="http://www.w3.org/2000/svg">
<path d="M3.16748 14.4648H15.604C16.9224 14.4648 17.6841 13.7031 17.6841 12.1943V4.48193C17.6841 2.97314 16.915 2.21875 15.3843 2.21875H8.25781C7.75977 2.21875 7.4668 2.09424 7.10059 1.78662L6.65381 1.41309C6.17041 1.01025 5.78955 0.871094 5.07178 0.871094H2.88916C1.60742 0.871094 0.867676 1.60352 0.867676 3.08301V12.1943C0.867676 13.7104 1.63672 14.4648 3.16748 14.4648ZM2.04688 3.1416C2.04688 2.4165 2.42773 2.05029 3.13086 2.05029H4.76416C5.25488 2.05029 5.54785 2.16748 5.92139 2.48975L6.36816 2.85596C6.84424 3.25146 7.23242 3.39795 7.95752 3.39795H15.3696C16.0947 3.39795 16.5049 3.78613 16.5049 4.54785V4.9873H2.04688V3.1416ZM3.18213 13.2856C2.44971 13.2856 2.04688 12.8975 2.04688 12.1357V6.09326H16.5049V12.1431C16.5049 12.8975 16.0947 13.2856 15.3696 13.2856H3.18213Z" fill="black"/>
</svg>
