<svg width="22" height="15" viewBox="0 0 22 15" fill="none" xmlns="http://www.w3.org/2000/svg">
<path d="M17.3438 14.1328C17.5781 14.375 17.9531 14.3906 18.1953 14.1328C18.4453 13.875 18.4297 13.5234 18.1953 13.2812L5.13281 0.226562C4.89844 -0.0078125 4.50781 -0.0078125 4.27344 0.226562C4.04688 0.453125 4.04688 0.851562 4.27344 1.07812L17.3438 14.1328ZM11.2734 0.671875C9.91406 0.671875 8.67969 0.90625 7.53125 1.28906L8.5625 2.3125C9.42188 2.05469 10.3047 1.90625 11.2734 1.90625C16.4141 1.90625 20.5781 6.4375 20.5781 7.36719C20.5781 8 19.2109 9.70312 17.0469 11.0312L18.0078 11.9922C20.4766 10.3906 21.9453 8.28906 21.9453 7.36719C21.9453 5.76562 17.5859 0.671875 11.2734 0.671875ZM11.2734 14.0625C12.7266 14.0625 14.0547 13.8047 15.2656 13.3906L14.2422 12.3672C13.3125 12.6562 12.3281 12.8281 11.2734 12.8281C6.125 12.8281 1.96094 8.46875 1.96094 7.36719C1.96094 6.82031 3.40625 5 5.71094 3.61719L4.74219 2.64844C2.14062 4.25781 0.59375 6.42188 0.59375 7.36719C0.59375 8.96094 5.03906 14.0625 11.2734 14.0625ZM15.2812 9.07812C15.5234 8.55469 15.6562 7.96875 15.6562 7.36719C15.6562 4.92188 13.7031 2.99219 11.2734 2.99219C10.6562 2.99219 10.0781 3.125 9.55469 3.35156L15.2812 9.07812ZM11.2734 11.7422C11.9609 11.7422 12.6094 11.5703 13.1875 11.2891L7.32812 5.42969C7.03906 6.00781 6.875 6.66406 6.875 7.36719C6.88281 9.75 8.82812 11.7422 11.2734 11.7422Z" fill="#939393"/>
</svg>
