<svg xmlns="http://www.w3.org/2000/svg" viewBox="0 0 24 24">
    <path d="M12.4 15.52l1.04-1.06a3.27 3.27 0 01-2.21-.9 3.17 3.17 0 01-.01-4.65l2.55-2.55a3.16 3.16 0 014.65 0 3.16 3.16 0 010 4.65l-1.53 1.53c.22.5.27 1.08.19 1.59l2.3-2.3a4.36 4.36 0 00-.01-6.42 4.36 4.36 0 00-6.43 0l-2.67 2.67a4.35 4.35 0 00.01 6.42c.5.5 1.12.84 2.12 1.02zm.2-6.44l-1.05 1.05c1.04.09 1.7.4 2.22.9a3.17 3.17 0 010 4.66l-2.55 2.54a3.16 3.16 0 01-4.65.01 3.16 3.16 0 010-4.65l1.53-1.54a2.85 2.85 0 01-.19-1.58l-2.3 2.29a4.36 4.36 0 00.01 6.42 4.36 4.36 0 006.43.02l2.67-2.68a4.35 4.35 0 000-6.43 3.74 3.74 0 00-2.13-1.01z"/>
</svg>
