<svg width="12" height="13" viewBox="0 0 12 13" fill="none" xmlns="http://www.w3.org/2000/svg">
<path d="M1.74658 12.9229C2.03955 12.9229 2.28857 12.8057 2.58154 12.6372L11.1216 7.70068C11.7295 7.3418 11.9419 7.10742 11.9419 6.71924C11.9419 6.33105 11.7295 6.09668 11.1216 5.74512L2.58154 0.80127C2.28857 0.632812 2.03955 0.522949 1.74658 0.522949C1.20459 0.522949 0.867676 0.933105 0.867676 1.57031V11.8682C0.867676 12.5054 1.20459 12.9229 1.74658 12.9229ZM2.12012 11.5239C2.07617 11.5239 2.04688 11.4946 2.04688 11.436V2.00244C2.04688 1.94385 2.07617 1.91455 2.12012 1.91455C2.14941 1.91455 2.17871 1.9292 2.20801 1.95117L10.3159 6.63867C10.3525 6.66064 10.3818 6.68262 10.3818 6.71924C10.3818 6.75586 10.3525 6.78516 10.3159 6.7998L2.20801 11.4946C2.17871 11.5093 2.14941 11.5239 2.12012 11.5239Z" fill="#CCCCCC"/>
</svg>
