<svg width="14" height="14" viewBox="0 0 14 14" fill="none" xmlns="http://www.w3.org/2000/svg">
<path d="M7.4375 13.9453C7.82031 13.9453 8.14062 13.6406 8.14062 13.2656V8.07031H13.1875C13.5625 8.07031 13.8828 7.75 13.8828 7.36719C13.8828 6.98438 13.5625 6.67188 13.1875 6.67188H8.14062V1.46875C8.14062 1.09375 7.82031 0.789062 7.4375 0.789062C7.05469 0.789062 6.74219 1.09375 6.74219 1.46875V6.67188H1.6875C1.3125 6.67188 0.992188 6.98438 0.992188 7.36719C0.992188 7.75 1.3125 8.07031 1.6875 8.07031H6.74219V13.2656C6.74219 13.6406 7.05469 13.9453 7.4375 13.9453Z" fill="#939393"/>
</svg>
