<svg width="22" height="15" viewBox="0 0 22 15" fill="none" xmlns="http://www.w3.org/2000/svg">
<path d="M11.2734 14.0625C17.5859 14.0625 21.9453 8.96094 21.9453 7.36719C21.9453 5.76562 17.5781 0.671875 11.2734 0.671875C5.04688 0.671875 0.59375 5.76562 0.59375 7.36719C0.59375 8.96094 5.03906 14.0625 11.2734 14.0625ZM11.2734 12.8281C6.125 12.8281 1.96094 8.46875 1.96094 7.36719C1.96094 6.4375 6.125 1.90625 11.2734 1.90625C16.3984 1.90625 20.5781 6.4375 20.5781 7.36719C20.5781 8.46875 16.3984 12.8281 11.2734 12.8281ZM11.2734 11.7422C13.7031 11.7422 15.6562 9.75 15.6562 7.36719C15.6562 4.92188 13.7031 2.99219 11.2734 2.99219C8.82812 2.99219 6.86719 4.92188 6.875 7.36719C6.89062 9.75 8.82812 11.7422 11.2734 11.7422ZM11.2734 8.82031C10.4609 8.82031 9.80469 8.16406 9.80469 7.36719C9.80469 6.5625 10.4609 5.91406 11.2734 5.91406C12.0781 5.91406 12.7344 6.5625 12.7344 7.36719C12.7344 8.16406 12.0781 8.82031 11.2734 8.82031Z" fill="#939393"/>
</svg>
