<svg width="20" height="15" viewBox="0 0 20 15" fill="none" xmlns="http://www.w3.org/2000/svg">
<path d="M3.44531 14.5625H16.9609C18.6016 14.5625 19.4141 13.75 19.4141 12.1406V2.60156C19.4141 0.992188 18.6016 0.179688 16.9609 0.179688H3.44531C1.8125 0.179688 0.992188 0.984375 0.992188 2.60156V12.1406C0.992188 13.7578 1.8125 14.5625 3.44531 14.5625ZM3.46094 13.3047C2.67969 13.3047 2.25 12.8906 2.25 12.0781V2.66406C2.25 1.85156 2.67969 1.4375 3.46094 1.4375H16.9453C17.7188 1.4375 18.1562 1.85156 18.1562 2.66406V12.0781C18.1562 12.8906 17.7188 13.3047 16.9453 13.3047H3.46094ZM8.79688 10.9375C9.01562 10.9375 9.19531 10.8438 9.29688 10.6953L13.5312 4.76562C13.6172 4.64844 13.6719 4.50781 13.6719 4.38281C13.6719 4.05469 13.4141 3.78125 13.0547 3.78125C12.8125 3.78125 12.6797 3.875 12.5312 4.08594L8.77344 9.375L6.83594 7.22656C6.71875 7.08594 6.55469 7.02344 6.375 7.02344C6 7.02344 5.73438 7.28125 5.73438 7.60938C5.73438 7.77344 5.80469 7.90625 5.90625 8.02344L8.33594 10.7266C8.44531 10.8594 8.57812 10.9375 8.79688 10.9375Z" fill="#007AFF"/>
</svg>
