<svg width="38" height="39" viewBox="0 0 38 39" fill="none" xmlns="http://www.w3.org/2000/svg">
<path d="M19 38.6055C29.3516 38.6055 37.9258 30.0312 37.9258 19.6602C37.9258 9.30859 29.332 0.734375 18.9805 0.734375C8.62891 0.734375 0.0546875 9.30859 0.0546875 19.6602C0.0546875 30.0312 8.64844 38.6055 19 38.6055ZM16.4609 29.2109C15.8164 29.2109 15.2891 28.918 14.7617 28.2734L9.44922 21.7305C9.13672 21.3789 8.98047 20.9297 8.98047 20.5C8.98047 19.6016 9.68359 18.8984 10.5625 18.8984C11.0898 18.8984 11.5586 19.0938 12.0078 19.6797L16.3828 25.3047L24.8789 11.6914C25.2695 11.0859 25.7578 10.793 26.2852 10.793C27.125 10.793 27.9453 11.3594 27.9453 12.2773C27.9453 12.707 27.7109 13.1562 27.4766 13.5469L18.082 28.2539C17.6719 28.8984 17.125 29.2109 16.4609 29.2109Z" fill="white"/>
</svg>
