<svg width="8" height="12" viewBox="0 0 8 12" fill="none" xmlns="http://www.w3.org/2000/svg">
    <path d="M7.19385 6.41699C7.19385 6.2583 7.13037 6.1123 7.00977 5.99805L1.98242 1.07227C1.86816 0.964355 1.72852 0.907227 1.56348 0.907227C1.23975 0.907227 0.98584 1.15479 0.98584 1.48486C0.98584 1.64355 1.04932 1.78955 1.15088 1.89746L5.77197 6.41699L1.15088 10.9365C1.04932 11.0444 0.98584 11.1841 0.98584 11.3491C0.98584 11.6792 1.23975 11.9268 1.56348 11.9268C1.72852 11.9268 1.86816 11.8696 1.98242 11.7554L7.00977 6.83594C7.13037 6.71533 7.19385 6.57568 7.19385 6.41699Z"/>
</svg>
