<svg width="18" height="19" viewBox="0 0 18 19" fill="none" xmlns="http://www.w3.org/2000/svg">
<path d="M9 18.6191C13.9043 18.6191 17.9648 14.5586 17.9648 9.6543C17.9648 4.75879 13.8955 0.689453 8.99121 0.689453C4.0957 0.689453 0.0351562 4.75879 0.0351562 9.6543C0.0351562 14.5586 4.10449 18.6191 9 18.6191ZM9 17.125C4.85156 17.125 1.53809 13.8027 1.53809 9.6543C1.53809 5.51465 4.84277 2.18359 8.99121 2.18359C13.1396 2.18359 16.4619 5.51465 16.4707 9.6543C16.4795 13.8027 13.1484 17.125 9 17.125ZM8.9209 6.52539C9.5625 6.52539 10.0635 6.01562 10.0635 5.38281C10.0635 4.74121 9.5625 4.23145 8.9209 4.23145C8.28809 4.23145 7.77832 4.74121 7.77832 5.38281C7.77832 6.01562 8.28809 6.52539 8.9209 6.52539ZM7.46191 14.4883H11.0391C11.3994 14.4883 11.6807 14.2334 11.6807 13.873C11.6807 13.5303 11.3994 13.2578 11.0391 13.2578H9.94922V8.78418C9.94922 8.30957 9.71191 7.99316 9.26367 7.99316H7.61133C7.25098 7.99316 6.96973 8.26562 6.96973 8.6084C6.96973 8.96875 7.25098 9.22363 7.61133 9.22363H8.55176V13.2578H7.46191C7.10156 13.2578 6.82031 13.5303 6.82031 13.873C6.82031 14.2334 7.10156 14.4883 7.46191 14.4883Z" fill="#CCCCCC"/>
</svg>
