<svg width="70" height="70" viewBox="0 0 70 70" fill="none" xmlns="http://www.w3.org/2000/svg">
    <path d="M35.1268 69.3926C53.953 69.3926 69.492 53.8535 69.492 35.0605C69.492 16.2344 53.9198 0.695312 35.0936 0.695312C16.3006 0.695312 0.794769 16.2344 0.794769 35.0605C0.794769 53.8535 16.3338 69.3926 35.1268 69.3926ZM35.1268 62.5195C19.8866 62.5195 7.70102 50.2676 7.70102 35.0605C7.70102 19.8203 19.8866 7.56836 35.0936 7.56836C50.3338 7.56836 62.5858 19.8203 62.619 35.0605C62.6522 50.2676 50.367 62.5195 35.1268 62.5195ZM18.3924 39.2109H35.0936C36.6209 39.2109 37.7831 38.0488 37.7831 36.5547V14.8398C37.7831 13.3457 36.6209 12.1836 35.0936 12.1836C33.6327 12.1836 32.4706 13.3457 32.4706 14.8398V33.8984H18.3924C16.8983 33.8984 15.7362 35.0605 15.7362 36.5547C15.7362 38.0488 16.8983 39.2109 18.3924 39.2109Z" fill="white"/>
</svg>

