<svg width="14" height="15" viewBox="0 0 14 15" fill="none" xmlns="http://www.w3.org/2000/svg">
<path d="M7 14.0371C10.8145 14.0371 13.9727 10.8789 13.9727 7.06445C13.9727 3.25684 10.8076 0.0917969 6.99316 0.0917969C3.18555 0.0917969 0.0273438 3.25684 0.0273438 7.06445C0.0273438 10.8789 3.19238 14.0371 7 14.0371ZM3.4248 7.80273C3.15137 7.80273 2.94629 7.59766 2.94629 7.32422C2.94629 7.05762 3.15137 6.85254 3.4248 6.85254H6.52148V2.7168C6.52148 2.4502 6.72656 2.24512 6.99316 2.24512C7.25977 2.24512 7.47168 2.4502 7.47168 2.7168V7.32422C7.47168 7.59766 7.25977 7.80273 6.99316 7.80273H3.4248Z" fill="black"/>
</svg>
