<svg viewBox="0 0 14 17" fill="none" xmlns="http://www.w3.org/2000/svg">
    <path d="M3.11084 16.5708H10.8892C12.4053 16.5708 13.1597 15.8018 13.1597 14.2783V7.62793C13.1597 6.68311 13.0498 6.27295 12.4639 5.67236L8.42822 1.56348C7.87158 0.992188 7.41016 0.867676 6.58984 0.867676H3.11084C1.60205 0.867676 0.840332 1.64404 0.840332 3.16748V14.2783C0.840332 15.8091 1.59473 16.5708 3.11084 16.5708ZM3.16211 15.3916C2.40771 15.3916 2.01953 14.9888 2.01953 14.2563V3.18945C2.01953 2.46436 2.40771 2.04688 3.16943 2.04688H6.42871V6.30225C6.42871 7.2251 6.89014 7.6792 7.80566 7.6792H11.9805V14.2563C11.9805 14.9888 11.5923 15.3916 10.8306 15.3916H3.16211ZM7.9375 6.57324C7.64453 6.57324 7.53467 6.45605 7.53467 6.16309V2.27393L11.7534 6.57324H7.9375ZM7.55664 9.05615C7.55664 8.75586 7.30029 8.51416 7 8.51416C6.69971 8.51416 6.44336 8.75586 6.44336 9.05615V11.7148L6.4873 12.9087L5.86475 12.2642L5.20557 11.5903C5.10303 11.4805 4.94922 11.4219 4.81006 11.4219C4.50977 11.4219 4.29736 11.6343 4.29736 11.9272C4.29736 12.0957 4.36328 12.2202 4.48047 12.3228L6.58984 14.2637C6.74365 14.4028 6.86084 14.4541 7 14.4541C7.13916 14.4541 7.25635 14.4028 7.41016 14.2637L9.51953 12.3228C9.63672 12.2202 9.70264 12.0957 9.70264 11.9272C9.70264 11.6343 9.48291 11.4219 9.18994 11.4219C9.04346 11.4219 8.89697 11.4805 8.79443 11.5903L8.13525 12.2642L7.5127 12.9087L7.55664 11.7148V9.05615Z"/>
</svg>
