<svg width="12" height="16" viewBox="0 0 12 16" fill="none" xmlns="http://www.w3.org/2000/svg">
<path d="M2.37012 15.3994H9.62988C11.0449 15.3994 11.749 14.6816 11.749 13.2598V7.05273C11.749 6.1709 11.6465 5.78809 11.0996 5.22754L7.33301 1.39258C6.81348 0.859375 6.38281 0.743164 5.61719 0.743164H2.37012C0.961914 0.743164 0.250977 1.46777 0.250977 2.88965V13.2598C0.250977 14.6885 0.955078 15.3994 2.37012 15.3994ZM2.41797 14.2988C1.71387 14.2988 1.35156 13.9229 1.35156 13.2393V2.91016C1.35156 2.2334 1.71387 1.84375 2.4248 1.84375H5.4668V5.81543C5.4668 6.67676 5.89746 7.10059 6.75195 7.10059H10.6484V13.2393C10.6484 13.9229 10.2861 14.2988 9.5752 14.2988H2.41797ZM6.875 6.06836C6.60156 6.06836 6.49902 5.95898 6.49902 5.68555V2.05566L10.4365 6.06836H6.875Z" fill="#0066FF"/>
</svg>
