<svg width="32" height="34" viewBox="0 0 32 34" fill="none" xmlns="http://www.w3.org/2000/svg">
<path d="M2.59863 33.7812C3.74414 33.7812 4.67383 32.8682 4.67383 31.7061V22.9072C5.20508 22.7578 6.31738 22.4258 7.84473 22.4258C13.6719 22.4258 18.0879 25.4805 23.9482 25.4805C26.4219 25.4805 27.9824 25.082 29.2939 24.4678C30.5557 23.8701 31.1699 22.7246 31.1699 21.1641V5.20996C31.1699 3.76562 30.1904 2.78613 28.7627 2.78613C27.584 2.78613 26.1729 3.30078 23.8486 3.30078C18.2041 3.30078 13.5723 0.262695 7.74512 0.262695C5.37109 0.262695 3.92676 0.611328 2.43262 1.29199C1.2041 1.87305 0.523438 2.71973 0.523438 4.21387V31.7061C0.523438 32.8516 1.45312 33.7812 2.59863 33.7812ZM23.7656 21.1973C18.6357 21.1973 14.0371 18.1758 7.99414 18.1758C6.76562 18.1758 5.65332 18.3086 4.88965 18.5576V5.30957C5.30469 4.94434 6.28418 4.5127 7.89453 4.5127C13.2236 4.5127 17.8389 7.53418 23.666 7.53418C24.8945 7.53418 25.9736 7.41797 26.8037 7.20215V20.4336C26.4219 20.7988 25.3926 21.1973 23.7656 21.1973Z" fill="black"/>
</svg>
