<svg
        width="242"
        height="321"
        viewBox="0 0 242 321"
        fill="none"
        xmlns="http://www.w3.org/2000/svg"
>
    <g>
        <rect width="320" height="320" transform="translate(-39 0.795898)" fill="white" />
        <g opacity="0.1">
            <path
                    d="M88.9092 64.0898C89.7393 64.0898 91.0176 61.1016 91.0176 57.416V46.9902C93.9893 46.0771 96.1309 43.3047 96.1309 40.0508C96.1309 36.0664 92.9268 32.7959 88.9092 32.7959C84.9082 32.7959 81.6875 36.0664 81.6875 40.0508C81.6875 43.3047 83.8291 46.0605 86.7842 46.9736V57.416C86.7842 61.085 88.0791 64.0898 88.9092 64.0898ZM86.8672 40.4824C85.5557 40.4824 84.3936 39.3203 84.3936 37.9922C84.3936 36.6475 85.5557 35.5186 86.8672 35.5186C88.2285 35.5186 89.3408 36.6475 89.3408 37.9922C89.3408 39.3203 88.2285 40.4824 86.8672 40.4824ZM88.876 71.4443C100.414 71.4443 107.752 67.7422 107.752 62.8613C107.752 58.2627 101.111 55.0254 94.0557 54.4775V58.3955C98.6709 58.7773 103.203 60.4375 103.203 62.6787C103.203 65.5342 97.21 67.4434 88.876 67.4434C80.5254 67.4434 74.5488 65.5508 74.5488 62.6787C74.5488 60.4375 79.0811 58.7773 83.6963 58.3955V54.4775C76.6406 55.0254 70 58.2627 70 62.8613C70 67.7422 77.3379 71.4443 88.876 71.4443Z"
                    fill="black"
            />
            <path
                    d="M-3.29018 82.8941L2.49986 81.223C5.35501 80.399 6.31951 78.6519 5.48167 75.7489L3.83361 70.0386C2.99577 67.1356 1.25328 66.187 -1.60186 67.0111L-7.39191 68.6821C-10.2471 69.5062 -11.2162 71.2373 -10.3783 74.1403L-8.73026 79.8506C-7.89242 82.7536 -6.14533 83.7181 -3.29018 82.8941ZM-19.6873 87.6265L-13.8973 85.9554C-11.0421 85.1314 -10.0776 83.3843 -10.9155 80.4813L-12.5635 74.771C-13.4014 71.868 -15.1439 70.9195 -17.999 71.7435L-23.7891 73.4146C-26.6442 74.2386 -27.6133 75.9697 -26.7755 78.8727L-25.1274 84.583C-24.2896 87.486 -22.5425 88.4505 -19.6873 87.6265ZM-20.8105 84.633C-21.4485 84.8172 -21.8025 84.6083 -21.9913 83.9544L-23.7912 77.7177C-23.9708 77.0956 -23.7825 76.7303 -23.1444 76.5461L-16.8759 74.7369C-16.2538 74.5574 -15.8838 74.7616 -15.7043 75.3837L-13.9043 81.6204C-13.7156 82.2743 -13.9198 82.6443 -14.5419 82.8239L-20.8105 84.633ZM-4.41331 79.9006C-5.03538 80.0802 -5.40536 79.8759 -5.5941 79.2219L-7.39407 72.9853C-7.57361 72.3632 -7.36936 71.9932 -6.74729 71.8137L-0.478732 70.0045C0.15929 69.8204 0.513312 70.0292 0.692849 70.6513L2.49282 76.888C2.68156 77.5419 2.49327 77.9073 1.85525 78.0914L-4.41331 79.9006ZM-19.8482 82.0399L-16.7698 81.1514C-16.4986 81.0732 -16.4192 80.9293 -16.5113 80.6103L-17.3721 77.6275C-17.455 77.3404 -17.5989 77.261 -17.87 77.3393L-20.9485 78.2277C-21.2037 78.3014 -21.2672 78.4407 -21.1843 78.7278L-20.3234 81.7105C-20.2314 82.0295 -20.1034 82.1136 -19.8482 82.0399ZM-3.40323 77.2937L-0.324776 76.4052C-0.0536165 76.327 0.0258127 76.1831 -0.0662575 75.8641L-0.927114 72.8813C-1.00998 72.5942 -1.15386 72.5148 -1.42501 72.593L-4.50347 73.4815C-4.75868 73.5552 -4.82215 73.6945 -4.73929 73.9816L-3.87844 76.9643C-3.78637 77.2833 -3.65844 77.3674 -3.40323 77.2937ZM-14.9549 104.024L-9.16488 102.353C-6.30974 101.529 -5.34524 99.7814 -6.17847 96.8944L-7.83113 91.1682C-8.66897 88.2652 -10.4115 87.3166 -13.2666 88.1406L-19.0567 89.8117C-21.9118 90.6357 -22.8809 92.3669 -22.0431 95.2699L-20.3904 100.996C-19.5572 103.883 -17.8101 104.848 -14.9549 104.024ZM-4.37136 90.4634L-1.29291 89.5749C-1.02175 89.4966 -0.942318 89.3528 -1.03439 89.0337L-1.89524 86.051C-1.97811 85.7639 -2.12199 85.6845 -2.39314 85.7627L-5.4716 86.6512C-5.74276 86.7294 -5.79029 86.8641 -5.70742 87.1512L-4.84657 90.134C-4.7545 90.453 -4.64252 90.5416 -4.37136 90.4634ZM4.30573 87.9591L7.38419 87.0706C7.65534 86.9923 7.73477 86.8484 7.6427 86.5294L6.78185 83.5467C6.69898 83.2596 6.55511 83.1801 6.28395 83.2584L3.20549 84.1469C2.93433 84.2251 2.88681 84.3598 2.96967 84.6469L3.83053 87.6297C3.9226 87.9487 4.03457 88.0373 4.30573 87.9591ZM-16.0781 101.03C-16.7161 101.214 -17.0701 101.005 -17.2542 100.367L-19.0542 94.1308C-19.2384 93.4928 -19.0501 93.1274 -18.412 92.9433L-12.1435 91.1341C-11.5214 90.9545 -11.1514 91.1588 -10.9673 91.7968L-9.16732 98.0335C-8.98318 98.6715 -9.18743 99.0415 -9.8095 99.221L-16.0781 101.03ZM1.25124 93.5405L4.32969 92.6521C4.60085 92.5738 4.68028 92.4299 4.59282 92.1269L3.72736 89.1282C3.64449 88.8411 3.50062 88.7616 3.22946 88.8399L0.151003 89.7284C-0.104206 89.802 -0.167684 89.9413 -0.0848211 90.2284L0.780638 93.2271C0.868105 93.5302 0.996033 93.6142 1.25124 93.5405ZM-15.1158 98.4371L-12.0374 97.5486C-11.7662 97.4703 -11.6868 97.3265 -11.7789 97.0074L-12.6397 94.0247C-12.7226 93.7376 -12.8665 93.6582 -13.1376 93.7364L-16.2161 94.6249C-16.4713 94.6985 -16.5348 94.8378 -16.4519 95.1249L-15.591 98.1077C-15.499 98.4267 -15.371 98.5107 -15.1158 98.4371ZM-1.86705 99.1405L1.2114 98.252C1.48256 98.1737 1.56199 98.0298 1.47452 97.7268L0.609064 94.7281C0.526201 94.441 0.382323 94.3615 0.111164 94.4398L-2.96729 95.3283C-3.23845 95.4065 -3.28598 95.5412 -3.20311 95.8283L-2.33765 98.827C-2.25019 99.1301 -2.13821 99.2187 -1.86705 99.1405ZM6.81004 96.6361L9.88849 95.7477C10.1597 95.6694 10.2391 95.5255 10.1516 95.2225L9.28616 92.2238C9.20329 91.9367 9.05941 91.8572 8.78826 91.9355L5.7098 92.824C5.43864 92.9022 5.39111 93.0369 5.47398 93.324L6.33944 96.3227C6.4269 96.6258 6.53888 96.7144 6.81004 96.6361Z"
                    fill="black"
            />
            <path
                    d="M102.419 108.091C103.112 108.838 104.238 108.781 104.931 108.033C111.744 100.904 120.549 97.1384 130.509 97.1384C140.498 97.1384 149.361 100.933 156.117 108.091C156.809 108.752 157.907 108.752 158.599 108.033L162.497 104.124C163.132 103.463 163.161 102.571 162.612 101.939C155.799 93.5451 143.241 87.7959 130.509 87.7959C117.749 87.7959 105.191 93.5451 98.3777 101.939C97.8292 102.571 97.887 103.463 98.4932 104.124L102.419 108.091ZM113.938 119.589C114.689 120.365 115.786 120.308 116.508 119.474C119.972 115.708 125.255 113.265 130.509 113.294C135.793 113.265 141.104 115.795 144.598 119.589C145.291 120.365 146.33 120.365 147.052 119.589L151.44 115.248C152.075 114.645 152.133 113.754 151.555 113.093C147.109 107.631 139.055 103.923 130.509 103.923C121.935 103.923 113.909 107.631 109.435 113.093C108.857 113.754 108.915 114.645 109.55 115.248L113.938 119.589ZM130.509 134.796C131.26 134.796 131.953 134.393 133.079 133.301L139.863 126.804C140.498 126.23 140.585 125.281 140.036 124.591C137.9 121.975 134.32 120.078 130.509 120.078C126.583 120.078 122.888 122.033 120.752 124.878C120.376 125.482 120.549 126.258 121.156 126.804L127.911 133.301C129.037 134.422 129.73 134.796 130.509 134.796Z"
                    fill="black"
            />
            <path
                    d="M33.924 16.2215C34.0329 16.6362 34.4616 16.8367 34.8663 16.6951C38.8027 15.3841 42.8117 15.7176 46.5034 17.6805C50.2058 19.6491 52.7398 22.8083 53.827 26.8041C53.953 27.1868 54.3596 27.403 54.7587 27.272L56.977 26.5848C57.3433 26.4639 57.5304 26.1379 57.4522 25.7944C56.5883 21.3271 53.0714 16.712 48.3525 14.2029C43.6228 11.6881 37.8302 11.3532 33.6435 13.135C33.315 13.2623 33.16 13.6054 33.2539 13.971L33.924 16.2215ZM35.9177 22.7719C36.0423 23.2087 36.4603 23.4035 36.8928 23.2354C38.9222 22.5164 41.364 22.6481 43.3058 23.6943C45.2697 24.7248 46.7379 26.7133 47.2817 28.8142C47.3849 29.2397 47.7701 29.4445 48.1912 29.2978L50.6768 28.5469C51.0317 28.4473 51.2295 28.127 51.1463 27.7671C50.5795 24.8578 48.328 21.89 45.1606 20.2059C41.9825 18.5161 38.2738 18.3147 35.5342 19.466C35.1893 19.5983 35.0344 19.9414 35.1503 20.2913L35.9177 22.7719ZM39.05 31.6983C39.3282 31.8462 39.6647 31.833 40.2982 31.6482L44.0987 30.567C44.4479 30.4781 44.6677 30.1421 44.601 29.7771C44.3269 28.3824 43.3755 26.9706 41.9631 26.2196C40.5078 25.4458 38.7512 25.4452 37.3961 26.0835C37.1375 26.2343 37.0481 26.5573 37.1647 26.8801L38.3828 30.6298C38.5782 31.269 38.7611 31.5447 39.05 31.6983Z"
                    fill="black"
            />
            <path
                    d="M45.3732 87.2597L38.6346 106.83C37.8441 109.126 37.6189 110.794 38.3788 112.352C39.1388 113.91 40.5732 114.741 42.8802 115.535L48.8204 117.58C51.1274 118.375 52.7691 118.603 54.3161 117.84C55.8781 117.068 56.7236 115.627 57.5141 113.331L64.2566 93.7493C65.0395 91.4757 65.2646 89.808 64.5047 88.2498C63.7447 86.6916 62.3103 85.8612 60.0256 85.0745L54.0742 83.0252C51.7672 82.2309 50.1256 82.0022 48.5674 82.7622C47.0054 83.5333 46.1599 84.975 45.3732 87.2597ZM48.4637 87.9872C48.8705 86.8059 49.3216 86.0387 50.0108 85.7026C50.6889 85.3626 51.5412 85.494 52.7337 85.9046L59.2758 88.1572C60.4794 88.5717 61.2281 89.004 61.5681 89.6821C61.9081 90.3601 61.7763 91.2497 61.3657 92.4422L54.4198 112.615C54.013 113.796 53.5619 114.563 52.8765 114.888C52.1985 115.228 51.3423 115.108 50.1498 114.697L43.5966 112.441C42.4041 112.03 41.6665 111.602 41.3304 110.912C40.9904 110.234 41.1072 109.352 41.514 108.171L48.4637 87.9872ZM50.2412 88.7988L43.4143 108.626C43.2147 109.205 43.1776 109.566 43.3419 109.922C43.5211 110.271 43.8286 110.464 44.4081 110.663L50.6047 112.797C51.1842 112.996 51.5454 113.034 51.9012 112.869C52.2496 112.69 52.4539 112.386 52.6534 111.807L59.4804 91.98C59.6799 91.4005 59.7097 91.0243 59.5416 90.6797C59.3624 90.3313 59.0588 90.127 58.4792 89.9275L52.2827 87.7938C51.7031 87.5943 51.3419 87.5571 50.9823 87.7325C50.6377 87.9006 50.4408 88.2192 50.2412 88.7988ZM42.184 117.34C41.9097 118.317 42.7016 120.036 44.5517 120.673C46.3906 121.306 48.0728 120.44 48.4586 119.5L42.184 117.34Z"
                    fill="black"
            />
            <path
                    d="M161.458 19.2718L135.404 -1.82626C132.347 -4.30132 129.934 -5.56796 127.141 -5.27445C124.348 -4.98093 122.29 -3.25781 119.803 -0.186532L113.399 7.72165C110.912 10.7929 109.654 13.1649 109.96 15.9426C110.268 18.7472 111.994 20.8327 115.05 23.3078L141.119 44.4179C144.146 46.8689 146.56 48.1356 149.352 47.8421C152.145 47.5486 154.204 45.8254 156.667 42.7838L163.082 34.8608C165.57 31.7895 166.827 29.4176 166.534 26.625C166.225 23.8204 164.499 21.7349 161.458 19.2718ZM158.638 23.5726C160.211 24.8461 161.129 25.9578 161.259 27.193C161.4 28.4133 160.728 29.6378 159.443 31.2254L152.39 39.9348C151.092 41.5372 150.019 42.4372 148.799 42.5791C147.579 42.7209 146.298 42.0275 144.71 40.7419L117.855 18.995C116.282 17.7215 115.365 16.6098 115.25 15.3866C115.108 14.1663 115.765 12.9298 117.051 11.3422L124.115 2.61801C125.401 1.03044 126.462 0.145212 127.697 0.0153881C128.917 -0.12645 130.195 0.540093 131.768 1.81367L158.638 23.5726ZM156.418 25.8285L130.023 4.45403C129.252 3.82926 128.722 3.57267 128.09 3.62557C127.46 3.70532 126.996 4.06633 126.371 4.83786L119.691 13.0873C119.066 13.8588 118.81 14.388 118.863 15.0205C118.942 15.6501 119.291 16.1292 120.063 16.754L146.458 38.1284C147.23 38.7532 147.786 39.007 148.403 38.9421C149.033 38.8623 149.512 38.5133 150.137 37.7418L156.817 29.4923C157.442 28.7208 157.698 28.1916 157.631 27.5471C157.566 26.9296 157.19 26.4532 156.418 25.8285ZM117.441 -2.24599C116.105 -3.20508 113.051 -2.95189 111.056 -0.488926C109.074 1.9592 109.461 4.99984 110.677 6.1073L117.441 -2.24599Z"
                    fill="black"
            />
            <path
                    d="M195.975 163.786C196.216 163.521 196.161 163.129 195.878 162.91C193.167 160.748 191.577 157.786 191.272 154.306C190.967 150.815 192.027 147.602 194.333 145.021C194.544 144.759 194.51 144.375 194.237 144.155L192.746 142.913C192.494 142.712 192.181 142.729 191.975 142.94C189.238 145.579 187.604 150.144 187.993 154.593C188.384 159.052 190.785 163.264 193.939 165.387C194.178 165.559 194.489 165.512 194.702 165.279L195.975 163.786ZM199.658 159.407C199.907 159.121 199.854 158.74 199.539 158.513C198.111 157.418 197.092 155.647 196.942 153.81C196.77 151.965 197.496 150.031 198.72 148.693C198.972 148.427 198.94 148.064 198.645 147.836L196.988 146.436C196.757 146.232 196.442 146.239 196.228 146.462C194.447 148.183 193.392 151.111 193.653 154.098C193.915 157.094 195.462 159.785 197.516 161.181C197.765 161.362 198.076 161.314 198.269 161.074L199.658 159.407ZM204.488 153.15C204.465 152.887 204.303 152.658 203.885 152.298L201.397 150.126C201.176 149.922 200.841 149.921 200.615 150.134C199.763 150.961 199.206 152.27 199.323 153.602C199.443 154.974 200.242 156.205 201.306 156.864C201.529 156.977 201.796 156.892 201.969 156.664L204.043 154.103C204.402 153.676 204.512 153.422 204.488 153.15Z"
                    fill="black"
            />
            <path
                    d="M260.151 74.4493L265.846 78.291C268.655 80.1854 270.888 79.7513 272.814 76.8957L276.603 71.2786C278.529 68.423 278.084 66.2054 275.276 64.311L269.58 60.4693C266.772 58.575 264.549 58.9934 262.623 61.849L258.834 67.4661C256.908 70.3217 257.342 72.5549 260.151 74.4493ZM244.021 63.5698L249.717 67.4115C252.525 69.3059 254.759 68.8718 256.685 66.0162L260.473 60.3991C262.4 57.5435 261.955 55.3259 259.146 53.4315L253.451 49.5899C250.642 47.6955 248.42 48.1139 246.493 50.9695L242.705 56.5866C240.779 59.4422 241.213 61.6754 244.021 63.5698ZM245.818 60.3985C245.19 59.9752 245.114 59.5129 245.548 58.8696L249.686 52.7347C250.099 52.1228 250.556 52.0203 251.183 52.4436L257.35 56.6028C257.962 57.0155 258.054 57.4885 257.641 58.1004L253.503 64.2352C253.069 64.8785 252.596 64.9705 251.984 64.5577L245.818 60.3985ZM261.947 71.278C261.335 70.8653 261.243 70.3924 261.677 69.7491L265.815 63.6142C266.228 63.0023 266.701 62.9104 267.313 63.3231L273.479 67.4823C274.107 67.9056 274.183 68.368 273.77 68.9799L269.632 75.1147C269.198 75.758 268.741 75.8605 268.114 75.4372L261.947 71.278ZM248.789 59.3438L251.817 61.3863C252.084 61.5663 252.268 61.5305 252.48 61.2167L254.459 58.2826C254.649 58.0002 254.614 57.8163 254.347 57.6364L251.319 55.5938C251.068 55.4245 250.899 55.4708 250.709 55.7533L248.73 58.6873C248.518 59.0011 248.538 59.1745 248.789 59.3438ZM264.966 70.255L267.994 72.2976C268.261 72.4775 268.445 72.4418 268.656 72.1279L270.635 69.1939C270.826 68.9115 270.79 68.7275 270.523 68.5476L267.495 66.5051C267.244 66.3358 267.076 66.3821 266.885 66.6645L264.906 69.5986C264.695 69.9124 264.715 70.0857 264.966 70.255ZM233.142 79.6993L238.837 83.541C241.646 85.4354 243.879 85.0013 245.795 82.1614L249.594 76.5286C251.52 73.673 251.075 71.4554 248.267 69.5611L242.571 65.7194C239.763 63.825 237.54 64.2434 235.614 67.099L231.815 72.7318C229.899 75.5717 230.333 77.8049 233.142 79.6993ZM252.74 79.039L255.769 81.0815C256.035 81.2614 256.219 81.2257 256.431 80.9119L258.41 77.9778C258.6 77.6954 258.565 77.5115 258.298 77.3316L255.27 75.289C255.003 75.1091 254.85 75.166 254.66 75.4484L252.681 78.3825C252.469 78.6963 252.474 78.859 252.74 79.039ZM261.276 84.7962L264.304 86.8388C264.571 87.0187 264.755 86.9829 264.966 86.6691L266.945 83.735C267.136 83.4526 267.1 83.2687 266.833 83.0888L263.805 81.0462C263.538 80.8663 263.386 80.9232 263.195 81.2057L261.216 84.1397C261.005 84.4535 261.009 84.6163 261.276 84.7962ZM234.938 76.5281C234.311 76.1047 234.234 75.6424 234.658 75.0148L238.796 68.8799C239.219 68.2523 239.676 68.1498 240.304 68.5731L246.47 72.7323C247.082 73.1451 247.174 73.618 246.751 74.2456L242.613 80.3804C242.189 81.0081 241.716 81.1 241.105 80.6872L234.938 76.5281ZM254.161 86.2065L257.189 88.249C257.456 88.4289 257.64 88.3932 257.841 88.0951L259.83 85.1453C260.021 84.8629 259.985 84.679 259.718 84.4991L256.69 82.4565C256.439 82.2872 256.271 82.3335 256.08 82.6159L254.091 85.5657C253.89 85.8638 253.91 86.0371 254.161 86.2065ZM237.91 75.4733L240.938 77.5159C241.205 77.6958 241.389 77.66 241.6 77.3462L243.579 74.4121C243.77 74.1297 243.734 73.9458 243.467 73.7659L240.439 71.7233C240.188 71.554 240.02 71.6004 239.829 71.8828L237.85 74.8168C237.639 75.1306 237.659 75.304 237.91 75.4733ZM246.983 87.5744L250.011 89.617C250.278 89.7969 250.462 89.7611 250.663 89.463L252.653 86.5133C252.843 86.2308 252.807 86.0469 252.541 85.867L249.512 83.8245C249.246 83.6446 249.093 83.7015 248.903 83.9839L246.913 86.9336C246.712 87.2318 246.716 87.3945 246.983 87.5744ZM255.519 93.3317L258.547 95.3742C258.813 95.5541 258.997 95.5184 259.198 95.2203L261.188 92.2705C261.379 91.9881 261.343 91.8042 261.076 91.6243L258.048 89.5817C257.781 89.4018 257.629 89.4587 257.438 89.7411L255.449 92.6909C255.247 92.989 255.252 93.1517 255.519 93.3317Z"
                    fill="black"
            />
            <path
                    d="M-18.3982 144.612C-18.0927 145.021 -17.5295 145.051 -17.1455 144.714C-13.3811 141.508 -8.80224 140.087 -3.84658 140.608C1.12345 141.13 5.33399 143.49 8.31929 147.42C8.62931 147.786 9.17515 147.844 9.55764 147.521L11.7021 145.771C12.0529 145.474 12.114 145.03 11.8743 144.685C8.92522 140.135 2.97872 136.605 -3.35591 135.939C-9.7049 135.272 -16.2553 137.488 -20.0861 141.326C-20.3922 141.614 -20.4103 142.062 -20.1434 142.424L-18.3982 144.612ZM-13.2708 150.96C-12.938 151.387 -12.3892 151.415 -11.9863 151.037C-10.0648 149.336 -7.30783 148.391 -4.69505 148.68C-2.06489 148.942 0.445277 150.484 1.98406 152.563C2.28804 152.987 2.80515 153.041 3.20502 152.691L5.61636 150.752C5.96408 150.483 6.03961 150.041 5.78705 149.68C3.86181 146.719 0.0489394 144.445 -4.20287 143.998C-8.46905 143.549 -12.6571 144.983 -15.1704 147.478C-15.4924 147.778 -15.5105 148.226 -15.2261 148.561L-13.2708 150.96ZM-5.82434 159.425C-5.45087 159.464 -5.08499 159.299 -4.46741 158.812L-0.750616 155.921C-0.404409 155.667 -0.311493 155.197 -0.54818 154.824C-1.47375 153.405 -3.15527 152.27 -5.05135 152.07C-7.00489 151.865 -8.94617 152.649 -10.1586 153.959C-10.377 154.241 -10.3316 154.638 -10.0586 154.942L-7.03861 158.542C-6.53729 159.161 -6.21217 159.384 -5.82434 159.425Z"
                    fill="black"
            />
            <path
                    d="M80.0008 175.411C80.8827 175.175 81.3902 171.636 80.3409 167.72L77.3727 156.642C80.2702 154.826 81.7564 151.27 80.83 147.813C79.6956 143.579 75.3601 141.017 71.0914 142.16C66.8402 143.3 64.3493 147.691 65.4837 151.925C66.41 155.382 69.4701 157.701 72.8699 157.83L75.8429 168.925C76.8874 172.823 79.1188 175.647 80.0008 175.411ZM71.1101 150.909C69.7165 151.282 68.1509 150.378 67.7728 148.967C67.39 147.538 68.3033 146.008 69.6968 145.635C71.1433 145.247 72.6465 146.13 73.0294 147.559C73.4075 148.97 72.5565 150.521 71.1101 150.909ZM82.0593 183.235C94.3188 179.95 101.061 173.927 99.6718 168.741C98.3626 163.855 90.3851 162.306 82.7324 163.732L83.8478 167.895C88.8603 166.987 94.1485 167.461 94.7866 169.842C95.5996 172.876 89.7753 176.611 80.9202 178.984C72.0476 181.361 65.1586 181.052 64.3409 178C63.7028 175.619 68.0457 172.564 72.8408 170.845L71.7253 166.682C64.3845 169.273 58.2504 174.603 59.5597 179.489C60.9492 184.675 69.7999 186.52 82.0593 183.235Z"
                    fill="black"
            />
            <path
                    d="M199.834 114.733C200.529 115.028 202.662 112.98 203.973 109.892L207.68 101.159C210.494 101.451 213.273 99.8899 214.43 97.1642C215.847 93.8267 214.326 89.9479 210.961 88.5193C207.609 87.0967 203.748 88.6911 202.332 92.0287C201.175 94.7544 201.989 97.8243 204.139 99.6399L200.426 108.387C199.122 111.46 199.138 114.438 199.834 114.733ZM206.517 94.232C205.418 93.7656 204.858 92.379 205.33 91.2665C205.809 90.14 207.183 89.6076 208.282 90.0739C209.422 90.558 209.953 91.8991 209.474 93.0255C209.002 94.1381 207.657 94.716 206.517 94.232ZM197.191 120.882C206.856 124.984 214.319 124.492 216.054 120.404C217.689 116.552 213.278 111.479 207.562 108.511L206.169 111.793C209.899 113.754 213.106 116.756 212.309 118.633C211.293 121.025 205.594 120.494 198.613 117.53C191.618 114.561 187.285 110.851 188.306 108.445C189.103 106.568 193.49 106.788 197.492 108.11L198.885 104.828C192.78 102.778 186.066 103.128 184.431 106.98C182.695 111.069 187.526 116.779 197.191 120.882Z"
                    fill="black"
            />
            <path
                    d="M262.318 11.8528C262.194 11.1498 259.472 10.5134 256.351 11.0638L247.521 12.6208C246.304 10.2403 243.636 8.84053 240.88 9.32646C237.505 9.92148 235.214 13.1236 235.814 16.5262C236.411 19.9147 239.662 22.1541 243.037 21.559C245.793 21.0731 247.807 18.8478 248.139 16.2086L256.983 14.6492C260.09 14.1013 262.442 12.5558 262.318 11.8528ZM242.629 17.1077C242.825 18.2185 242.014 19.3763 240.889 19.5746C239.75 19.7754 238.621 18.9598 238.425 17.849C238.221 16.6961 239.011 15.5854 240.15 15.3846C241.275 15.1863 242.425 15.9548 242.629 17.1077ZM268.552 10.7826C266.828 1.01063 262.597 -4.65121 258.463 -3.92232C254.569 -3.23557 252.819 2.87206 253.408 8.92956L256.726 8.34446C256.361 4.37864 257.09 0.292213 258.988 -0.0424837C261.406 -0.468912 263.918 4.32179 265.163 11.3801C266.41 18.4525 265.7 23.7969 263.267 24.2258C261.369 24.5605 259.286 20.97 258.274 17.1182L254.955 17.7033C256.473 23.5971 260.206 28.7379 264.101 28.0511C268.235 27.3222 270.275 20.5546 268.552 10.7826Z"
                    fill="black"
            />
            <path
                    d="M235.817 161.916L259.483 183.984C262.259 186.573 264.498 187.955 267.207 187.861C269.915 187.766 272.014 186.246 274.615 183.456L281.314 176.273C283.915 173.483 285.286 171.284 285.179 168.588C285.07 165.867 283.549 163.743 280.773 161.154L257.093 139.073C254.344 136.509 252.105 135.127 249.397 135.221C246.688 135.316 244.59 136.836 242.013 139.599L235.302 146.796C232.701 149.586 231.33 151.785 231.425 154.494C231.533 157.215 233.054 159.339 235.817 161.916ZM238.821 157.964C237.393 156.632 236.584 155.5 236.542 154.302C236.488 153.117 237.217 151.984 238.562 150.542L245.939 142.63C247.297 141.175 248.39 140.38 249.575 140.326C250.759 140.272 251.946 141.026 253.388 142.37L277.782 165.118C279.211 166.45 280.019 167.582 280.048 168.768C280.102 169.952 279.386 171.099 278.041 172.541L270.651 180.465C269.307 181.907 268.226 182.688 267.028 182.73C265.843 182.784 264.657 182.057 263.229 180.724L238.821 157.964ZM241.111 155.942L265.087 178.3C265.787 178.953 266.28 179.236 266.892 179.227C267.504 179.193 267.975 178.877 268.629 178.176L275.616 170.683C276.27 169.982 276.553 169.489 276.544 168.877C276.51 168.265 276.206 167.78 275.505 167.127L251.529 144.769C250.829 144.116 250.31 143.834 249.711 143.855C249.1 143.889 248.615 144.193 247.961 144.894L240.974 152.387C240.32 153.088 240.037 153.58 240.059 154.205C240.08 154.804 240.41 155.288 241.111 155.942ZM276.75 185.598C277.972 186.611 280.93 186.573 283.017 184.336C285.09 182.112 284.922 179.158 283.826 178.01L276.75 185.598Z"
                    fill="black"
            />
            <path
                    d="M-14.0332 2.87946L-17.9096 27.3539C-18.3643 30.225 -18.2831 32.2381 -17.0632 33.9172C-15.8433 35.5963 -13.9795 36.2772 -11.0944 36.7342L-3.66566 37.9108C-0.780573 38.3677 1.20242 38.296 2.86757 37.0739C4.54887 35.84 5.24596 33.9645 5.70071 31.0934L9.57928 6.60502C10.0296 3.76175 9.94841 1.74868 8.72848 0.0695915C7.50855 -1.6095 5.64476 -2.29045 2.78755 -2.74299L-4.65512 -3.92179C-7.5402 -4.37874 -9.52319 -4.30706 -11.2023 -3.08713C-12.8836 -1.85326 -13.5807 0.0222525 -14.0332 2.87946ZM-10.2383 3.09475C-10.0043 1.61737 -9.63192 0.619099 -8.88925 0.0795148C-8.16051 -0.462277 -7.12831 -0.484526 -5.63698 -0.248324L2.54438 1.04748C4.04965 1.28589 5.02225 1.63995 5.56404 2.36869C6.10583 3.09743 6.13539 4.17365 5.89919 5.66497L1.90362 30.892C1.66963 32.3694 1.29721 33.3677 0.55674 33.8933C-0.171996 34.4351 -1.20641 34.4713 -2.69773 34.2351L-10.893 32.9371C-12.3844 32.7009 -13.343 32.349 -13.8826 31.6064C-14.4244 30.8776 -14.4701 29.8131 -14.2361 28.3357L-10.2383 3.09475ZM-7.97395 3.68199L-11.9011 28.477C-12.0159 29.2017 -11.9845 29.6353 -11.717 30.0206C-11.4332 30.3941 -11.0306 30.5579 -10.3058 30.6727L-2.55649 31.9001C-1.83174 32.0149 -1.39816 31.9835 -1.01288 31.7159C-0.63934 31.4322 -0.461615 31.0317 -0.346825 30.307L3.58031 5.51201C3.6951 4.78725 3.65204 4.33753 3.38224 3.96619C3.09851 3.59265 2.69805 3.41492 1.97329 3.30013L-5.77601 2.07276C-6.50077 1.95797 -6.93435 1.98931 -7.32183 2.27083C-7.69317 2.54062 -7.85916 2.95724 -7.97395 3.68199ZM-11.54 39.0067C-11.6602 40.2164 -10.3692 42.0782 -8.05556 42.4446C-5.75586 42.8088 -3.95272 41.4371 -3.69318 40.2495L-11.54 39.0067Z"
                    fill="black"
            />
            <path
                    d="M17.5143 187.141C16.889 186.973 15.3226 188.967 14.5785 191.743L12.4738 199.598C10.0505 199.686 7.87729 201.343 7.2204 203.794C6.41604 206.796 8.16983 209.907 11.1968 210.718C14.2112 211.526 17.298 209.712 18.1023 206.71C18.7592 204.259 17.7021 201.75 15.66 200.465L17.7681 192.598C18.5087 189.834 18.1397 187.308 17.5143 187.141ZM14.287 205.339C15.2751 205.604 15.9161 206.714 15.648 207.715C15.3765 208.728 14.273 209.344 13.2849 209.079C12.2592 208.804 11.6491 207.729 11.9206 206.716C12.1887 205.716 13.2613 205.064 14.287 205.339ZM19.0241 181.606C10.331 179.277 4.05512 180.585 3.06978 184.262C2.14141 187.727 6.49106 191.507 11.6964 193.344L12.4873 190.392C9.08717 189.173 6.00764 187.007 6.4601 185.318C7.03655 183.167 11.9374 182.938 18.2164 184.621C24.5079 186.307 28.6287 188.939 28.0489 191.103C27.5964 192.792 23.8466 193.127 20.2923 192.483L19.5013 195.435C24.9278 196.447 30.5846 195.348 31.5129 191.884C32.4983 188.206 27.7171 183.936 19.0241 181.606Z"
                    fill="black"
            />
            <path
                    d="M151.135 178.276L156.062 175.198C158.492 173.68 158.92 171.798 157.368 169.314L154.314 164.427C152.761 161.942 150.891 161.517 148.462 163.035L143.535 166.113C141.106 167.631 140.669 169.499 142.221 171.983L145.275 176.87C146.827 179.355 148.706 179.794 151.135 178.276ZM137.183 186.994L142.11 183.916C144.539 182.398 144.968 180.517 143.416 178.032L140.362 173.145C138.809 170.661 136.939 170.235 134.51 171.753L129.583 174.831C127.154 176.349 126.717 178.217 128.269 180.701L131.323 185.589C132.875 188.073 134.754 188.512 137.183 186.994ZM135.342 184.501C134.799 184.84 134.415 184.738 134.065 184.179L130.73 178.841C130.397 178.309 130.474 177.919 131.017 177.58L136.351 174.247C136.88 173.916 137.278 174.009 137.611 174.541L140.946 179.879C141.296 180.439 141.205 180.837 140.676 181.168L135.342 184.501ZM149.294 175.782C148.765 176.113 148.367 176.02 148.017 175.46L144.682 170.123C144.349 169.59 144.44 169.192 144.969 168.861L150.303 165.528C150.846 165.189 151.23 165.291 151.563 165.823L154.898 171.161C155.248 171.72 155.171 172.11 154.628 172.449L149.294 175.782ZM135.543 181.832L138.162 180.195C138.393 180.051 138.428 179.896 138.257 179.623L136.662 177.07C136.509 176.824 136.354 176.788 136.123 176.932L133.504 178.569C133.287 178.705 133.265 178.851 133.419 179.097L135.014 181.65C135.184 181.923 135.325 181.968 135.543 181.832ZM149.535 173.088L152.155 171.451C152.386 171.307 152.421 171.152 152.25 170.879L150.655 168.326C150.502 168.081 150.347 168.045 150.116 168.189L147.497 169.826C147.28 169.961 147.258 170.108 147.411 170.353L149.007 172.906C149.177 173.179 149.318 173.224 149.535 173.088ZM145.952 201.028L150.879 197.949C153.308 196.431 153.737 194.55 152.193 192.079L149.131 187.178C147.578 184.694 145.708 184.268 143.279 185.786L138.352 188.865C135.923 190.383 135.485 192.25 137.038 194.735L140.1 199.635C141.644 202.106 143.523 202.546 145.952 201.028ZM152.153 185.612L154.772 183.976C155.003 183.832 155.038 183.677 154.868 183.404L153.273 180.851C153.119 180.605 152.964 180.569 152.734 180.713L150.114 182.35C149.884 182.494 149.875 182.632 150.029 182.878L151.624 185.43C151.795 185.704 151.922 185.757 152.153 185.612ZM159.536 180.999L162.156 179.362C162.386 179.218 162.422 179.063 162.251 178.79L160.656 176.237C160.502 175.992 160.348 175.955 160.117 176.1L157.497 177.736C157.267 177.881 157.259 178.018 157.412 178.264L159.007 180.817C159.178 181.09 159.305 181.143 159.536 180.999ZM144.111 198.534C143.568 198.873 143.184 198.772 142.843 198.226L139.507 192.888C139.166 192.342 139.243 191.952 139.786 191.613L145.12 188.28C145.649 187.949 146.047 188.042 146.388 188.588L149.724 193.926C150.065 194.472 149.974 194.87 149.445 195.201L144.111 198.534ZM158.192 187.002L160.811 185.365C161.042 185.221 161.077 185.066 160.915 184.807L159.312 182.24C159.158 181.994 159.003 181.958 158.773 182.102L156.153 183.739C155.936 183.875 155.914 184.021 156.068 184.267L157.672 186.833C157.834 187.093 157.975 187.138 158.192 187.002ZM144.312 195.865L146.931 194.228C147.162 194.084 147.197 193.929 147.026 193.656L145.431 191.103C145.278 190.858 145.123 190.822 144.892 190.966L142.273 192.602C142.056 192.738 142.034 192.885 142.188 193.13L143.783 195.683C143.953 195.956 144.094 196.001 144.312 195.865ZM156.793 193.039L159.413 191.402C159.643 191.258 159.679 191.103 159.517 190.843L157.913 188.277C157.759 188.031 157.605 187.995 157.374 188.139L154.755 189.776C154.524 189.92 154.516 190.058 154.669 190.304L156.273 192.87C156.435 193.13 156.563 193.183 156.793 193.039ZM164.177 188.425L166.796 186.788C167.027 186.644 167.062 186.489 166.9 186.23L165.296 183.663C165.143 183.418 164.988 183.382 164.757 183.526L162.138 185.163C161.907 185.307 161.899 185.445 162.053 185.69L163.656 188.257C163.818 188.516 163.946 188.569 164.177 188.425Z"
                    fill="black"
            />
            <path
                    d="M198.198 225.547L206.683 209.588C207.679 207.716 208.101 206.308 207.658 204.861C207.216 203.413 206.092 202.501 204.211 201.5L199.367 198.925C197.486 197.925 196.101 197.503 194.662 197.951C193.21 198.402 192.284 199.53 191.288 201.402L182.798 217.37C181.812 219.224 181.39 220.632 181.833 222.08C182.275 223.527 183.399 224.44 185.262 225.43L190.115 228.011C191.996 229.011 193.381 229.432 194.829 228.99C196.281 228.538 197.207 227.41 198.198 225.547ZM195.632 224.497C195.12 225.461 194.626 226.061 193.985 226.257C193.354 226.457 192.637 226.227 191.665 225.71L186.33 222.874C185.348 222.352 184.762 221.877 184.561 221.245C184.36 220.614 184.596 219.865 185.113 218.893L193.859 202.443C194.371 201.48 194.865 200.88 195.501 200.693C196.132 200.492 196.854 200.713 197.826 201.23L203.17 204.071C204.143 204.588 204.72 205.059 204.916 205.699C205.117 206.33 204.895 207.075 204.383 208.039L195.632 224.497ZM194.21 223.555L202.806 207.387C203.058 206.914 203.139 206.608 203.046 206.279C202.939 205.954 202.7 205.745 202.227 205.494L197.174 202.807C196.702 202.556 196.395 202.474 196.066 202.567C195.741 202.674 195.523 202.908 195.272 203.381L186.676 219.549C186.424 220.021 186.347 220.342 186.445 220.662C186.552 220.987 186.786 221.205 187.259 221.456L192.312 224.143C192.784 224.394 193.091 224.475 193.425 224.373C193.745 224.275 193.958 224.027 194.21 223.555ZM205.058 200.039C205.428 199.233 204.98 197.643 203.471 196.841C201.972 196.043 200.402 196.561 199.941 197.318L205.058 200.039Z"
                    fill="black"
            />
            <path
                    d="M238.847 212.388C238.869 212.994 241.081 213.851 243.77 213.757L251.376 213.491C252.118 215.636 254.195 217.128 256.569 217.045C259.476 216.943 261.78 214.522 261.678 211.591C261.576 208.672 259.108 206.406 256.201 206.507C253.827 206.59 251.871 208.223 251.28 210.402L243.662 210.668C240.985 210.762 238.826 211.783 238.847 212.388ZM256.018 210.297C255.985 209.34 256.803 208.463 257.772 208.429C258.753 208.395 259.606 209.214 259.64 210.171C259.674 211.164 258.879 212.004 257.898 212.038C256.929 212.072 256.053 211.29 256.018 210.297ZM233.481 212.552C233.775 220.969 236.663 226.228 240.224 226.104C243.579 225.987 245.771 221.06 245.991 215.898L243.133 215.998C242.972 219.375 241.876 222.724 240.241 222.781C238.158 222.853 236.612 218.53 236.4 212.45C236.187 206.357 237.416 201.949 239.511 201.876C241.146 201.819 242.473 205.083 242.869 208.44L245.727 208.34C245.148 203.207 242.617 198.445 239.262 198.562C235.701 198.686 233.187 204.134 233.481 212.552Z"
                    fill="black"
            />
            <path
                    d="M51.0831 248.564L62.3115 233.664C63.6287 231.916 64.2863 230.549 64.0688 229.001C63.8513 227.454 62.853 226.342 61.0965 225.018L56.5737 221.61C54.8172 220.287 53.4736 219.633 51.9346 219.857C50.3807 220.083 49.2543 221.084 47.937 222.832L36.7023 237.741C35.3979 239.472 34.7403 240.839 34.9577 242.386C35.1752 243.934 36.1736 245.045 37.9131 246.356L42.4444 249.771C44.2009 251.094 45.5445 251.748 47.092 251.53C48.6459 251.304 49.7723 250.304 51.0831 248.564ZM48.6364 247.08C47.9586 247.979 47.3581 248.511 46.6736 248.607C45.9977 248.71 45.3036 248.36 44.3956 247.676L39.4146 243.922C38.4982 243.232 37.9768 242.652 37.8742 241.976C37.7716 241.3 38.1324 240.574 38.8165 239.667L50.3902 224.308C51.068 223.408 51.6685 222.876 52.3465 222.789C53.0225 222.686 53.723 223.028 54.6309 223.712L59.6204 227.472C60.5284 228.156 61.0413 228.729 61.1375 229.413C61.2401 230.089 60.8942 230.813 60.2164 231.712L48.6364 247.08ZM47.3386 245.889L58.714 230.793C59.0465 230.352 59.1789 230.052 59.1372 229.702C59.0806 229.353 58.8708 229.102 58.4296 228.769L53.7117 225.214C53.2704 224.882 52.9711 224.749 52.6204 224.791C52.2717 224.848 52.012 225.051 51.6795 225.492L40.3041 240.588C39.9716 241.029 39.8412 241.343 39.8893 241.686C39.9459 242.034 40.1493 242.294 40.5906 242.626L45.3085 246.182C45.7498 246.514 46.0491 246.647 46.4062 246.596C46.7484 246.548 47.0061 246.33 47.3386 245.889ZM62.1961 223.665C62.7036 222.903 62.5034 221.209 61.0948 220.148C59.6947 219.093 58.0111 219.367 57.4187 220.065L62.1961 223.665Z"
                    fill="black"
            />
            <path
                    d="M101.609 228.047C101.451 228.381 101.623 228.751 101.969 228.882C105.299 230.199 107.764 232.644 109.116 235.989C110.471 239.345 110.394 242.839 108.896 246.084C108.767 246.407 108.916 246.775 109.253 246.91L111.1 247.686C111.41 247.809 111.714 247.698 111.853 247.427C113.76 243.995 113.995 238.993 112.267 234.716C110.536 230.43 106.892 226.995 103.136 225.85C102.848 225.752 102.555 225.893 102.414 226.187L101.609 228.047ZM99.2932 233.483C99.1332 233.841 99.3015 234.202 99.6807 234.33C101.421 234.981 102.962 236.422 103.666 238.191C104.393 239.962 104.26 242.091 103.454 243.782C103.286 244.12 103.427 244.469 103.787 244.606L105.847 245.488C106.137 245.619 106.445 245.517 106.59 245.233C107.829 242.995 107.987 239.784 106.827 236.914C105.664 234.034 103.323 231.843 100.874 231.085C100.572 230.981 100.279 231.122 100.162 231.417L99.2932 233.483ZM96.4122 241.122C96.5141 241.374 96.7439 241.552 97.2652 241.781L100.378 243.175C100.658 243.31 100.989 243.209 101.148 242.931C101.74 241.857 101.894 240.396 101.377 239.116C100.844 237.797 99.6835 236.822 98.4335 236.492C98.179 236.449 97.9406 236.613 97.8387 236.891L96.5639 240.045C96.3385 240.576 96.3064 240.86 96.4122 241.122Z"
                    fill="black"
            />
            <path
                    d="M194.768 33.4603C194.482 34.1684 196.59 36.2887 199.734 37.5589L208.627 41.152C208.382 44.0016 210.009 46.7839 212.784 47.9053C216.183 49.2784 220.077 47.6725 221.462 44.2454C222.841 40.8326 221.161 36.9581 217.762 35.585C214.986 34.4635 211.898 35.3406 210.1 37.5466L201.193 33.9478C198.063 32.6833 195.054 32.7523 194.768 33.4603ZM215.609 39.8545C216.061 38.7358 217.453 38.145 218.585 38.6027C219.733 39.0662 220.295 40.4465 219.843 41.5653C219.374 42.7265 218.028 43.2862 216.88 42.8228C215.748 42.3651 215.14 41.0157 215.609 39.8545ZM188.506 30.8974C184.529 40.7395 185.158 48.2747 189.322 49.9568C193.244 51.5417 198.294 46.9928 201.193 41.1631L197.851 39.8128C195.935 43.6181 192.957 46.9119 191.045 46.1395C188.609 45.1554 189.046 39.3852 191.919 32.2763C194.796 25.1531 198.471 20.7073 200.921 21.6972C202.832 22.4696 202.686 26.9078 201.422 30.9762L204.764 32.3265C206.728 26.1191 206.255 19.3389 202.332 17.754C198.169 16.0719 192.482 21.0553 188.506 30.8974Z"
                    fill="black"
            />
            <path
                    d="M256.121 258.587C254.848 258.246 251.659 262.304 250.145 267.956L245.86 283.947C240.927 284.126 236.503 287.498 235.166 292.488C233.528 298.599 237.099 304.932 243.26 306.583C249.397 308.227 255.68 304.535 257.318 298.424C258.655 293.433 256.503 288.327 252.346 285.712L256.637 269.696C258.145 264.069 257.394 258.928 256.121 258.587ZM249.551 295.633C251.563 296.172 252.867 298.432 252.322 300.469C251.769 302.532 249.523 303.785 247.511 303.246C245.423 302.687 244.181 300.499 244.734 298.436C245.28 296.399 247.463 295.074 249.551 295.633ZM259.194 247.321C241.498 242.579 228.722 245.242 226.716 252.728C224.827 259.781 233.681 267.475 244.277 271.215L245.887 265.206C238.966 262.723 232.697 258.314 233.618 254.877C234.792 250.498 244.768 250.032 257.55 253.457C270.357 256.889 278.746 262.248 277.566 266.653C276.645 270.09 269.011 270.774 261.776 269.463L260.166 275.472C271.212 277.531 282.728 275.295 284.617 268.242C286.623 260.756 276.89 252.063 259.194 247.321Z"
                    fill="black"
            />
            <path
                    d="M23.8119 285.135L-1.48851 273.871C-4.45656 272.549 -6.65329 272.054 -8.81886 272.886C-10.9844 273.717 -12.2587 275.532 -13.5866 278.515L-17.0057 286.194C-18.3335 289.176 -18.8298 291.338 -17.9921 293.489C-17.1464 295.661 -15.3233 296.956 -12.3553 298.278L12.9595 309.549C15.8988 310.857 18.0955 311.352 20.2611 310.52C22.4266 309.689 23.7009 307.874 25.016 304.92L28.4415 297.227C29.7693 294.244 30.2656 292.083 29.4343 289.917C28.5886 287.745 26.7655 286.45 23.8119 285.135ZM22.4817 289.17C24.009 289.849 24.9789 290.54 25.3466 291.498C25.7207 292.442 25.4461 293.562 24.7598 295.104L20.9942 303.562C20.3014 305.118 19.6379 306.065 18.6944 306.439C17.751 306.813 16.5806 306.534 15.0389 305.848L-11.0395 294.237C-12.5667 293.557 -13.5367 292.866 -13.89 291.914C-14.2641 290.971 -14.0039 289.844 -13.3175 288.302L-9.54561 279.83C-8.85923 278.289 -8.20206 277.355 -7.24421 276.988C-6.30077 276.614 -5.13836 276.872 -3.61111 277.552L22.4817 289.17ZM21.1927 291.444L-4.43903 280.032C-5.18825 279.699 -5.66539 279.607 -6.15872 279.784C-6.64407 279.983 -6.93736 280.37 -7.27094 281.119L-10.8376 289.13C-11.1712 289.879 -11.2628 290.356 -11.0853 290.85C-10.8871 291.335 -10.5062 291.643 -9.75694 291.976L15.8748 303.388C16.624 303.722 17.122 303.806 17.6009 303.622C18.0863 303.423 18.394 303.043 18.7276 302.293L22.2942 294.283C22.6278 293.533 22.7194 293.056 22.5275 292.556C22.3437 292.077 21.942 291.778 21.1927 291.444ZM-15.911 277.376C-17.1821 276.896 -19.5655 277.752 -20.6304 280.143C-21.6888 282.521 -20.7296 284.864 -19.5225 285.488L-15.911 277.376Z"
                    fill="black"
            />
            <path
                    d="M173.316 60.791C173.081 61.0995 173.177 61.5165 173.503 61.726C176.628 63.8007 178.622 66.8426 179.278 70.5654C179.937 74.2989 179.096 77.8628 176.855 80.8615C176.652 81.1642 176.724 81.5743 177.04 81.7857L178.764 82.9837C179.054 83.1773 179.391 83.1291 179.592 82.8822C182.294 79.7801 183.624 74.7056 182.785 69.947C181.944 65.1776 178.958 60.8642 175.359 58.8732C175.085 58.71 174.754 58.7906 174.546 59.061L173.316 60.791ZM169.759 65.8576C169.517 66.1895 169.611 66.5957 169.971 66.8103C171.613 67.8559 172.878 69.6689 173.214 71.6347C173.573 73.6074 172.973 75.7603 171.779 77.3171C171.534 77.6275 171.602 78.0159 171.941 78.2343L173.86 79.5872C174.128 79.7846 174.466 79.7472 174.676 79.4877C176.434 77.4644 177.295 74.2084 176.732 71.0144C176.167 67.8096 174.246 65.0553 171.9 63.7442C171.614 63.5722 171.284 63.6527 171.099 63.9301L169.759 65.8576ZM165.143 73.0579C165.192 73.3384 165.389 73.5707 165.873 73.9193L168.759 76.0251C169.016 76.2244 169.378 76.194 169.601 75.9433C170.442 74.9716 170.918 73.508 170.667 72.0837C170.409 70.6162 169.431 69.3644 168.222 68.7542C167.971 68.6539 167.691 68.77 167.526 69.0328L165.532 71.9878C165.186 72.4828 165.091 72.7665 165.143 73.0579Z"
                    fill="black"
            />
            <path
                    d="M188.446 291.891C188.782 292.129 189.22 292.012 189.43 291.658C191.513 288.269 194.664 286.043 198.586 285.209C202.519 284.373 206.327 285.132 209.589 287.397C209.917 287.601 210.349 287.509 210.562 287.167L211.768 285.294C211.962 284.98 211.899 284.625 211.629 284.421C208.241 281.672 202.813 280.45 197.8 281.515C192.776 282.583 188.315 285.907 186.337 289.797C186.175 290.093 186.272 290.44 186.567 290.651L188.446 291.891ZM193.948 295.474C194.309 295.718 194.736 295.604 194.95 295.213C195.997 293.434 197.872 292.026 199.943 291.598C202.021 291.144 204.325 291.7 206.02 292.908C206.358 293.157 206.767 293.07 206.986 292.703L208.349 290.619C208.548 290.327 208.496 289.97 208.213 289.757C206.004 287.969 202.521 287.177 199.156 287.892C195.78 288.61 192.931 290.748 191.629 293.282C191.457 293.592 191.554 293.939 191.855 294.125L193.948 295.474ZM201.751 300.1C202.046 300.038 202.285 299.82 202.637 299.294L204.762 296.157C204.964 295.877 204.918 295.495 204.644 295.268C203.583 294.412 202.014 293.961 200.514 294.28C198.968 294.609 197.677 295.691 197.075 296.995C196.978 297.265 197.112 297.558 197.396 297.723L200.602 299.727C201.14 300.076 201.444 300.166 201.751 300.1Z"
                    fill="black"
            />
            <path
                    d="M79.5829 293.992C79.2468 293.41 76.6328 293.723 74.0475 295.216L66.734 299.439C64.89 297.724 62.0778 297.344 59.7952 298.662C57.0003 300.276 56.0037 303.848 57.6308 306.666C59.2512 309.473 62.8498 310.408 65.6448 308.794C67.9273 307.476 68.9932 304.858 68.4369 302.415L75.762 298.186C78.3357 296.7 79.9191 294.574 79.5829 293.992ZM63.8498 304.986C64.381 305.906 64.0364 307.191 63.1048 307.729C62.1615 308.274 60.8989 307.916 60.3677 306.996C59.8164 306.041 60.1578 304.804 61.1011 304.259C62.0328 303.721 63.2985 304.031 63.8498 304.986ZM84.7554 291.037C80.0825 282.943 74.5137 279.295 71.0898 281.272C67.864 283.134 68.2825 289.104 70.7558 294.275L73.5041 292.688C71.9028 289.296 71.2318 285.444 72.804 284.537C74.8071 283.38 78.5735 286.811 81.9488 292.657C85.3308 298.515 86.4237 303.474 84.409 304.637C82.8368 305.545 79.8367 303.038 77.6997 299.955L74.9513 301.542C78.1932 306.269 83.1535 309.617 86.3794 307.754C89.8032 305.777 89.4283 299.131 84.7554 291.037Z"
                    fill="black"
            />
            <path
                    d="M146.673 297.96L168.668 272.659C171.248 269.69 172.598 267.323 172.402 264.521C172.206 261.72 170.556 259.603 167.573 257.01L159.894 250.334C156.911 247.741 154.584 246.402 151.798 246.61C148.984 246.82 146.839 248.473 144.259 251.441L122.252 276.757C119.697 279.696 118.347 282.064 118.543 284.865C118.739 287.667 120.389 289.784 123.343 292.352L131.037 299.04C134.02 301.633 136.346 302.973 139.147 302.777C141.961 302.566 144.105 300.914 146.673 297.96ZM142.473 294.993C141.146 296.52 140.003 297.398 138.764 297.485C137.539 297.584 136.339 296.87 134.797 295.529L126.339 288.177C124.783 286.824 123.921 285.721 123.822 284.496C123.723 283.272 124.46 282.016 125.801 280.474L148.471 254.394C149.799 252.867 150.942 251.988 152.169 251.916C153.393 251.817 154.606 252.517 156.148 253.857L164.62 261.222C166.162 262.562 167.009 263.653 167.096 264.892C167.195 266.117 166.484 267.371 165.157 268.898L142.473 294.993ZM140.296 292.695L162.579 267.062C163.23 266.313 163.505 265.793 163.474 265.159C163.417 264.527 163.072 264.051 162.323 263.399L154.312 256.435C153.562 255.784 153.042 255.509 152.408 255.54C151.776 255.597 151.285 255.93 150.634 256.679L128.352 282.312C127.7 283.061 127.427 283.608 127.47 284.228C127.528 284.86 127.86 285.351 128.61 286.002L136.621 292.966C137.37 293.617 137.89 293.892 138.536 293.847C139.156 293.804 139.645 293.445 140.296 292.695ZM169.714 254.722C170.719 253.42 170.573 250.359 168.181 248.279C165.803 246.213 162.751 246.494 161.602 247.67L169.714 254.722Z"
                    fill="black"
            />
        </g>
    </g>
    <defs>
        <clipPath id="clip0">
            <rect width="320" height="320" fill="white" transform="translate(-39 0.795898)" />
        </clipPath>
    </defs>
</svg>