<svg width="52" height="22" viewBox="0 0 52 22" fill="none" xmlns="http://www.w3.org/2000/svg">
<path d="M13.6318 21.0537C19.0439 21.0537 23.4434 16.7871 23.8418 11.5576C24.5557 11.292 25.3359 11.1924 26 11.1924C26.6475 11.1924 27.4277 11.292 28.1582 11.5576C28.54 16.8369 32.9395 21.0537 38.3682 21.0537C43.5811 21.0537 47.8643 17.1689 48.5449 12.1719H50.7031C51.5664 12.1719 51.8984 11.6572 51.8984 10.9434V9.96387C51.8984 9.2334 51.5664 8.76855 50.7031 8.76855H48.4287C47.4824 4.10352 43.332 0.567383 38.3682 0.567383C33.6865 0.567383 29.752 3.70508 28.5234 7.97168C27.71 7.65625 26.7803 7.54004 26 7.54004C25.2197 7.54004 24.2734 7.65625 23.46 7.97168C22.2314 3.70508 18.2969 0.567383 13.6318 0.567383C8.73438 0.567383 4.65039 3.9873 3.60449 8.53613H1.28027C0.416992 8.53613 0.0849609 9.01758 0.0849609 9.73145V10.9434C0.0849609 11.6572 0.416992 12.1719 1.28027 12.1719H3.43848C4.11914 17.1523 8.38574 21.0537 13.6318 21.0537ZM13.6318 17.252C10.0791 17.252 7.19043 14.3799 7.19043 10.8105C7.19043 7.24121 10.0791 4.36914 13.6318 4.36914C17.168 4.36914 20.0732 7.24121 20.0732 10.8105C20.0732 14.3799 17.2178 17.252 13.6318 17.252ZM38.3682 17.252C34.7656 17.252 31.9102 14.3799 31.9102 10.8105C31.9102 7.24121 34.7656 4.36914 38.3682 4.36914C41.9209 4.36914 44.793 7.24121 44.793 10.8105C44.793 14.3799 41.9209 17.252 38.3682 17.252Z" fill="black"/>
</svg>
