<svg width="40" height="37" viewBox="0 0 40 37" fill="none" xmlns="http://www.w3.org/2000/svg">
<path d="M15.3018 10.0654C15.584 10.0654 15.7832 9.84961 15.833 9.56738C16.3809 6.62891 16.3311 6.5957 19.3691 6.01465C19.7012 5.94824 19.9004 5.76562 19.9004 5.4834C19.9004 5.18457 19.7012 5.00195 19.4023 4.93555C16.2979 4.30469 16.2646 4.28809 15.833 1.39941C15.7832 1.10059 15.584 0.901367 15.3018 0.901367C15.0029 0.901367 14.8203 1.10059 14.7705 1.38281C14.2061 4.35449 14.2891 4.4707 11.2012 4.93555C10.9023 4.98535 10.7031 5.18457 10.7031 5.4834C10.7031 5.76562 10.8857 5.94824 11.1846 6.01465C14.2891 6.66211 14.2891 6.67871 14.7705 9.58398C14.8037 9.84961 15.0029 10.0654 15.3018 10.0654ZM30.4092 16.0586C30.7412 16.0586 30.957 15.8262 31.0234 15.4941C31.6543 12.1572 31.5547 12.041 35.041 11.4434C35.4229 11.3936 35.6387 11.1777 35.6387 10.8457C35.6387 10.5137 35.4229 10.2979 35.0908 10.248C31.5381 9.56738 31.4551 9.50098 31.0234 6.19727C30.9736 5.86523 30.7412 5.63281 30.4092 5.63281C30.0771 5.63281 29.8613 5.86523 29.8115 6.19727C29.2471 9.58398 29.2803 9.7666 25.7441 10.248C25.4121 10.2812 25.1631 10.5137 25.1797 10.8457C25.1963 11.1777 25.3955 11.3936 25.7275 11.4434C29.2803 12.0908 29.3467 12.1904 29.8115 15.5107C29.8447 15.8262 30.0771 16.0586 30.4092 16.0586ZM6.05469 21.4375C6.38672 21.4375 6.61914 21.2051 6.65234 20.873C7.11719 17.5195 7.2002 17.4199 10.6865 16.8223C11.0684 16.7725 11.2842 16.5566 11.2842 16.2246C11.2842 15.8926 11.0684 15.6934 10.7363 15.627C7.18359 14.9463 7.18359 14.8633 6.65234 11.5762C6.60254 11.2441 6.38672 11.0117 6.05469 11.0117C5.72266 11.0117 5.49023 11.2441 5.45703 11.5762C4.99219 14.9795 4.90918 15.0625 1.37305 15.627C1.05762 15.6768 0.825195 15.8926 0.825195 16.2246C0.825195 16.5566 1.04102 16.7725 1.37305 16.8223C4.90918 17.4863 4.87598 17.6025 5.45703 20.9062C5.50684 21.2051 5.72266 21.4375 6.05469 21.4375ZM34.626 35.7646C35.6387 36.7939 37.3818 36.7939 38.3945 35.7646C39.4238 34.7188 39.4238 33.0254 38.3945 31.9961L22.6396 16.0918C21.627 15.0625 19.8838 15.0625 18.8711 16.0918C17.8418 17.1377 17.8584 18.8311 18.8711 19.877L34.626 35.7646ZM14.2559 36.4619C14.6875 36.4619 15.0195 36.1631 15.0693 35.6982C15.584 31.1494 15.7832 30.9668 20.4648 30.2861C20.9795 30.2197 21.2783 29.9209 21.2783 29.4727C21.2783 29.0576 20.9795 28.7588 20.5645 28.6758C15.7832 27.7461 15.584 27.7793 15.0693 23.2637C15.0195 22.7988 14.6875 22.5 14.2559 22.5C13.8242 22.5 13.5088 22.7988 13.459 23.2305C12.9111 27.8955 12.7451 28.0615 7.96387 28.6758C7.56543 28.7256 7.25 29.0576 7.25 29.4727C7.25 29.9043 7.54883 30.2031 7.96387 30.2861C12.7783 31.2158 12.8945 31.2158 13.459 35.748C13.5088 36.1631 13.8408 36.4619 14.2559 36.4619ZM35.7383 34.0879L27.9355 26.2686L29.0977 25.0732L36.9502 32.9258C37.3652 33.3242 37.5146 33.8555 37.0996 34.2705C36.7012 34.6523 36.1699 34.5195 35.7383 34.0879Z" fill="black"/>
</svg>
