<svg viewBox="0 0 8 8" fill="none" xmlns="http://www.w3.org/2000/svg">
<path d="M1.15481 8C0.953067 8 0.751345 7.9488 0.563519 7.8528C0.208736 7.6608 0 7.328 0 6.95681V1.04323C0 0.672036 0.208736 0.339238 0.563519 0.147239C0.925258 -0.0447597 1.36346 -0.0511598 1.7252 0.140839L7.42264 3.09762C7.78438 3.28322 8 3.62242 8 4.00002C8 4.37762 7.78438 4.71682 7.42264 4.90242L1.7252 7.8592C1.55129 7.9552 1.34959 8 1.15481 8ZM1.15481 0.960036C1.12698 0.960036 1.09918 0.972836 1.09222 0.979236C1.04353 1.00484 1.04348 1.03683 1.04348 1.04323V6.95681C1.04348 6.96961 1.04353 7.0016 1.09222 7.0208C1.11309 7.0336 1.16174 7.0528 1.21739 7.0208L6.90786 4.06402C6.92178 4.05762 6.95652 4.03842 6.95652 3.99362C6.95652 3.94882 6.92178 3.92962 6.90786 3.92322L1.21739 0.966436C1.19652 0.966436 1.17568 0.960036 1.15481 0.960036Z" fill="#939393"/>
</svg>
