<svg  viewBox="0 0 16 16" fill="none" xmlns="http://www.w3.org/2000/svg">
    <path d="M8.5 14.0371C12.3145 14.0371 15.4727 10.8721 15.4727 7.06445C15.4727 3.25 12.3076 0.0917969 8.49316 0.0917969C4.68555 0.0917969 1.52734 3.25 1.52734 7.06445C1.52734 10.8721 4.69238 14.0371 8.5 14.0371ZM8.5 12.875C5.27344 12.875 2.69629 10.291 2.69629 7.06445C2.69629 3.83789 5.2666 1.25391 8.49316 1.25391C11.7197 1.25391 14.3037 3.83789 14.3105 7.06445C14.3174 10.291 11.7266 12.875 8.5 12.875ZM5.89551 7.63867H7.91895V9.67578C7.91895 10.0176 8.15137 10.25 8.48633 10.25C8.82812 10.25 9.06738 10.0176 9.06738 9.67578V7.63867H11.1045C11.4463 7.63867 11.6787 7.40625 11.6787 7.07129C11.6787 6.72949 11.4463 6.49023 11.1045 6.49023H9.06738V4.4668C9.06738 4.11133 8.82812 3.87891 8.48633 3.87891C8.15137 3.87891 7.91895 4.11816 7.91895 4.4668V6.49023H5.89551C5.54004 6.49023 5.30762 6.72949 5.30762 7.07129C5.30762 7.40625 5.54688 7.63867 5.89551 7.63867Z" fill="#0066FF"/>
</svg>
