<svg
        width="22"
        height="22"
        viewBox="0 0 22 22"
        fill="none"
        xmlns="http://www.w3.org/2000/svg"
>
    <rect x="9" y="7" width="4" height="10" fill="black" />
    <path
            d="M4.47559 18.5688H17.5161C18.7612 18.5688 19.5415 17.6724 19.5415 16.5435C19.5415 16.2031 19.4585 15.8628 19.2759 15.5474L12.7432 3.85986C12.3696 3.1875 11.6807 2.83887 11 2.83887C10.311 2.83887 9.62207 3.1875 9.24854 3.85986L2.72412 15.5557C2.5415 15.8711 2.4502 16.2031 2.4502 16.5435C2.4502 17.6724 3.23047 18.5688 4.47559 18.5688ZM11 12.8828C10.5601 12.8828 10.3193 12.6338 10.3027 12.1855L10.1865 8.08496C10.1699 7.63672 10.5186 7.30469 10.9917 7.30469C11.4565 7.30469 11.8135 7.64502 11.7969 8.09326L11.6807 12.1855C11.6641 12.6421 11.415 12.8828 11 12.8828ZM11 15.9458C10.5186 15.9458 10.0703 15.564 10.0703 15.0493C10.0703 14.5347 10.5103 14.1528 11 14.1528C11.4814 14.1528 11.9297 14.5264 11.9297 15.0493C11.9297 15.5723 11.4731 15.9458 11 15.9458Z"
            fill="#FFCC00"
    />
</svg>