<svg width="16" height="19" viewBox="0 0 16 19" fill="none" xmlns="http://www.w3.org/2000/svg">
<path d="M13.5078 16.5234L14.0469 5.16406H14.9844C15.3047 5.16406 15.5625 4.89062 15.5625 4.57031C15.5625 4.25 15.3047 3.98438 14.9844 3.98438H11.4141V2.8125C11.4141 1.6875 10.6562 0.96875 9.45312 0.96875H6.53125C5.32812 0.96875 4.57812 1.6875 4.57812 2.8125V3.98438H1.01562C0.703125 3.98438 0.4375 4.25781 0.4375 4.57031C0.4375 4.89062 0.703125 5.16406 1.01562 5.16406H1.96094L2.5 16.5312C2.55469 17.6484 3.28906 18.3672 4.42188 18.3672H11.5859C12.7031 18.3672 13.4531 17.6406 13.5078 16.5234ZM5.82812 2.89062C5.82812 2.44531 6.14844 2.13281 6.625 2.13281H9.36719C9.84375 2.13281 10.1719 2.44531 10.1719 2.89062V3.98438H5.82812V2.89062ZM4.53125 17.1875C4.08594 17.1875 3.75 16.8516 3.72656 16.3906L3.17969 5.16406H12.7969L12.2812 16.3906C12.2578 16.8594 11.9297 17.1875 11.4609 17.1875H4.53125ZM10.3203 15.8203C10.5781 15.8203 10.7656 15.6094 10.7734 15.3125L11.0078 7.11719C11.0156 6.82812 10.8203 6.60938 10.5547 6.60938C10.3125 6.60938 10.1094 6.83594 10.1016 7.11719L9.86719 15.3047C9.85938 15.5938 10.0547 15.8203 10.3203 15.8203ZM5.6875 15.8203C5.95312 15.8203 6.14844 15.5938 6.14062 15.3047L5.89844 7.11719C5.89062 6.83594 5.6875 6.60938 5.44531 6.60938C5.17969 6.60938 4.98438 6.82812 4.99219 7.11719L5.22656 15.3125C5.23438 15.6094 5.42188 15.8203 5.6875 15.8203ZM8 15.8203C8.25781 15.8203 8.47656 15.5938 8.47656 15.3125V7.11719C8.47656 6.83594 8.25781 6.60938 8 6.60938C7.75 6.60938 7.53125 6.83594 7.53125 7.11719V15.3125C7.53125 15.5938 7.75 15.8203 8 15.8203Z" fill="black"/>
</svg>
